<svg width="29" height="29" viewBox="0 0 29 29" fill="none" xmlns="http://www.w3.org/2000/svg">
<circle cx="14.5" cy="14.5" r="14.5" fill="#232323"/>
<path d="M7.63352 9.81818V20H6.40057V11.1108H6.34091L3.85511 12.7614V11.5085L6.40057 9.81818H7.63352ZM13.8232 20.1392C13.1404 20.1392 12.5372 20.0182 12.0135 19.7763C11.4931 19.531 11.0871 19.1946 10.7955 18.767C10.5038 18.3362 10.3596 17.8456 10.3629 17.2955C10.3596 16.8646 10.4441 16.4669 10.6165 16.1023C10.7888 15.7344 11.0241 15.4278 11.3224 15.1825C11.6241 14.9339 11.9605 14.7765 12.3317 14.7102V14.6506C11.8445 14.5246 11.4567 14.2512 11.1683 13.8303C10.88 13.406 10.7375 12.9238 10.7408 12.3835C10.7375 11.8665 10.8684 11.4041 11.1335 10.9964C11.3987 10.5888 11.7633 10.2673 12.2273 10.032C12.6946 9.79664 13.2266 9.67898 13.8232 9.67898C14.4131 9.67898 14.9401 9.79664 15.4041 10.032C15.8681 10.2673 16.2327 10.5888 16.4979 10.9964C16.7663 11.4041 16.9022 11.8665 16.9055 12.3835C16.9022 12.9238 16.7547 13.406 16.4631 13.8303C16.1747 14.2512 15.7919 14.5246 15.3146 14.6506V14.7102C15.6825 14.7765 16.014 14.9339 16.3089 15.1825C16.6039 15.4278 16.8393 15.7344 17.0149 16.1023C17.1906 16.4669 17.2801 16.8646 17.2834 17.2955C17.2801 17.8456 17.1309 18.3362 16.8359 18.767C16.5443 19.1946 16.1383 19.531 15.6179 19.7763C15.1009 20.0182 14.5026 20.1392 13.8232 20.1392ZM13.8232 19.0455C14.2839 19.0455 14.6816 18.9709 15.0163 18.8217C15.3511 18.6726 15.6096 18.4621 15.7919 18.1903C15.9742 17.9186 16.067 17.6004 16.0703 17.2358C16.067 16.8513 15.9676 16.5116 15.772 16.2166C15.5765 15.9216 15.3097 15.6896 14.9716 15.5206C14.6368 15.3516 14.254 15.267 13.8232 15.267C13.389 15.267 13.0012 15.3516 12.6598 15.5206C12.3217 15.6896 12.0549 15.9216 11.8594 16.2166C11.6671 16.5116 11.5727 16.8513 11.576 17.2358C11.5727 17.6004 11.6605 17.9186 11.8395 18.1903C12.0218 18.4621 12.282 18.6726 12.62 18.8217C12.9581 18.9709 13.3591 19.0455 13.8232 19.0455ZM13.8232 14.2131C14.1877 14.2131 14.5109 14.1402 14.7926 13.9943C15.0777 13.8485 15.3014 13.6446 15.4638 13.3828C15.6262 13.121 15.709 12.8144 15.7124 12.4631C15.709 12.1184 15.6278 11.8184 15.4688 11.5632C15.3097 11.3047 15.0893 11.1058 14.8075 10.9666C14.5258 10.8241 14.1977 10.7528 13.8232 10.7528C13.442 10.7528 13.1089 10.8241 12.8239 10.9666C12.5388 11.1058 12.3184 11.3047 12.1626 11.5632C12.0069 11.8184 11.9306 12.1184 11.9339 12.4631C11.9306 12.8144 12.0085 13.121 12.1676 13.3828C12.33 13.6446 12.5537 13.8485 12.8388 13.9943C13.1238 14.1402 13.4519 14.2131 13.8232 14.2131ZM22.1916 18.2102V11.6477H23.3052V18.2102H22.1916ZM19.4672 15.4858V14.3722H26.0297V15.4858H19.4672Z" fill="white"/>
</svg>
