<?xml version="1.0" encoding="UTF-8"?>
<svg id="Layer_1" data-name="Layer 1" xmlns="http://www.w3.org/2000/svg" viewBox="0 0 141.73 141.73">
  <defs>
    <style>
      .cls-1 {
        fill: #f15a29;
      }

      .cls-2 {
        fill: none;
        stroke: #ddd;
        stroke-linecap: round;
        stroke-linejoin: round;
        stroke-width: 5.78px;
      }
    </style>
  </defs>
  <path class="cls-1" d="M75.69,119.55v3.93c0,2.67-1.02,3.77-3.22,3.77h-.47c-2.2,0-3.14-1.02-3.14-3.77v-3.85c-6.52-.71-11.24-3.22-13.6-6.05-1.1-1.26-1.73-2.59-1.73-3.85,0-2.75,3.3-4.48,3.54-4.17,2.36,3.54,6.68,6.45,12.1,7.31v-16.59c-7-1.73-14.38-4.79-14.38-14.15,0-7.31,5.82-12.89,14.23-14.15v-3.85c0-2.67,1.02-3.69,3.14-3.69h.55c2.2,0,3.14,1.02,3.14,3.69v3.69c5.58.55,9.75,2.52,12.1,4.72,1.34,1.34,2.04,2.75,2.04,4.09,0,2.83-3.46,4.56-3.62,4.32-2.28-3.22-6.29-5.74-10.93-6.45v15.96c7.39,1.81,15.56,4.87,15.56,14.54,0,7.78-6.13,13.52-15.33,14.54ZM69.4,88.97v-14.31c-4.17.94-6.92,3.77-6.92,7.31,0,3.93,2.67,5.66,6.92,7ZM83.08,105.32c0-4.24-3.38-6.13-7.86-7.55v15.17c4.79-.79,7.86-3.77,7.86-7.62Z"/>
  <g>
    <path class="cls-1" d="M51.67,32.73s4.18,4.98,15.18,4.49,22.53-3.74,22.53-3.74c0,0,2.66,2.75,2.62,3.29s-1.91,7.85-1.91,7.85c0,0-5.83,4.79-6.99,5.12s-15.93,2.91-15.93,2.91c0,0-7.51-2.33-8.61-3.56s-6.89-5.76-6.89-5.76l.35-6.1-.35-4.49Z"/>
    <path class="cls-2" d="M125.71,101.67c0-26.05-14.27-48.27-34.36-57.05h0c-10.54,10.55-27.63,10.54-38.17,0-20.09,8.79-34.35,31-34.35,57.05h0c0,16.87,23.92,30.54,53.44,30.54s53.44-13.67,53.44-30.54h0Z"/>
    <path class="cls-2" d="M91.36,44.62c0-5.54.97-10.84,2.66-15.8-12.33,11.22-31.18,11.21-43.51-.01,1.75,5.12,2.67,10.46,2.67,15.81,10.54,10.54,27.63,10.55,38.17,0h0s0,0,0,0Z"/>
    <path class="cls-2" d="M102.8,10.06c-2.76,0-5.52,1.05-7.63,3.16-4.22-4.22-11.05-4.22-15.27,0-4.22-4.22-11.05-4.22-15.27,0-4.22-4.22-11.05-4.22-15.27,0-2.1-2.11-4.87-3.16-7.63-3.16h-2.86c5.45,5.46,9.3,11.9,11.63,18.74,12.33,11.22,31.18,11.23,43.51.01,2.44-7.13,6.44-13.54,11.65-18.76h-2.87Z"/>
  </g>
</svg>