<?xml version="1.0" encoding="UTF-8"?>
<svg id="Layer_1" data-name="Layer 1" xmlns="http://www.w3.org/2000/svg" viewBox="0 0 141.73 141.73">
  <defs>
    <style>
      .cls-1 {
        fill: #fff;
      }

      .cls-2 {
        fill: #f15a29;
      }

      .cls-3 {
        stroke-width: 6.35px;
      }

      .cls-3, .cls-4 {
        fill: none;
        stroke: #ddd;
        stroke-linecap: round;
        stroke-linejoin: round;
      }

      .cls-4 {
        stroke-width: 6.68px;
      }
    </style>
  </defs>
  <path class="cls-2" d="M89.85,92.71c-.11,4.91,2.12,9,2.72,13.63-3.03-.81-9.46-.26-11.99-1.37-.39-.17-.75-.73-1.04-1.08,2.5-3.59,5.72-6.99,5.39-11.72-9.98,6.14-19.61-6.26-12.82-15.28.88-1.16,2.94-3.01,4.1-4.08,4.57-4.22,10.23-8.19,15-12.28l1.37.83c4.19,8.24,20.74,21.89,11.73,31.38-4.12,4.33-10.47,4.37-14.46-.02Z"/>
  <path class="cls-1" d="M75.12,50.73l-3.81-.55,2.19-5.99c1.27.23,1.87,6.29,1.63,6.54Z"/>
  <path class="cls-2" d="M77.85,52.62l-9.98-1.49-1.76,3.21-4.96-.74,10.86-19.07,6.75,1.01,4.83,21.42-4.99-.75-.74-3.59ZM77.04,48.78l-1.89-9.13-.92-.14-4.47,8.18,7.28,1.09Z"/>
  <path class="cls-2" d="M39.02,42.31l-9.66,2.92-.22,3.66-4.8,1.45,1.66-21.89,6.53-1.97,13.53,17.3-4.83,1.46-2.21-2.92ZM36.65,39.18l-5.61-7.44-.89.27-.55,9.3,7.04-2.13Z"/>
  <path class="cls-4" d="M46.6,117.42l-.4,3.63c-.41,3.77,2.33,7.2,6.11,7.62l60.65,6.67c3.77.42,7.2-2.33,7.62-6.11l10.01-91.01c.41-3.77-2.33-7.2-6.11-7.62l-40.55-4.46"/>
  <path class="cls-3" d="M64.26,24.17l20.27,2.23-4.73-15.64c-1.04-3.45-4.72-5.42-8.17-4.38L16.15,23.14c-3.45,1.04-5.42,4.72-4.38,8.17l25.16,83.24c1.04,3.45,4.72,5.42,8.17,4.38l1.8-.54,9.69-88.07c.42-3.8,3.87-6.57,7.68-6.15Z"/>
</svg>