<svg width="2rem" height="2rem" viewBox="0 0 22 22" version="1.1" xmlns="http://www.w3.org/2000/svg" class="sc-bqOBqt PBviZ" fill="none"><rect width="22" height="22" rx="11" fill="#EF3C4E" fill-opacity="0.2"></rect><path d="M9.12983 13.065C9.10639 13.065 9.08273 13.0615 9.05929 13.0539C8.94119 13.016 8.87695 12.8925 8.91594 12.7776C10.6478 7.68559 9.08566 6.18351 9.06988 6.16907C8.97905 6.08639 8.97477 5.94793 9.05996 5.86C9.14516 5.77184 9.28805 5.76769 9.37843 5.85037C9.45235 5.91774 11.165 7.56025 9.34417 12.9148C9.31262 13.0069 9.22449 13.065 9.12983 13.065Z" fill="#66CC66"></path><path d="M14.2825 13.4366C14.191 13.4366 14.1051 13.3824 14.0713 13.2943C12.1607 8.314 9.9547 8.04451 9.93261 8.04233C9.80978 8.03029 9.7185 7.92442 9.72954 7.80499C9.74059 7.68556 9.84809 7.59916 9.9707 7.60638C10.0717 7.61425 12.4666 7.85727 14.4937 13.1418C14.5372 13.2551 14.4779 13.3809 14.3611 13.4231C14.3352 13.4321 14.3086 13.4366 14.2825 13.4366Z" fill="#66CC66"></path><path d="M12.463 15.1498C12.1673 16.9008 10.4737 18.1622 8.6549 17.9829C6.65238 17.7851 5.2451 16.0105 5.53877 14.0976C5.76055 12.6516 6.89129 11.5546 8.28415 11.27C8.68691 11.1878 9.09575 11.3851 9.2702 11.7468C9.3324 11.8757 9.50978 11.9015 9.60804 11.7961L9.6112 11.7926C9.85844 11.5277 10.3358 11.431 10.6606 11.5996C11.9426 12.2661 12.7125 13.6715 12.463 15.1498Z" fill="#FD4F5A"></path><path d="M10.0287 17.8446C9.59375 17.978 9.12721 18.0283 8.65391 17.9824C6.65251 17.7855 5.24388 16.0094 5.53913 14.0976C5.76 12.6517 6.89142 11.5537 8.28428 11.2693C8.66743 11.1927 9.05734 11.3677 9.24215 11.6958C8.39021 12.2033 7.76365 13.0608 7.60363 14.0976C7.34669 15.7797 8.40373 17.359 10.0287 17.8446Z" fill="#EF3C4E"></path><path d="M13.0709 7.14819C12.3812 7.81753 11.2843 8.09183 9.94418 7.81228L9.94125 7.81162L9.9417 7.8079C9.36585 5.20644 11.0724 3.55015 13.754 4.10815L13.7558 4.1099C14.0455 5.41227 13.7617 6.47775 13.0709 7.14819Z" fill="#66CC66"></path><path d="M10.7775 7.91843C10.5138 7.90968 10.2366 7.87468 9.94582 7.81343H9.94132L9.94357 7.80906C9.36659 5.20825 11.0727 3.55021 13.7548 4.10799L13.757 4.11018C13.7999 4.30048 13.8292 4.48641 13.8472 4.66797C11.8345 4.58703 10.5701 5.90384 10.7775 7.91843Z" fill="#53BC53"></path><path d="M10.6095 14.606C11.0814 16.3201 12.8951 17.4136 14.6866 17.061C16.6594 16.6727 17.8794 14.7721 17.393 12.8966C17.0254 11.4789 15.7888 10.4953 14.374 10.3454C13.965 10.3021 13.5782 10.5377 13.4412 10.9144C13.3925 11.0485 13.2185 11.0911 13.1099 10.9958L13.1065 10.9927C12.8335 10.7527 12.3487 10.7022 12.0427 10.901C10.8346 11.6865 10.211 13.1589 10.6095 14.606Z" fill="#FD4F5A"></path><path d="M15.3952 10.6122C15.314 10.6975 15.2487 10.8003 15.2058 10.9162C15.1743 11.0015 15.0931 11.0475 15.012 11.0475C14.9624 11.0475 14.9151 11.0322 14.8745 10.9972L14.87 10.9928C14.5973 10.7544 14.1127 10.7041 13.8062 10.9031C12.5982 11.6884 11.9761 13.1605 12.3728 14.6064C12.7041 15.8138 13.7025 16.7128 14.8903 17.0147C14.8227 17.0344 14.7551 17.0497 14.6852 17.0628C12.8934 17.415 11.0813 16.3213 10.608 14.6064C10.2091 13.1605 10.8334 11.6884 12.0415 10.9031C12.348 10.7041 12.8326 10.7544 13.1053 10.9928L13.1098 10.9972C13.1503 11.0322 13.1977 11.0475 13.2473 11.0475C13.3284 11.0475 13.4095 11.0015 13.4411 10.9162C13.5763 10.5378 13.964 10.3038 14.3719 10.3475C14.728 10.3847 15.0729 10.4766 15.3952 10.6122Z" fill="#EF3C4E"></path></svg>