<?xml version="1.0" encoding="UTF-8"?>
<svg id="Layer_1" data-name="Layer 1" xmlns="http://www.w3.org/2000/svg" viewBox="0 0 141.73 141.73">
  <defs>
    <style>
      .cls-1 {
        fill: #ddd;
        stroke: #ddd;
      }

      .cls-1, .cls-2 {
        stroke-miterlimit: 10;
        stroke-width: 1.5px;
      }

      .cls-2 {
        fill: #f15a29;
        stroke: #f15a29;
      }
    </style>
  </defs>
  <polygon class="cls-1" points="107.61 114.35 23.98 114.35 23.98 104.7 27.2 104.7 27.2 111.13 104.4 111.13 104.4 104.7 107.61 104.7 107.61 114.35 107.61 114.35 107.61 114.35"/>
  <path class="cls-1" d="M23.98,41.99v53.06h82.02v-53.06H23.98ZM27.2,91.84v-46.63h22.92v46.63h-22.92ZM53.33,91.84v-46.63h23.32v46.63h-23.32ZM102.79,91.84h-22.92v-46.63h22.92v46.63h0Z"/>
  <path class="cls-2" d="M90.3,68.74c-1.38,3.25-2.19,6.71-2.42,10.23h3.22c.23-3.09.96-6.12,2.16-8.98,1.26-2.61,2.76-5.1,4.5-7.42l.04-.06v-3.15h-13.08v3.22h9.1c-1.36,1.95-2.54,4.01-3.53,6.17h0Z"/>
  <path class="cls-2" d="M63.98,68.74c-1.38,3.25-2.19,6.71-2.42,10.23h3.22c.23-3.09.96-6.12,2.16-8.98,1.26-2.61,2.76-5.1,4.5-7.42l.05-.06v-3.15h-13.08v3.22h9.1c-1.36,1.95-2.54,4.01-3.52,6.17h0Z"/>
  <path class="cls-2" d="M37.71,68.74c-1.38,3.25-2.19,6.71-2.42,10.23h3.22c.23-3.09.96-6.12,2.16-8.98,1.26-2.61,2.76-5.1,4.5-7.42l.05-.06v-3.15h-13.08v3.22h9.11c-1.36,1.95-2.54,4.01-3.53,6.17h0Z"/>
  <path class="cls-1" d="M138.17,46.01c0-4.44-3.6-8.04-8.04-8.04-4.44,0-8.04,3.6-8.04,8.04,0,3.82,2.69,7.11,6.43,7.88v25.89c0,1.33-1.08,2.41-2.41,2.41h-9.52v-45.02c0-3.55-2.88-6.43-6.43-6.43h-5.59c-4.44-6.54-13.27-11.74-24.27-14.27l-1.72-6.3c-.57-2.09-2.48-3.55-4.65-3.56h-17.61c-2.17,0-4.08,1.46-4.65,3.56l-1.71,6.27c-11.04,2.53-19.9,7.73-24.35,14.29h-5.5c-3.55,0-6.43,2.88-6.43,6.43v67.54l-5.19,11.7c-.78,1.76-.74,3.77.12,5.49l3.3,6.59c1.09,2.18,3.31,3.55,5.74,3.56h94.98c2.44,0,4.66-1.38,5.75-3.56l3.3-6.59c.86-1.72.9-3.73.12-5.49l-5.2-11.7v-19.3h9.52c3.11,0,5.63-2.52,5.63-5.63v-25.89c3.74-.77,6.43-4.06,6.43-7.88h0ZM54.77,11.02c.19-.7.82-1.18,1.54-1.19h17.61c.73,0,1.36.49,1.55,1.19l1.29,4.75c-7.71-1.33-15.58-1.33-23.29-.02l1.3-4.73ZM65.07,17.98c15.67,0,29.2,5.22,35.55,12.76H29.52c6.35-7.53,19.88-12.76,35.55-12.76h0ZM118.84,117.71c.39.88.37,1.88-.06,2.74l-3.3,6.59c-.54,1.09-1.66,1.78-2.88,1.78H17.63c-1.22,0-2.34-.69-2.88-1.78l-3.3-6.59c-.43-.86-.45-1.87-.06-2.74l5.47-12.32V37.17c0-1.78,1.44-3.22,3.22-3.22h90.06c1.78,0,3.22,1.44,3.22,3.22v68.22l5.48,12.33h0ZM130.13,50.83c-2.66,0-4.82-2.16-4.82-4.82s2.16-4.82,4.82-4.82,4.82,2.16,4.82,4.82-2.16,4.82-4.82,4.82h0Z"/>
</svg>