<svg
                                                                width="2rem"
                                                                height="2rem"
                                                                viewBox="0 0 22 22"
                                                                version="1.1"
                                                                xmlns="http://www.w3.org/2000/svg"
                                                                className="sc-bqOBqt PBviZ"
                                                                fill="none"
                                                            >
                                                                <rect
                                                                    width="22"
                                                                    height="22"
                                                                    rx="11"
                                                                    fill="#FFD500"
                                                                    fill-opacity="0.2"
                                                                ></rect>
                                                                <path
                                                                    d="M17.2778 5.87652H15.5378V6.74642H17.2778C17.4538 6.74642 17.597 6.88432 17.597 7.05393V8.34203C17.597 8.62262 17.515 8.89694 17.3597 9.13505C16.9169 9.8147 16.0024 10.8225 14.6239 11.3463C14.2308 11.842 13.7277 12.2527 13.1501 12.5449C14.3001 12.4675 15.4158 12.0995 16.3458 11.4477C17.2178 10.8366 17.7945 10.1043 18.1246 9.59722C18.3702 9.22031 18.5 8.78595 18.5 8.34173V7.05364C18.5 6.4045 17.9516 5.87622 17.2778 5.87622V5.87652Z"
                                                                    fill="#FFEB7E"
                                                                    transform="translate(-0.5 0.5)"
                                                                ></path>
                                                                <path
                                                                    d="M16.1223 6.539V6.08431C16.1223 5.96974 16.2188 5.87671 16.3378 5.87671H15.5385V6.74661H16.3378C16.2188 6.74661 16.1223 6.65358 16.1223 6.539Z"
                                                                    fill="#FFE559"
                                                                    transform="translate(-0.5 0.5)"
                                                                ></path>
                                                                <path
                                                                    d="M14.8975 11.6966C15.1102 11.4809 15.3559 11.2967 15.6319 11.1632C16.7753 10.6113 17.5479 9.74203 17.9435 9.13478C18.0988 8.89637 18.1808 8.62205 18.1808 8.34176V7.05337C18.1808 6.88375 18.0379 6.74585 17.8616 6.74585H17.2778C17.4538 6.74585 17.597 6.88375 17.597 7.05337V8.34146C17.597 8.62206 17.515 8.89637 17.3597 9.13448C16.9169 9.81413 16.0024 10.8219 14.6239 11.3457C14.2308 11.8414 13.7277 12.2521 13.1501 12.5444C13.4066 12.527 13.6613 12.4947 13.9125 12.4484C14.2768 12.2428 14.6084 11.9892 14.8972 11.696L14.8975 11.6966Z"
                                                                    fill="#FFE559"
                                                                    transform="translate(-0.5 0.5)"
                                                                ></path>
                                                                <path
                                                                    d="M8.37639 11.3465C6.99793 10.8227 6.08341 9.81489 5.64059 9.13524C5.48532 8.89683 5.40334 8.62251 5.40334 8.34222V7.05412C5.40334 6.88451 5.5465 6.74661 5.72257 6.74661H7.46249V5.87671H5.72257C5.0484 5.87641 4.5 6.40469 4.5 7.05382V8.34192C4.5 8.78644 4.6298 9.2205 4.87544 9.59771C5.20553 10.1045 5.78219 10.837 6.65417 11.4482C7.58422 12.1 8.69997 12.468 9.84988 12.5454C9.27228 12.2529 8.76953 11.8425 8.37608 11.3468L8.37639 11.3465Z"
                                                                    fill="#FFEB7E"
                                                                    transform="translate(-0.5 0.5)"
                                                                ></path>
                                                                <path
                                                                    d="M7.23798 11.4482C6.366 10.837 5.78934 10.1048 5.45924 9.59771C5.21361 9.22079 5.0838 8.78644 5.0838 8.34222V7.05412C5.0838 6.40499 5.63221 5.87671 6.30606 5.87671H5.72226C5.0484 5.87671 4.5 6.40469 4.5 7.05382V8.34192C4.5 8.78614 4.6298 9.22049 4.87544 9.59741C5.20553 10.1042 5.78219 10.8367 6.65417 11.4479C7.58422 12.0997 8.69997 12.4677 9.84988 12.5451C9.78932 12.5146 9.73001 12.4823 9.67132 12.4491C8.79561 12.2885 7.96059 11.9543 7.23798 11.4479V11.4482Z"
                                                                    fill="#FFE559"
                                                                    transform="translate(-0.5 0.5)"
                                                                ></path>
                                                                <path
                                                                    d="M12.1871 14.364V12.8438C11.7337 12.9413 11.2664 12.9413 10.813 12.8438V14.364H12.1871Z"
                                                                    fill="#FBC700"
                                                                    transform="translate(-0.5 0.5)"
                                                                ></path>
                                                                <path
                                                                    d="M11.5232 12.9164C11.2853 12.9182 11.0474 12.894 10.813 12.8438V14.364H11.5232V12.9164Z"
                                                                    fill="#EAB900"
                                                                    transform="translate(-0.5 0.5)"
                                                                ></path>
                                                                <path
                                                                    d="M15.2524 16.9957V16.1822C15.2524 15.1572 14.3817 14.3184 13.3176 14.3184H9.68344C8.6194 14.3184 7.74866 15.1572 7.74866 16.1822V16.9957H15.2524Z"
                                                                    fill="#FFEB7E"
                                                                    transform="translate(-0.5 0.5)"
                                                                ></path>
                                                                <path
                                                                    d="M11.3547 14.3086H9.37586C8.52577 14.3086 7.6853 15.1431 7.6853 16.3949L7.6853 17.0003H9.56267V16.3949C9.56267 15.4364 10.5046 14.3086 11.3547 14.3086Z"
                                                                    fill="#FFE559"
                                                                    transform="translate(-0.5 0.5)"
                                                                ></path>
                                                                <path
                                                                    d="M15.5645 5.78432H7.43596C7.42322 5.78432 7.41049 5.78372 7.39807 5.78223V8.74102C7.39807 10.6032 8.62778 12.1883 10.3475 12.7845C11.0934 13.0429 11.9067 13.0429 12.6526 12.7845C14.3723 12.1883 15.6021 10.6032 15.6021 8.74102V5.78253C15.5896 5.78372 15.5769 5.78462 15.5642 5.78462L15.5645 5.78432Z"
                                                                    fill="#FFD500"
                                                                    transform="translate(-0.5 0.5)"
                                                                ></path>
                                                                <path
                                                                    d="M12.2579 12.7848C10.5382 12.1886 9.30818 10.6035 9.30818 8.74132V5.78432H7.43535C7.42261 5.78432 7.40988 5.78372 7.39746 5.78223V8.74132C7.39746 10.6035 8.62717 12.1886 10.3472 12.7848C11.0279 13.0208 11.7645 13.0406 12.4551 12.8458C12.389 12.8273 12.3231 12.8072 12.2579 12.7848Z"
                                                                    fill="#FBC700"
                                                                    transform="translate(-0.5 0.5)"
                                                                ></path>
                                                                <path
                                                                    d="M15.5641 5H7.43561C7.24215 5 7.08533 5.15107 7.08533 5.33743V5.53935C7.08533 5.72571 7.24215 5.87678 7.43561 5.87678H15.5641C15.7576 5.87678 15.9144 5.72571 15.9144 5.53935V5.33743C15.9144 5.15107 15.7576 5 15.5641 5Z"
                                                                    fill="#FFEB7E"
                                                                    transform="translate(-0.5 0.5)"
                                                                ></path>
                                                                <path
                                                                    d="M8.90878 5.53935V5.33743C8.90878 5.15107 9.0656 5 9.25906 5H7.43561C7.24215 5 7.08533 5.15107 7.08533 5.33743V5.53935C7.08533 5.72571 7.24215 5.87678 7.43561 5.87678H9.25906C9.0656 5.87678 8.90878 5.72571 8.90878 5.53935Z"
                                                                    fill="#FFE559"
                                                                    transform="translate(-0.5 0.5)"
                                                                ></path>
                                                            </svg>