<svg viewBox="0 0 16 16" class="Icons-safeZone__sc-1ygnqgu-0 IconsList__Svg-safeZone__sc-1oy48qt-0 fRNbHj hxSYDr" version="1.1" xmlns="http://www.w3.org/2000/svg" xmlns:xlink="http://www.w3.org/1999/xlink"><path class="b" d="M3.467,14.846A1.42,1.42,0,0,1,2,13.513V4.873A1.42,1.42,0,0,1,3.467,3.54h8.667a1.413,1.413,0,0,1,1.46,1.333v.793h.273A1.42,1.42,0,0,1,15.333,7v6.46a1.42,1.42,0,0,1-1.467,1.333H3.467ZM2.62,13.513a.827.827,0,0,0,.847.767h10.4a.82.82,0,0,0,.84-.793v-1.6h-3.44A1.82,1.82,0,0,1,10,11.34a1.553,1.553,0,0,1-.447-1.113,1.693,1.693,0,0,1,1.72-1.6h3.44v-1.6a.733.733,0,0,0-.233-.513.887.887,0,0,0-.613-.253H3.467a1.527,1.527,0,0,1-.493-.073l-.353-.12ZM11.267,9.18a1.16,1.16,0,0,0-.8.313,1,1,0,0,0-.333.753,1.133,1.133,0,0,0,2.267,0,.993.993,0,0,0-.327-.753,1.153,1.153,0,0,0-.793-.313Zm1.58.373a1.48,1.48,0,0,1,0,1.387l-.18.373h2.047V9.18H12.667ZM3.453,4.08a.86.86,0,0,0-.607.273.753.753,0,0,0-.2.553.82.82,0,0,0,.807.76H12.98V4.873a.82.82,0,0,0-.847-.793Z" transform="translate(-0.666 -1.18)" fill="#717171"></path></svg>