<svg width="2.6rem" height="1.8rem" viewBox="0 0 26 18" version="1.1" xmlns="http://www.w3.org/2000/svg" className="sc-bqOBqt PBviZ cy-burger-button" fill="unset">
                                            <g fill="#ffffff">
                                                <path fill-rule="evenodd" clip-rule="evenodd" d="M25.2456 12.2096L22.2671 9.11674C22.2511 9.10012 22.2332 9.08938 22.2162 9.07373C22.9838 7.86248 23.2913 6.39857 23.0791 4.96544C22.8669 3.53231 22.1501 2.2319 21.0676 1.31601C19.9851 0.400115 18.6138 -0.0661243 17.2193 0.00757337C15.8247 0.0812711 14.5061 0.68965 13.5187 1.71493C12.5314 2.74021 11.9455 4.10946 11.8745 5.55755C11.8035 7.00565 12.2525 8.42959 13.1345 9.55367C14.0165 10.6777 15.2689 11.422 16.649 11.6423C18.0292 11.8626 19.439 11.5434 20.6054 10.7463C20.6205 10.7639 20.6309 10.7825 20.6469 10.7991L23.6254 13.892C23.8402 14.1151 24.1317 14.2405 24.4355 14.2405C24.7394 14.2405 25.0308 14.1151 25.2456 13.892C25.4605 13.6689 25.5812 13.3663 25.5812 13.0508C25.5812 12.7353 25.4605 12.4327 25.2456 12.2096ZM17.5073 9.68116C16.7788 9.68135 16.0666 9.4572 15.4608 9.03707C14.855 8.61695 14.3828 8.0197 14.1039 7.32088C13.8249 6.62206 13.7518 5.85303 13.8938 5.11108C14.0358 4.36913 14.3866 3.68759 14.9016 3.15262C15.4167 2.61765 16.073 2.25329 16.7874 2.10564C17.5019 1.95799 18.2425 2.03366 18.9156 2.3231C19.5886 2.61255 20.1639 3.10276 20.5687 3.73172C20.9734 4.36068 21.1894 5.10016 21.1894 5.85662C21.1894 6.87078 20.8015 7.84342 20.111 8.56063C19.4205 9.27784 18.4839 9.6809 17.5073 9.68116Z"></path>
                                                <path d="M8.94878 1.37109H1.41297C0.632606 1.37109 0 2.02799 0 2.8383C0 3.64862 0.632606 4.30551 1.41297 4.30551H8.94878C9.72914 4.30551 10.3617 3.64862 10.3617 2.8383C10.3617 2.02799 9.72914 1.37109 8.94878 1.37109Z"></path>
                                                <path d="M8.94878 8.21875H1.41297C0.632606 8.21875 0 8.87564 0 9.68596C0 10.4963 0.632606 11.1532 1.41297 11.1532H8.94878C9.72914 11.1532 10.3617 10.4963 10.3617 9.68596C10.3617 8.87564 9.72914 8.21875 8.94878 8.21875Z"></path>
                                                <path d="M20.2525 15.0664H1.41297C0.632606 15.0664 0 15.7233 0 16.5336C0 17.3439 0.632606 18.0008 1.41297 18.0008H20.2525C21.0329 18.0008 21.6655 17.3439 21.6655 16.5336C21.6655 15.7233 21.0329 15.0664 20.2525 15.0664Z"></path>
                                            </g>
                                        </svg>