<?xml version="1.0" encoding="UTF-8"?>
<svg id="Layer_1" data-name="Layer 1" xmlns="http://www.w3.org/2000/svg" viewBox="0 0 141.73 141.73">
  <defs>
    <style>
      .cls-1 {
        stroke-width: 7px;
      }

      .cls-1, .cls-2 {
        fill: none;
        stroke: #ddd;
        stroke-linecap: round;
        stroke-linejoin: round;
      }

      .cls-2 {
        stroke-width: 7.03px;
      }

      .cls-3 {
        fill: #f15a29;
      }
    </style>
  </defs>
  <polyline class="cls-1" points="9.21 65.62 69.63 9.44 132.52 65.62"/>
  <path class="cls-2" d="M116.35,70.23v42.3c0,10.92-8.85,19.76-19.76,19.76h-51.44c-10.92,0-19.76-8.85-19.76-19.76v-42.3"/>
  <path class="cls-3" d="M74.59,107.94v4.43c0,3.01-1.15,4.25-3.63,4.25h-.53c-2.48,0-3.54-1.15-3.54-4.25v-4.34c-7.35-.8-12.67-3.63-15.33-6.82-1.24-1.42-1.95-2.92-1.95-4.34,0-3.1,3.72-5.05,3.99-4.7,2.66,3.99,7.53,7.27,13.65,8.24v-18.7c-7.89-1.95-16.22-5.41-16.22-15.95,0-8.24,6.56-14.53,16.04-15.95v-4.34c0-3.01,1.15-4.17,3.54-4.17h.62c2.48,0,3.54,1.15,3.54,4.17v4.16c6.29.62,10.99,2.84,13.65,5.32,1.51,1.51,2.3,3.1,2.3,4.61,0,3.19-3.9,5.14-4.08,4.87-2.57-3.63-7.09-6.47-12.32-7.27v17.99c8.33,2.04,17.54,5.49,17.54,16.39,0,8.77-6.91,15.24-17.28,16.39ZM67.5,73.47v-16.13c-4.7,1.06-7.8,4.25-7.8,8.24,0,4.43,3.01,6.38,7.8,7.89ZM82.92,91.9c0-4.79-3.81-6.91-8.86-8.51v17.1c5.41-.89,8.86-4.25,8.86-8.59Z"/>
</svg>