<svg width="2rem" height="2rem" viewBox="0 0 22 22" version="1.1" xmlns="http://www.w3.org/2000/svg" class="sc-bqOBqt PBviZ" fill="none"><rect width="22" height="22" rx="11" fill="#75E300" fill-opacity="0.2"></rect><path d="M18.5 9.02569C18.5 13.317 13.4686 16.1482 11.9376 16.9004C11.6752 17.0332 11.3251 17.0332 11.0627 16.9004C9.5314 16.1482 4.5 13.4054 4.5 9.02569C4.5 6.81377 6.11869 5 8.08744 5C9.66244 5 10.9751 6.10612 11.4562 7.65424C11.9376 6.10612 13.2939 5 14.8249 5C16.8813 5 18.5 6.81377 18.5 9.02569Z" fill="#B3F270" transform="translate(-0.5 0.7)"></path><path d="M18.4995 9.02569C18.4995 13.317 13.4681 16.1482 11.9371 16.9004C11.6747 17.0332 11.3247 17.0332 11.0183 16.9004C10.3181 16.5906 9.00584 15.8387 7.69324 14.7768H7.73692C11.8931 14.7768 15.2182 11.3704 15.2182 7.21192C15.2182 6.45979 15.0868 5.70765 14.8681 5C16.9245 5.04417 18.4992 6.81377 18.4992 9.02569H18.4995Z" fill="#75E400" transform="translate(-0.5 0.7)"></path><g opacity="0.2"><path d="M7.86907 8.36148C7.16893 8.53847 6.51278 8.27314 6.38143 7.78633C6.29406 7.25536 6.73149 6.7247 7.43133 6.54771C8.13116 6.37072 8.78761 6.63605 8.91897 7.12285C9.05032 7.65382 8.5689 8.18448 7.86907 8.36148Z" fill="white"></path></g></svg>