<svg
                                                                width="2rem"
                                                                height="2rem"
                                                                viewBox="0 0 22 22"
                                                                version="1.1"
                                                                xmlns="http://www.w3.org/2000/svg"
                                                                className="sc-bqOBqt PBviZ"
                                                                fill="none"
                                                            >
                                                                <rect
                                                                    width="22"
                                                                    height="22"
                                                                    rx="11"
                                                                    fill="#FFC850"
                                                                    fill-opacity="0.2"
                                                                ></rect>
                                                                <path
                                                                    fill-rule="evenodd"
                                                                    clip-rule="evenodd"
                                                                    d="M7.43303 4.19879C7.628 4.46961 8.17832 5.63264 8.49294 6.31044C8.54241 6.41699 8.40872 6.51325 8.32336 6.43252C7.7804 5.91915 6.852 5.0283 6.65703 4.75746C6.50275 4.54319 6.55139 4.24441 6.7657 4.09013C6.97997 3.93585 7.27875 3.98452 7.43303 4.19879ZM15.5706 4.19879C15.3756 4.46961 14.8253 5.63264 14.5107 6.31044C14.4612 6.41699 14.5949 6.51325 14.6803 6.43252C15.2232 5.91915 16.1516 5.02827 16.3466 4.75746C16.5009 4.54319 16.4522 4.24441 16.2379 4.09013C16.0237 3.93585 15.7249 3.98452 15.5706 4.19879ZM15.8599 12.0007C16.6012 12.0945 17.8765 12.2655 18.1937 12.3689C18.4448 12.4508 18.5819 12.7206 18.5 12.9717C18.4181 13.2227 18.1483 13.3599 17.8972 13.278C17.58 13.1745 16.4492 12.5607 15.7951 12.1994C15.6923 12.1426 15.7434 11.986 15.8599 12.0007ZM4.82997 12.3692C5.14722 12.2657 6.42249 12.0948 7.1638 12.001C7.28034 11.9862 7.33141 12.1428 7.22861 12.1996C6.57451 12.561 5.44371 13.1748 5.12646 13.2782C4.87543 13.3601 4.60557 13.223 4.52369 12.9719C4.44182 12.7209 4.57894 12.451 4.82997 12.3692ZM11.254 15.2034C11.1134 15.9373 10.8804 17.2027 10.8804 17.5364C10.8804 17.8004 11.0945 18.0145 11.3585 18.0145C11.6226 18.0145 11.8366 17.8004 11.8366 17.5364C11.8366 17.2027 11.6037 15.9373 11.463 15.2034C11.4409 15.0881 11.2762 15.0881 11.254 15.2034Z"
                                                                    fill="#FFF082"
                                                                    transform="translate(-0.5 0.5)"
                                                                ></path>
                                                                <path
                                                                    d="M16.2759 8.61259L13.0369 8.29757L11.7502 5.16453C11.6601 4.94516 11.3635 4.94516 11.2735 5.16453L9.98682 8.29754L6.74778 8.61259C6.52098 8.63464 6.42933 8.93046 6.60044 9.0881L9.0443 11.3394L8.3291 14.6672C8.27901 14.9002 8.51899 15.083 8.71483 14.9611L11.5118 13.2194L14.3089 14.9611C14.5047 15.083 14.7447 14.9002 14.6946 14.6672L13.9794 11.3394L16.4233 9.0881C16.5944 8.93046 16.5027 8.63464 16.2759 8.61259Z"
                                                                    fill="#FFDC64"
                                                                    transform="translate(-0.5 0.5)"
                                                                ></path>
                                                                <path
                                                                    d="M12.2181 6.30384L11.7502 5.16453C11.6601 4.94516 11.3635 4.94516 11.2734 5.16453L9.98679 8.29755L6.74778 8.61259C6.52098 8.63464 6.42933 8.93046 6.60044 9.0881L9.0443 11.3394L8.3291 14.6672C8.27901 14.9002 8.51899 15.083 8.71483 14.9611L9.08709 14.7293C9.69738 10.5865 11.4131 7.54544 12.2181 6.30384Z"
                                                                    fill="#FFC850"
                                                                    transform="translate(-0.5 0.5)"
                                                                ></path>
                                                            </svg>