<?xml version="1.0" encoding="UTF-8"?>
<!-- Generator: Adobe Illustrator 24.1.0, SVG Export Plug-In . SVG Version: 6.00 Build 0)  -->
<svg version="1.1" id="Layer_1" xmlns="http://www.w3.org/2000/svg" xmlns:xlink="http://www.w3.org/1999/xlink" x="0px" y="0px" viewBox="0 0 120 40" style="enable-background:new 0 0 120 40;" xml:space="preserve">
<style type="text/css">
	.st0{fill:#FCEE21;}
	.st1{fill:#44BE4C;}
	.st2{fill:#FFFFFF;}
	.st3{fill:#B3B3B3;}
</style>
<g>
	<g>
		<g>
			<g>
				<path class="st0" d="M56.92,6.6l1.34-0.99c0.13-0.1,0.06-0.3-0.1-0.3l-1.66-0.01c-0.07,0-0.13-0.04-0.16-0.11l-0.52-1.57      c-0.05-0.15-0.26-0.15-0.31,0L54.99,5.2c-0.02,0.07-0.08,0.11-0.16,0.11l-1.66,0.01c-0.16,0-0.22,0.2-0.1,0.3l1.34,0.99      c0.06,0.04,0.08,0.12,0.06,0.18l-0.5,1.58c-0.05,0.15,0.12,0.28,0.25,0.18l1.35-0.97c0.06-0.04,0.13-0.04,0.19,0l1.35,0.97      c0.13,0.1,0.3-0.03,0.25-0.18l-0.5-1.58C56.84,6.72,56.87,6.65,56.92,6.6z"/>
			</g>
		</g>
		<g>
			<g>
				<path class="st0" d="M62.3,6.36l0.76-0.56c0.07-0.05,0.03-0.17-0.05-0.17l-0.94-0.01c-0.04,0-0.08-0.03-0.09-0.06l-0.29-0.89      c-0.03-0.09-0.15-0.09-0.18,0l-0.29,0.89c-0.01,0.04-0.05,0.06-0.09,0.06l-0.94,0.01c-0.09,0-0.13,0.11-0.05,0.17l0.76,0.56      c0.03,0.03,0.04,0.07,0.03,0.1l-0.29,0.89c-0.03,0.09,0.07,0.16,0.14,0.1l0.76-0.55c0.03-0.02,0.08-0.02,0.11,0l0.76,0.55      c0.07,0.05,0.17-0.02,0.14-0.1l-0.29-0.89C62.26,6.43,62.27,6.39,62.3,6.36z"/>
			</g>
		</g>
		<g>
			<g>
				<path class="st0" d="M50.46,6.36l0.76-0.56c0.07-0.05,0.03-0.17-0.05-0.17l-0.94-0.01c-0.04,0-0.08-0.03-0.09-0.06l-0.29-0.89      c-0.03-0.09-0.15-0.09-0.18,0l-0.29,0.89c-0.01,0.04-0.05,0.06-0.09,0.06l-0.94,0.01c-0.09,0-0.13,0.11-0.05,0.17l0.76,0.56      c0.03,0.03,0.04,0.07,0.03,0.1l-0.29,0.89c-0.03,0.09,0.07,0.16,0.14,0.1l0.76-0.55c0.03-0.02,0.08-0.02,0.11,0l0.76,0.55      c0.07,0.05,0.17-0.02,0.14-0.1l-0.29-0.89C50.41,6.43,50.42,6.39,50.46,6.36z"/>
			</g>
		</g>
	</g>
	<g>
		<g>
			<g>
				<path class="st1" d="M28.95,15.72c-0.28,0.05-0.54,0.09-1.1,0.09c-0.82,0-1.75-0.44-1.75-2.05v-0.22c0-1.63,0.94-2.05,1.75-2.05      c0.42,0,0.82,0.06,1.12,0.11c0.06,0.01,0.11,0.03,0.11,0.09v0.34c0,0.04-0.01,0.07-0.08,0.07c-0.01,0-0.01,0-0.02,0      c-0.24-0.02-0.73-0.06-1.12-0.06c-0.65,0-1.16,0.38-1.16,1.51v0.22c0,1.12,0.5,1.51,1.16,1.51c0.38,0,0.86-0.03,1.1-0.05      c0.01,0,0.02,0,0.03,0c0.07,0,0.11,0.03,0.11,0.11v0.27C29.08,15.67,29.02,15.71,28.95,15.72z"/>
			</g>
			<g>
				<path class="st1" d="M33.9,15.76h-0.39c-0.06,0-0.1-0.04-0.11-0.09l-0.43-1.32h-1.72l-0.43,1.32c-0.01,0.05-0.07,0.09-0.12,0.09      H30.3c-0.07,0-0.11-0.04-0.11-0.09c0-0.01,0-0.03,0.01-0.04l1.23-3.73c0.11-0.35,0.43-0.44,0.68-0.44      c0.25,0,0.56,0.08,0.67,0.43L34,15.63c0.01,0.01,0.01,0.03,0.01,0.04C34.01,15.72,33.97,15.76,33.9,15.76z M32.23,12.02      c-0.02-0.06-0.06-0.1-0.13-0.1c-0.07,0-0.11,0.04-0.13,0.1l-0.59,1.86h1.45L32.23,12.02z"/>
			</g>
			<g>
				<path class="st1" d="M39.14,15.76h-0.37c-0.07,0-0.12-0.06-0.12-0.13v-3.97c0-0.07,0.05-0.13,0.12-0.13h0.37      c0.07,0,0.12,0.05,0.12,0.13v3.97C39.26,15.69,39.21,15.76,39.14,15.76z"/>
			</g>
			<g>
				<path class="st1" d="M43.83,15.76h-0.41c-0.11,0-0.18-0.04-0.21-0.11l-2.05-3.2c-0.01-0.01-0.01-0.02-0.02-0.02      c-0.01,0-0.01,0.01-0.01,0.02v3.18c0,0.07-0.05,0.13-0.12,0.13h-0.35c-0.07,0-0.12-0.01-0.12-0.08v-3.97      c0-0.11,0.09-0.19,0.19-0.19h0.37c0.19,0,0.22,0.03,0.27,0.13l2.04,3.18l0.01,0.02c0.01,0,0.01-0.01,0.01-0.02v-3.18      c0-0.07,0.05-0.13,0.12-0.13h0.35c0.07,0,0.12,0.06,0.12,0.13v3.91C44.02,15.67,43.94,15.76,43.83,15.76z"/>
			</g>
			<g>
				<path class="st1" d="M47.01,15.81c-1.04,0-1.8-0.61-1.8-2.09v-0.15c0-1.47,0.76-2.09,1.8-2.09c1.04,0,1.79,0.61,1.79,2.09v0.15      C48.8,15.2,48.05,15.81,47.01,15.81z M48.19,13.57c0-1.12-0.45-1.54-1.18-1.54c-0.72,0-1.19,0.43-1.19,1.54v0.15      c0,1.12,0.46,1.54,1.19,1.54c0.72,0,1.18-0.43,1.18-1.54V13.57z"/>
			</g>
			<g>
				<path class="st1" d="M36.57,13.49l-0.61-0.31c-0.44-0.25-0.64-0.41-0.64-0.67c0-0.37,0.27-0.52,0.91-0.52      c0.26,0,0.6,0.01,1.02,0.04h0.01c0.07,0,0.12-0.04,0.12-0.11v-0.24c0-0.04-0.02-0.09-0.11-0.11c-0.21-0.03-0.66-0.07-1.03-0.07      c-0.96,0-1.49,0.36-1.49,1.01c0,0.49,0.33,0.78,0.82,1.07l0.63,0.33c0.52,0.3,0.7,0.46,0.7,0.74c0,0.44-0.31,0.65-0.94,0.65      c-0.27,0-0.69-0.02-0.97-0.04h-0.02c-0.07,0-0.12,0.04-0.12,0.11v0.22c0,0.07,0.02,0.1,0.13,0.12l0,0      c0.27,0.04,0.57,0.09,0.98,0.09c1.43,0,1.54-0.87,1.54-1.14C37.5,14.19,37.25,13.87,36.57,13.49z"/>
			</g>
		</g>
		<g>
			<g>
				<g>
					<path class="st2" d="M32.93,16.44h-2.05c-0.12,0-0.21,0.09-0.21,0.21v4.59c0,0.83-0.5,1.01-1.05,1.01       c-0.55,0-1.05-0.18-1.05-1.01v-4.59c0-0.12-0.09-0.21-0.21-0.21h-2.05c-0.12,0-0.22,0.09-0.22,0.21v4.59       c0,2.7,1.9,3.11,3.53,3.11c1.63,0,3.53-0.41,3.53-3.11v-4.59C33.15,16.54,33.04,16.44,32.93,16.44z"/>
				</g>
				<g>
					<path class="st2" d="M48.49,16.44h-2.05c-0.12,0-0.21,0.09-0.21,0.21v4.59c0,0.83-0.5,1.01-1.05,1.01       c-0.55,0-1.05-0.18-1.05-1.01v-4.59c0-0.12-0.09-0.21-0.21-0.21h-2.05c-0.12,0-0.22,0.09-0.22,0.21v4.59       c0,2.7,1.9,3.11,3.53,3.11c1.63,0,3.53-0.41,3.53-3.11v-4.59C48.71,16.54,48.61,16.44,48.49,16.44z"/>
				</g>
				<g>
					<path class="st2" d="M39.54,21.2c0.57-0.25,1.21-0.91,1.21-2.04v-0.21c0-1.98-1.31-2.61-3.42-2.61c-0.72,0-2.29,0.07-2.65,0.13       c-0.57,0.09-0.73,0.24-0.73,0.89v6.68c0,0.12,0.1,0.21,0.22,0.21h2.05c0.12,0,0.21-0.09,0.21-0.21v-2.47h0.69l1.25,2.47       c0.05,0.11,0.09,0.21,0.28,0.21h2.19c0.09,0,0.19-0.07,0.19-0.19c0-0.03-0.01-0.07-0.03-0.12L39.54,21.2z M38.28,19.17       c0,0.28-0.2,0.56-0.72,0.56h-1.14v-1.32h1.14c0.54,0,0.72,0.2,0.72,0.56V19.17z"/>
				</g>
			</g>
			<g>
				<g>
					<path class="st2" d="M22.69,17.34c0.79,0.02,1.86,0.08,2.24,0.13c0.18,0.03,0.22-0.04,0.22-0.23v-1.86       c0-0.16-0.01-0.2-0.27-0.28c-0.41-0.12-1.36-0.28-2.37-0.35c-0.18-0.01-0.36-0.02-0.55-0.02c-0.43,0-0.82,0.03-1.04,0.08       c0,0,0,0,0,0c0.01,0.06,0,0.12-0.01,0.16c-0.05,0.19-0.24,0.3-0.34,0.34c-0.02,0.01-0.51,0.22-1,0.35       c-0.31,0.12-0.55,0.17-0.73,0.17c-0.09,0-0.16-0.01-0.23-0.04c-0.51,0.44-0.97,1.1-1.26,2.08c-0.06,0.34-0.09,0.71-0.09,1.12       v1.08c0,3.65,2.42,4.3,4.03,4.3c1.19,0,2.82-0.19,3.59-0.35c0.23-0.05,0.27-0.06,0.27-0.28V19.3c0-0.15-0.12-0.27-0.27-0.27H24       h-1.2h-1.09c-0.14,0-0.25,0.11-0.25,0.24v1.11c0,0.13,0.11,0.24,0.25,0.24h0.76c0.04,0,0.08,0.04,0.08,0.08v0.98       c0,0.06-0.04,0.1-0.1,0.11c-0.29,0.02-1.06,0.03-1.16,0.03c-0.38,0-1-0.05-1-1.71V19C20.29,17.6,21.07,17.3,22.69,17.34z"/>
				</g>
			</g>
		</g>
		<g>
			<g>
				<g>
					<g>
						<path class="st1" d="M18.35,15.25c0-0.02,0-0.05,0-0.06c0-0.07,0-0.17,0-0.32c0-0.03,0-0.07,0-0.1        c-1.59,1.36-1.66,2.48-1.57,3.02c0.01,0.08,0.12,0.12,0.22,0.12c0.07,0,0.13-0.02,0.14-0.07c0.3-1.02,0.78-1.7,1.3-2.17        C18.33,15.53,18.34,15.36,18.35,15.25z"/>
					</g>
				</g>
				<g>
					<g>
						<path class="st1" d="M15.57,10.95c0.01,0,0.02,0,0.03-0.01c0.34-0.2,0.83-0.44,1.18-0.6c0.06-0.2,0.12-0.4,0.19-0.59        c-0.53,0.21-1.15,0.64-1.47,1.1C15.48,10.89,15.52,10.95,15.57,10.95z"/>
					</g>
					<g>
						<path class="st1" d="M18.7,9.65c0.24-0.02,0.47-0.04,0.71-0.04c0.47,0,0.94,0.07,1.51,0.27c0.01,0,0.01,0,0.02,0        c0.01,0,0.01,0,0.01,0c0.23-0.05,0.42-0.07,0.59-0.07c0.18,0,0.34,0.02,0.51,0.05c0,0,0.01,0,0.01,0        c0.06,0,0.09-0.09,0.04-0.13c-0.65-0.42-1.63-0.54-2.5-0.54c-0.53,0-1.03,0.05-1.37,0.1C18.37,9.4,18.53,9.52,18.7,9.65z"/>
					</g>
					<g>
						<path class="st1" d="M20.52,9.94c-0.29-0.13-0.69-0.17-1.06-0.17c-0.21,0-0.41,0.01-0.57,0.02c0.24,0.19,0.48,0.39,0.72,0.58        c0.28-0.12,0.6-0.24,0.9-0.31C20.58,10.05,20.59,9.97,20.52,9.94z"/>
					</g>
					<g>
						<path class="st1" d="M19.95,10.66c0.47,0.39,0.86,0.72,1,0.86c0.84,0.01,1.86,0.09,2.71,0.6c0.01,0.01,0.02,0.01,0.04,0.01        c0.03,0,0.07-0.03,0.07-0.07c0.03-0.63-0.17-1.26-0.58-1.53c-0.21-0.14-0.68-0.44-1.42-0.44        C21.28,10.09,20.67,10.23,19.95,10.66z"/>
					</g>
					<g>
						<path class="st1" d="M16.5,14.09c-0.01-0.01-0.01-0.01-0.02-0.02c-0.3-0.37-0.41-0.81-0.32-1.26l0.02-0.08        c0-0.02,0.01-0.04,0.01-0.06c-0.01,0.01-0.01,0.01-0.02,0.02c0,0,0,0,0,0c-2.34,2.27-1.73,4.04-1,4.84        c0.01,0.02,0.03,0.02,0.05,0.02c0.04,0,0.08-0.04,0.07-0.08c-0.11-0.53-0.11-1.27,0.22-1.97        C15.74,15.04,16.1,14.57,16.5,14.09z"/>
					</g>
					<g>
						<path class="st1" d="M23.7,12.52c-0.9-0.55-1.71-0.73-2.53-0.75c0.23,0.35,0.27,0.79,0.1,1.21c-0.06,0.16-0.15,0.3-0.26,0.42        c1.57,0.13,2.41,1.04,2.53,1.21c0.01,0.01,0.02,0.03,0.04,0.03c0.19,0.03,0.27,0.04,0.49,0.07c0,0,0.01,0,0.01,0        c0.05,0,0.07-0.06,0.07-0.1c-0.08-0.54-0.64-0.81-0.95-1.08c-0.05-0.04-0.01-0.12,0.04-0.12c0.01,0,0.02,0,0.02,0        c0.52,0.19,0.71,0.76,0.94,0.81c0,0,0.01,0,0.01,0c0.03,0,0.06-0.03,0.07-0.07C24.32,13.24,24.09,12.77,23.7,12.52z"/>
					</g>
					<g>
						<path class="st1" d="M20.71,13.78c-0.07,0-0.13,0-0.2,0c0,0,0,0,0,0c-0.02,0-0.03-0.01-0.04-0.01        c-0.08,0.03-0.16,0.05-0.24,0.07c0.3,0.36,0.53,0.64,0.6,0.74c0.01,0.01,0.01,0.02,0.02,0.03c0.01,0,0.02,0,0.03-0.01        c0.23-0.06,0.63-0.09,1.09-0.09c0.27,0,0.56,0.01,0.84,0.04c0,0,0,0,0.01,0c0.06,0,0.1-0.08,0.05-0.12        C22.29,13.92,21.4,13.78,20.71,13.78z"/>
					</g>
					<g>
						<path class="st1" d="M14.42,13.14c0.02,0,0.04-0.01,0.05-0.02c0.48-0.53,1.29-1.16,1.97-1.54c0.08-0.31,0.17-0.66,0.27-1.02        c-0.64,0.37-1.36,0.84-1.57,1.03c-0.28,0.25-0.81,0.9-0.79,1.48C14.36,13.11,14.39,13.14,14.42,13.14z"/>
					</g>
					<g>
						<path class="st1" d="M16.29,12.25c0.03-0.12,0.05-0.24,0.09-0.38c-0.53,0.31-1.31,0.87-1.91,1.63c0,0,0,0,0,0        c-0.18,0.26-0.77,0.98-0.32,1.8c0.01,0.02,0.04,0.04,0.06,0.04c0.03,0,0.06-0.02,0.07-0.06        C14.37,14.69,14.7,13.57,16.29,12.25z"/>
					</g>
					<g>
						<path class="st1" d="M17.92,14.69c-0.06,0.01-0.11,0.01-0.17,0.01c-0.36,0-0.72-0.14-1.02-0.38c-0.54,0.57-0.97,1.36-1.06,1.9        c-0.17,1,0.05,1.84,0.81,2.32c0.01,0.01,0.02,0.01,0.03,0.01c0.04,0,0.08-0.04,0.07-0.09C16.01,16.52,17.18,15.45,17.92,14.69        z"/>
					</g>
				</g>
			</g>
			<g>
				<g>
					<g>
						<path class="st0" d="M19.98,13.87c-0.01,0-0.01,0-0.02,0c-0.3,0-0.6-0.1-0.89-0.28c-0.11,0.36-0.29,0.64-0.52,0.83        c0,0.41,0,0.65,0,0.76c0.01,0.14-0.08,0.45,0.29,0.45c0.14,0,0.36-0.05,0.67-0.16c0.41-0.11,0.85-0.28,0.98-0.34        c0.13-0.06,0.33-0.2,0.17-0.42C20.59,14.6,20.29,14.24,19.98,13.87z"/>
					</g>
				</g>
				<g>
					<path class="st0" d="M17.75,14.5c0.53,0,1.03-0.35,1.19-1.27c0.36,0.31,0.71,0.43,1.02,0.43c0.99,0,1.61-1.23,0.88-1.95       c-0.2-0.2-2.77-2.38-3.38-2.66c-0.61,1.4-1,3.34-1.1,3.82C16.19,13.75,16.99,14.5,17.75,14.5z"/>
				</g>
			</g>
		</g>
	</g>
	<g>
		<g>
			<path class="st2" d="M62.23,11.79h3.66v0.96h-2.6v1.02h2.29v0.96h-2.29v1.86h-1.06V11.79z"/>
			<path class="st2" d="M67.63,11.76h0.98l2.06,4.84h-1.11l-0.44-1.08h-2.03l-0.44,1.08h-1.08L67.63,11.76z M68.74,14.59l-0.64-1.56     l-0.64,1.56H68.74z"/>
			<path class="st2" d="M71.25,11.79h1.06v4.81h-1.06V11.79z"/>
			<path class="st2" d="M73.31,11.79h2.2c0.61,0,1.09,0.17,1.4,0.49c0.27,0.27,0.41,0.65,0.41,1.1v0.01c0,0.78-0.42,1.26-1.03,1.49     l1.17,1.72h-1.24l-1.03-1.54h-0.83v1.54h-1.06V11.79z M75.44,14.13c0.52,0,0.81-0.27,0.81-0.68v-0.01c0-0.45-0.32-0.69-0.83-0.69     h-1.05v1.38H75.44z"/>
		</g>
		<g>
			<path class="st2" d="M62.16,21.34v-0.01c0-1.36,1.02-2.49,2.4-2.49c0.86,0,1.37,0.32,1.87,0.77l-0.25,0.26     c-0.42-0.41-0.9-0.71-1.62-0.71c-1.15,0-2.03,0.94-2.03,2.15v0.01c0,1.22,0.89,2.16,2.03,2.16c0.69,0,1.17-0.27,1.66-0.75     l0.24,0.23c-0.51,0.5-1.06,0.84-1.91,0.84C63.17,23.81,62.16,22.72,62.16,21.34z"/>
			<path class="st2" d="M69.27,18.88h0.34l2.24,4.84h-0.39l-0.61-1.35h-2.84l-0.61,1.35h-0.37L69.27,18.88z M70.7,22.06l-1.26-2.78     l-1.27,2.78H70.7z"/>
			<path class="st2" d="M72.46,23.03l0.23-0.27c0.53,0.49,1.02,0.71,1.72,0.71c0.72,0,1.22-0.41,1.22-0.95v-0.01     c0-0.51-0.27-0.8-1.36-1.02c-1.15-0.23-1.62-0.63-1.62-1.35v-0.01c0-0.71,0.65-1.26,1.55-1.26c0.7,0,1.16,0.19,1.65,0.58     l-0.23,0.28c-0.45-0.39-0.91-0.54-1.44-0.54c-0.71,0-1.17,0.41-1.17,0.91v0.01c0,0.51,0.26,0.82,1.4,1.05     c1.11,0.23,1.58,0.63,1.58,1.33v0.01c0,0.78-0.67,1.31-1.59,1.31C73.62,23.8,73.03,23.54,72.46,23.03z"/>
			<path class="st2" d="M77.21,18.92h0.36v4.81h-0.36V18.92z"/>
			<path class="st2" d="M79.04,18.92h0.34l3.32,4.18v-4.18h0.34v4.81h-0.27l-3.39-4.27v4.27h-0.34V18.92z"/>
			<path class="st2" d="M84.26,21.34v-0.01c0-1.31,0.97-2.49,2.43-2.49S89.1,20,89.1,21.31v0.01c0,1.31-0.97,2.49-2.43,2.49     S84.26,22.65,84.26,21.34z M88.73,21.34v-0.01c0-1.19-0.87-2.16-2.05-2.16s-2.04,0.96-2.04,2.15v0.01c0,1.19,0.87,2.16,2.05,2.16     C87.87,23.49,88.73,22.53,88.73,21.34z"/>
		</g>
	</g>
	<path class="st3" d="M55.6,11.1c-0.1,0-0.17,0.08-0.17,0.17v13.19c0,0.1,0.08,0.17,0.17,0.17s0.17-0.08,0.17-0.17V11.27   C55.77,11.18,55.69,11.1,55.6,11.1z"/>
	<g>
		<path class="st1" d="M87.61,33.16H2.03V1.73h107.74v16.18c0.57-0.34,1.14-0.67,1.72-0.98V0.01H0.31v34.88h88.44    C88.38,34.31,88,33.74,87.61,33.16z"/>
		<path class="st1" d="M109.77,22.15v11.02H99.55c-0.44,0.57-0.87,1.14-1.3,1.72h13.25V20.64    C110.92,21.13,110.34,21.63,109.77,22.15z"/>
	</g>
	<g>
		<g>
			<path class="st0" d="M82.81,28.83c0.49-1.41,2.18-3.01,5.1-2.56c2.31,0.5,4.22,2.06,5.74,4.62c8.46-9.06,15.73-15.3,25.37-17.67     c0.86-0.16,1.31-0.12,0.69,0.42c-9.94,6.2-18.91,15.17-25.87,26.31c-0.16,0.26-0.75,0.24-0.95-0.04     c-2.15-2.96-3.69-5.85-5.84-8.81C86.09,29.57,84.88,28.47,82.81,28.83L82.81,28.83z"/>
		</g>
	</g>
</g>
</svg>