<svg
                                                                width="2rem"
                                                                height="2rem"
                                                                viewBox="0 0 24 24"
                                                                version="1.1"
                                                                xmlns="http://www.w3.org/2000/svg"
                                                                className="sc-bqOBqt PBviZ"
                                                                fill="none"
                                                            >
                                                                <rect
                                                                    x="0.139893"
                                                                    width="24"
                                                                    height="24"
                                                                    rx="12"
                                                                    fill="#EF3C4E"
                                                                    fill-opacity="0.2"
                                                                ></rect>
                                                                <path
                                                                    d="M13.9618 19.5H6.11241C5.47641 19.5 4.74852 18.6939 4.76581 18.0547V4.94669C4.82859 4.14919 5.42136 3.56915 6.2134 3.5H14.5592C15.3571 3.56233 15.9371 4.15465 16.0063 4.94669L16.0004 13.0349C15.7374 13.1787 15.4335 13.2729 15.1647 13.4253C14.6374 13.7242 13.9618 12.4003 13.9618 13.0495V19.5ZM6.86942 5.211C6.70064 5.24603 6.51184 5.43392 6.47772 5.60225C6.43996 5.78786 6.44451 6.58354 6.46907 6.78689C6.54004 7.36602 7.37212 7.39514 7.48403 6.84649C7.52179 6.66088 7.51724 5.8652 7.49267 5.66184C7.45583 5.35977 7.16785 5.14868 6.86942 5.211ZM10.8969 12.6241C12.6876 13.0736 13.9495 11.1374 12.7194 9.69619C12.1353 9.01197 11.3473 8.40145 10.7436 7.72223C10.4811 7.52707 10.2655 7.54208 10.0107 7.73816C9.60311 8.05252 8.16689 9.49511 7.88574 9.90273C6.90718 11.3212 8.25287 13.0827 9.87561 12.6237V13.7128H8.90524C8.88841 13.7128 8.66049 13.8566 8.63501 13.8852C8.38207 14.1736 8.53629 14.6013 8.88704 14.7177C9.80328 14.6786 10.8674 14.8237 11.7672 14.7355C12.1971 14.6932 12.421 14.2237 12.1389 13.8838C12.1075 13.8465 11.891 13.7123 11.8678 13.7123H10.8974V12.6232L10.8969 12.6241Z"
                                                                    fill="white"
                                                                ></path>
                                                                <path
                                                                    d="M10.8969 12.6241V13.7132H11.8672C11.8904 13.7132 12.1075 13.847 12.1384 13.8847C12.4204 14.2246 12.1966 14.6941 11.7667 14.7364C10.8668 14.8246 9.80276 14.68 8.88652 14.7186C8.53577 14.6017 8.382 14.1745 8.63449 13.8861C8.65951 13.8575 8.88789 13.7137 8.90472 13.7137H9.87509V12.6246C8.25235 13.0836 6.90666 11.3221 7.88522 9.90363C8.16682 9.49555 9.60304 8.05341 10.0102 7.73905C10.265 7.54252 10.4806 7.52797 10.7431 7.72313C11.3468 8.40235 12.1343 9.01241 12.7189 9.69709C13.9495 11.1383 12.687 13.0745 10.8964 12.625L10.8969 12.6241ZM10.3737 8.84773L8.70273 10.5155C8.29966 11.1506 8.96113 11.919 9.65036 11.5987C9.90785 11.4791 10.0207 11.1338 10.3687 11.1228C10.754 11.111 10.8723 11.5091 11.1703 11.6187C11.8299 11.8617 12.4113 11.2025 12.1079 10.5792L10.3737 8.84773Z"
                                                                    fill="black"
                                                                ></path>
                                                                <path
                                                                    d="M6.8693 5.21114C7.16774 5.14881 7.45571 5.3599 7.49256 5.66198C7.51758 5.86533 7.52167 6.66101 7.48391 6.84662C7.37246 7.39527 6.53993 7.36616 6.46896 6.78703C6.44394 6.58413 6.43984 5.78799 6.4776 5.60238C6.51172 5.43405 6.70052 5.24617 6.8693 5.21114Z"
                                                                    fill="black"
                                                                ></path>
                                                                <path
                                                                    d="M10.3737 8.84766L12.108 10.5791C12.4114 11.2019 11.83 11.8611 11.1703 11.6187C10.8728 11.509 10.7541 11.1109 10.3687 11.1228C10.0207 11.1337 9.9079 11.479 9.6504 11.5986C8.96118 11.9189 8.29971 11.1505 8.70278 10.5154L10.3737 8.84766Z"
                                                                    fill="black"
                                                                ></path>
                                                                <g clip-path="url(#clip0_5581_61613)">
                                                                    <path
                                                                        d="M17.841 13.5844C20.2308 13.5844 22.1681 11.6471 22.1681 9.25727C22.1681 6.86748 20.2308 4.93018 17.841 4.93018C15.4512 4.93018 13.5139 6.86748 13.5139 9.25727C13.5139 11.6471 15.4512 13.5844 17.841 13.5844Z"
                                                                        fill="#C9A000"
                                                                    ></path>
                                                                    <path
                                                                        d="M18.0092 6.05424V4.93018C19.0111 4.93018 20.0151 5.36008 20.7412 6.04073L19.971 6.83848C19.408 6.39806 18.7398 6.07025 18.0097 6.05424H18.0092Z"
                                                                        fill="#FBC700"
                                                                    ></path>
                                                                    <path
                                                                        d="M14.638 9.42554C14.6535 10.1562 14.9818 10.8244 15.4222 11.3869L14.6245 12.1571C13.9503 11.4259 13.5114 10.429 13.5139 9.42554H14.638Z"
                                                                        fill="#FBC700"
                                                                    ></path>
                                                                    <path
                                                                        d="M17.6348 13.5838C16.6244 13.5332 15.6375 13.1304 14.9008 12.4412L15.7055 11.6375C16.0934 11.9813 16.5733 12.24 17.0793 12.3596C17.2665 12.4042 17.4852 12.3987 17.6348 12.4787V13.5838Z"
                                                                        fill="#FBC700"
                                                                    ></path>
                                                                    <path
                                                                        d="M22.1676 9.05098H21.0625L21.012 8.98892C20.9784 8.30227 20.6756 7.62864 20.2202 7.12166L21.025 6.31689C21.7141 7.05359 22.117 8.04052 22.1676 9.05098Z"
                                                                        fill="#FBC700"
                                                                    ></path>
                                                                    <path
                                                                        d="M18.0092 13.5839V12.4599C18.7348 12.3963 19.3779 12.1301 19.9385 11.6716L20.7432 12.4409C20.0271 13.1535 19.0141 13.5294 18.0092 13.5834V13.5839Z"
                                                                        fill="#FBC700"
                                                                    ></path>
                                                                    <path
                                                                        d="M22.1677 9.42554C22.1166 10.435 21.7333 11.4354 21.0251 12.1596L20.2559 11.3549C20.7138 10.7943 20.9805 10.1512 21.0441 9.42554H22.1682H22.1677Z"
                                                                        fill="#FBC700"
                                                                    ></path>
                                                                    <path
                                                                        d="M17.6349 4.93018V6.05424C16.9467 6.09228 16.243 6.36954 15.7381 6.83848L14.9403 6.06825C15.5924 5.34457 16.6664 4.94919 17.6349 4.93018Z"
                                                                        fill="#FBC700"
                                                                    ></path>
                                                                    <path
                                                                        d="M14.638 9.05099H13.5139C13.5329 8.08258 13.9283 7.00856 14.6515 6.35645L15.4217 7.1542C14.9528 7.65968 14.6755 8.36334 14.6375 9.05099H14.638Z"
                                                                        fill="#FBC700"
                                                                    ></path>
                                                                    <path
                                                                        d="M17.841 12.0861C19.4032 12.0861 20.6697 10.8196 20.6697 9.25739C20.6697 7.69515 19.4032 6.42871 17.841 6.42871C16.2788 6.42871 15.0123 7.69515 15.0123 9.25739C15.0123 10.8196 16.2788 12.0861 17.841 12.0861Z"
                                                                        fill="#FBC700"
                                                                    ></path>
                                                                </g>
                                                                <path
                                                                    d="M7.77571 11.8572C7.35677 11.1523 7.45493 9.95644 8.58703 9.104C7.78746 10.6082 9.20026 12.4129 9.8979 12.6164C9.17119 12.878 8.19466 12.5621 7.77571 11.8572Z"
                                                                    fill="#434A54"
                                                                ></path>
                                                                <path
                                                                    d="M12.9886 12.5082C13.1054 12.4898 13.2345 12.5082 13.3513 12.5082L18.7562 13.4613C19.2174 13.5597 19.488 13.9778 19.408 14.439L18.4549 19.8439C18.3566 20.305 17.9384 20.5756 17.4711 20.4956L12.0662 19.5426C11.605 19.4442 11.3345 19.026 11.4144 18.5587L12.3675 13.1538C12.4167 12.871 12.6934 12.5574 12.9824 12.5082H12.9886ZM15.2022 14.9432C15.2022 14.5681 14.8947 14.2606 14.5196 14.2606C14.1446 14.2606 13.8371 14.5681 13.8371 14.9432C13.8371 15.3183 14.1446 15.6257 14.5196 15.6257C14.8947 15.6257 15.2022 15.3183 15.2022 14.9432ZM17.465 15.3428C17.465 14.9678 17.1575 14.6603 16.7824 14.6603C16.4073 14.6603 16.0999 14.9678 16.0999 15.3428C16.0999 15.7179 16.4073 16.0254 16.7824 16.0254C17.1575 16.0254 17.465 15.7179 17.465 15.3428ZM14.7225 17.661C14.7225 17.2859 14.4151 16.9785 14.04 16.9785C13.6649 16.9785 13.3575 17.2859 13.3575 17.661C13.3575 18.0361 13.6649 18.3435 14.04 18.3435C14.4151 18.3435 14.7225 18.0361 14.7225 17.661ZM16.9853 18.0607C16.9853 17.6856 16.6779 17.3781 16.3028 17.3781C15.9277 17.3781 15.6203 17.6856 15.6203 18.0607C15.6203 18.4358 15.9277 18.7432 16.3028 18.7432C16.6779 18.7432 16.9853 18.4358 16.9853 18.0607Z"
                                                                    fill="#ED5564"
                                                                ></path>
                                                                <path
                                                                    d="M16.3028 18.7432C16.6797 18.7432 16.9853 18.4377 16.9853 18.0607C16.9853 17.6838 16.6797 17.3782 16.3028 17.3782C15.9258 17.3782 15.6202 17.6838 15.6202 18.0607C15.6202 18.4377 15.9258 18.7432 16.3028 18.7432Z"
                                                                    fill="white"
                                                                ></path>
                                                                <path
                                                                    d="M14.5196 15.6256C14.8965 15.6256 15.2021 15.32 15.2021 14.943C15.2021 14.5661 14.8965 14.2605 14.5196 14.2605C14.1426 14.2605 13.837 14.5661 13.837 14.943C13.837 15.32 14.1426 15.6256 14.5196 15.6256Z"
                                                                    fill="white"
                                                                ></path>
                                                                <path
                                                                    d="M16.7825 16.0252C17.1595 16.0252 17.465 15.7196 17.465 15.3427C17.465 14.9657 17.1595 14.6602 16.7825 14.6602C16.4056 14.6602 16.1 14.9657 16.1 15.3427C16.1 15.7196 16.4056 16.0252 16.7825 16.0252Z"
                                                                    fill="white"
                                                                ></path>
                                                                <path
                                                                    d="M14.04 18.3433C14.4169 18.3433 14.7225 18.0378 14.7225 17.6608C14.7225 17.2839 14.4169 16.9783 14.04 16.9783C13.663 16.9783 13.3574 17.2839 13.3574 17.6608C13.3574 18.0378 13.663 18.3433 14.04 18.3433Z"
                                                                    fill="white"
                                                                ></path>
                                                                <path
                                                                    fill-rule="evenodd"
                                                                    clip-rule="evenodd"
                                                                    d="M18.7566 13.4614C19.2175 13.56 19.4879 13.9779 19.408 14.439L18.4548 19.8433C18.3565 20.3043 17.9386 20.5754 17.4714 20.4956L12.0662 19.5425C12.0328 19.5354 12.0008 19.5255 11.9695 19.5151C14.0285 19.2155 15.7319 17.8249 16.4763 15.9478C16.5689 15.995 16.6716 16.0248 16.782 16.0249C17.1571 16.0249 17.4646 15.7174 17.4646 15.3423C17.4644 14.9797 17.1772 14.6829 16.8191 14.6636C16.8585 14.3918 16.8806 14.1142 16.8806 13.8315C16.8806 13.5914 16.8633 13.355 16.8347 13.1226L18.7566 13.4614ZM16.3025 17.3784C15.9277 17.3786 15.6201 17.6853 15.6199 18.0601C15.6199 18.435 15.9276 18.7425 16.3025 18.7427C16.6776 18.7427 16.9851 18.4351 16.9851 18.0601C16.9848 17.6852 16.6774 17.3784 16.3025 17.3784Z"
                                                                    fill="#EF3C4E"
                                                                ></path>
                                                                <defs>
                                                                    <clipPath id="clip0_5581_61613">
                                                                        <rect
                                                                            width="8.65369"
                                                                            height="8.65369"
                                                                            fill="white"
                                                                            transform="translate(13.5139 4.93018)"
                                                                        ></rect>
                                                                    </clipPath>
                                                                </defs>
                                                            </svg>