<?xml version="1.0" encoding="UTF-8"?>
<svg id="Layer_1" data-name="Layer 1" xmlns="http://www.w3.org/2000/svg" viewBox="0 0 141.73 141.73">
  <defs>
    <style>
      .cls-1 {
        fill: #f15a29;
      }

      .cls-2 {
        fill: #ddd;
        stroke: #ddd;
        stroke-miterlimit: 10;
        stroke-width: .83px;
      }
    </style>
  </defs>
  <path class="cls-1" d="M52.2,73.98l16.64,4.9,19.3-4.9s-.58,17.79-.65,17.57-18.65-4.58-18.65-4.58l-17.72,5.45,1.08-18.44Z"/>
  <g>
    <path class="cls-2" d="M69.73,75.69c12.45,0,27.28-6.4,27.4-36.79,6.23-12.31,3.86-18.98,3.42-20-3.52-11.26-22.55-12.71-38.75-12.71-9.85,0-17.62,3.61-21.32,9.89-2.52,4.28-4.22,11.71,1.85,22.84.12,30.37,14.95,36.76,27.4,36.76ZM87.5,64.9c-4.09,5.25-10.07,7.91-17.76,7.91s-13.67-2.66-17.76-7.91c-4.49-5.76-6.76-14.62-6.76-26.34,0-.02,0-.03,0-.05,0-.02,0-.05,0-.07-.15-1.73,2.58-3.81,5.46-6.01,3.17-2.42,6.68-5.1,8.38-8.65,3.33,3.3,9.2,4.01,15.35,4.76,8.57,1.04,17.43,2.12,19.86,10.24-.03,11.62-2.3,20.41-6.76,26.13ZM42.96,17.55c3.12-5.31,10.16-8.47,18.84-8.47,14.06,0,33.09,1.11,36.02,10.76.02.06.05.14.08.2.02.05,2.2,5-2.11,14.96-3.97-7.25-12.99-8.34-21.06-9.32-6.68-.81-12.99-1.58-14.89-5.69-.24-.51-.75-.84-1.31-.84-.07,0-.14,0-.21.02-.63.09-1.13.58-1.22,1.21-.58,3.94-4.63,7.03-8.19,9.76-2.09,1.6-4.12,3.14-5.36,4.83-3.1-6.81-3.32-12.78-.6-17.41Z"/>
    <path class="cls-2" d="M108.82,85.84c-7.6-2.76-16.37-5.69-19.27-6.66v-5.24c0-.45-.21-.88-.57-1.15-.36-.27-.83-.36-1.26-.23l-17.98,5.14-17.98-5.14c-.43-.12-.9-.04-1.26.23-.36.27-.57.7-.57,1.15v5.24c-2.9.96-11.67,3.9-19.27,6.66-9.43,3.42-19.07,9.76-19,30.82v18.63c0,.79.64,1.44,1.44,1.44s1.44-.64,1.44-1.44v-18.64c-.05-16.38,5.92-22.9,13.21-26.48,2.19,2.11,9.21,9.93,9.21,23.55v21.56c0,.79.64,1.44,1.44,1.44s1.44-.64,1.44-1.44v-21.56c0-13.38-6.18-21.55-9.25-24.78.35-.14,15.82-5.55,19.35-6.73v9.95c0,.45.21.88.57,1.15.36.27.83.36,1.26.23l17.98-5.14,17.98,5.14c.13.04.26.06.4.06.31,0,.61-.1.87-.29.36-.27.57-.7.57-1.15v-9.95c3.53,1.18,19,6.59,19.35,6.73-3.07,3.24-9.25,11.41-9.25,24.78v21.56c0,.79.64,1.44,1.44,1.44s1.44-.64,1.44-1.44v-21.56c0-13.57,7.03-21.43,9.22-23.55,7.28,3.57,13.26,10.09,13.2,26.48v18.63c0,.79.64,1.44,1.44,1.44s1.44-.64,1.44-1.44v-18.63c.07-21.07-9.57-27.41-19-30.83ZM86.67,90.26l-16.54-4.73c-.13-.04-.26-.06-.4-.06s-.27.02-.4.06l-16.54,4.73v-14.41l16.54,4.73c.26.07.53.07.79,0l16.54-4.73v14.41Z"/>
    <path class="cls-2" d="M69.73,100.65c-.79,0-1.44.64-1.44,1.44v8.35h-3.23c-.79,0-1.44.64-1.44,1.44s.64,1.44,1.44,1.44h3.23v11.04h-3.23c-.79,0-1.44.64-1.44,1.44s.64,1.44,1.44,1.44h3.23v7.11c0,.79.64,1.44,1.44,1.44s1.44-.64,1.44-1.44v-32.26c0-.79-.64-1.44-1.44-1.44Z"/>
    <path class="cls-2" d="M60.14,40.87c-1.72,0-3.12,1.4-3.12,3.12s1.4,3.12,3.12,3.12,3.12-1.4,3.12-3.12-1.4-3.12-3.12-3.12Z"/>
    <path class="cls-2" d="M79.32,40.87c-1.72,0-3.12,1.4-3.12,3.12s1.4,3.12,3.12,3.12,3.12-1.4,3.12-3.12-1.4-3.12-3.12-3.12Z"/>
  </g>
</svg>