<?xml version="1.0" encoding="UTF-8"?>
<svg id="Layer_1" data-name="Layer 1" xmlns="http://www.w3.org/2000/svg" viewBox="0 0 141.73 141.73">
  <defs>
    <style>
      .cls-1 {
        fill: #f15a29;
      }

      .cls-2 {
        fill: #ddd;
      }
    </style>
  </defs>
  <path class="cls-1" d="M55.71,91.26c5.16-1.14,7.28,6.42,15.01,3.83,3.33-1.11,6.07-5.81,9.99-3.33,2.06,1.31,1.67,7.85,1.4,10.23-1.42,12.17-8.65.12-14.75.31-4.5.14-12,9.82-13.6,1.85-.58-2.89-1.79-12.08,1.96-12.91Z"/>
  <path class="cls-2" d="M139.13,68.05c-.38-1.75-2.32-3.3-3.92-3.94-4.82-1.9-18.1-5.21-23.25-5.84-5.12-.62-6.5,1.05-8.13,5.57-2.48,6.87-3.92,15.58-4.88,22.82-1.38-1.53-4.75-2.43-5.98-3.53-.92-.82-1.75-3.33-2.5-4.49-.65-1.02-2.71-2.38-2.62-3.35,2.42-2.6,3.35-9.57,4.91-11.75.46-.65,1.96-.9,2.86-1.76,4.48-4.31,6.77-11.89,5.05-17.95-.65-2.28-3.26-4.52-3.4-5.6-.17-1.27.68-3.23.62-5.01-.18-5.17-.68-12.65-3.96-16.78-.59-.75-8.14-7.77-8.99-8.36-7.43-5.17-25.92-4.59-34.09-1.14-9.01,3.8-12.89,11.81-13.43,21.26-.18,3.19,1.02,7.59.54,10.05-.29,1.5-2.06,2.23-2.82,3.89-2.62,5.75-.03,15.62,4.7,19.7.93.8,2.88,1.2,3.18,1.71.36.63.43,2.46.85,3.5.6,1.48,3.74,7.77,3.53,8.58-2.15,2.29-3.07,5.39-5.56,7.36-8.7,6.88-24.84,8.92-31.2,17.48-4.87,6.56-6.56,21.42-6.83,29.54-.05,1.48-.41,7.19.86,7.58h54.84c.28,0,.92-.93.86-1.4-3.97-14.92-12.24-28.37-11.8-44.23.05-1.85.42-7.86.84-9.23,1.43-4.68,4.64.24,6.83,1.62,9.67,6.08,20.49,4.08,27.89-4.38.53.41.92.93,1.3,1.48,2.02,2.93,1.8,16.56,1.15,20.54-2,12.23-9.25,23.4-11.12,35.6h36.37l-3.35-3.65c-1.34-1.8-9.95-7.19-10.54-8.21-.72-1.25,1.08-4.34,1.85-5.48,2.37,1.12,10.32,10.54,12.9,6.74,2.56-3.78-9.13-9.16-9.74-11.61-.31-1.26,1.39-3.79,2.44-4.57,2.4,0,13.29,14.44,14.29,5.28-.55-2.36-12.32-10.16-12.31-11.22l4.47-3.35,15.55,12.99c.44.83.5,1.5.43,2.41-.45,5.74-3.72,13.3-4.62,19.2l.76,1.51c4.94.38,5.08.03,6.19-4.37,1.06-4.18,3.56-13.89,3.56-17.75,0-3.42-1.39-5.65-4.43-7.1,1.21-7.1,3.94-14.1,5.78-21.15.88-3.38,4.6-16.82,4.09-19.18ZM85.44,67.28c-8.49,19.59-27.32,19.79-35.44-.21-.97-2.4-2.07-9.14-4.17-9.82-2.61-.84-2.95.79-4.73-2.54-1.71-3.19-1.95-7.11-.9-10.57,1.04-.75,3.8,4.95,5.72.41,3.1-7.33-5.07-16.4,9.67-17.75,6.89-.63,14.42,1.11,21.77-.06,2.96-.47,5.36-2.46,8.16-3.31l4.87,22.43c.45.22.97.44,1.48.37,1.62-.21,2.28-2.91,3.16-2.1,1.81,1.66-.11,10.8-2.49,12.33-.98.63-2.07.52-2.96.96-1.73.86-3.08,7.4-4.14,9.85ZM124.12,103.45c-4.04-1.5-8.14-8.18-12.63-8.36-3.96-.16-6.48,4.9-9.74,6.12l8.42-37.47,22.85,5.64-8.9,34.07Z"/>
  <path class="cls-2" d="M75.45,46.94v14.27c0,.44-1.47,2.14-2.02,2.46-6.24,3.56-12.22-5.37-3.01-4.97.56-.53-.84-12.47.63-15.32,2.05-3.99,13.04-4.3,13.83.06.96,5.27-6.48,3.79-9.42,3.5Z"/>
  <path class="cls-2" d="M63.53,42.07c.96,1.13.84,2.64-.13,3.74-2.28,2.58-12.05,2.25-12.59-1.41-.75-5.09,10.29-5.17,12.71-2.32Z"/>
  <path class="cls-2" d="M62.3,68.2h12.31c1.77,0,1.77,5.04,0,5.04h-12.31c-1.47,0-2.13-4.3,0-5.04Z"/>
  <path class="cls-1" d="M126.95,88.08c-2.3,2.11-5.74,2.09-7.74-.46-2.46,1.02.92,6.37.34,6.9l-6.23-1.39,2.07-5.53c-6.41,1.15-9.2-5.99-5.55-10.75.58-.76,10.76-8.45,11.46-8.62,1.03-.24,1.14.57,1.54,1.19,2.38,3.65,7.78,15.27,4.1,18.64Z"/>
</svg>