<svg width="2rem" height="2rem" viewBox="0 0 24 24" version="1.1" xmlns="http://www.w3.org/2000/svg" class="sc-bqOBqt PBviZ" fill="none" style="display: block;"><rect x="0.139893" width="24" height="24" rx="12" fill="#75E300" fill-opacity="0.2"></rect><path d="M18.9451 9.52158H18.9547C18.9547 9.34921 18.9354 9.16777 18.9162 8.9954C18.5014 8.89561 17.8359 8.65066 17.0354 8.07005C16.4278 7.61645 15.8781 7.17192 15.473 6.84532C14.9908 6.44615 14.7014 6.19214 14.6918 6.18306C14.5761 6.08327 14.4314 6.02884 14.2771 6.05605C14.1228 6.06513 13.9974 6.15585 13.9106 6.26471C13.9106 6.28286 13.8431 6.37358 13.6791 6.54595C13.6309 6.59131 13.5827 6.63667 13.5248 6.68203C13.0329 7.1447 12.0395 7.90675 10.3131 8.6053C8.89536 9.19498 7.66085 9.37642 6.74461 9.40364C6.43598 9.42179 6.16593 9.41271 5.93446 9.39457V9.43993C5.88623 9.52158 5.83801 9.60323 5.80908 9.69395C5.63547 10.1385 5.61618 10.6102 5.75121 11.0457C5.88623 11.5356 6.19486 11.9801 6.64816 12.2976C6.8507 12.9508 7.16897 13.5677 7.59334 14.103C7.67049 14.2118 7.74765 14.3116 7.83445 14.4023C7.90196 14.5021 7.98877 14.5929 8.09486 14.6836C8.14308 14.738 8.21059 14.8015 8.26846 14.8559C8.52887 15.11 8.81821 15.3277 9.12683 15.5273C9.25221 15.5999 9.37759 15.6724 9.50298 15.745C9.5512 15.7722 9.59942 15.7994 9.64765 15.8267C9.77303 15.8902 9.89841 15.9537 10.0238 15.999C10.1781 16.0716 10.3228 16.126 10.4867 16.1805C10.8243 16.2984 11.1811 16.3982 11.538 16.4526C11.837 16.5071 12.136 16.5343 12.4349 16.5524H12.4446C12.5796 16.5433 12.7243 16.5343 12.8593 16.5161C12.9461 16.5161 13.0329 16.498 13.1197 16.4889C13.5634 16.4163 13.9974 16.2984 14.4121 16.1623C14.5568 16.1079 14.6918 16.0444 14.8268 15.9899C14.9908 15.9174 15.1644 15.8448 15.3187 15.7541C15.4441 15.6815 15.5695 15.6089 15.6948 15.5363C16.0131 15.3368 16.3025 15.11 16.5725 14.8559C16.7365 14.7199 16.8908 14.5566 17.0354 14.3842C17.5755 13.7673 17.9613 13.0597 18.1928 12.2886C18.6557 11.962 18.974 11.4993 19.0994 10.9912C19.2151 10.5104 19.1766 9.98425 18.9451 9.52158ZM10.9304 12.8238C11.0943 12.6605 11.3644 12.6696 11.5284 12.8238C12.0009 13.2774 12.8304 13.2774 13.303 12.8238C13.4766 12.6696 13.7466 12.6696 13.9106 12.8238C14.0842 12.9871 14.0842 13.232 13.9106 13.3953C13.5248 13.7764 12.9558 13.9941 12.4157 13.9941C11.8756 13.9941 11.3258 13.7764 10.9304 13.3953C10.7568 13.232 10.7568 12.9871 10.9304 12.8238Z" fill="#FFE7C0"></path><path d="M15.4917 17.7751V20.5512C15.4917 20.905 15.0962 21.1045 14.7683 20.9412L13.5049 20.2427L12.4729 19.6712V18.646L13.5049 18.0836L14.7683 17.385C15.0962 17.2217 15.4917 17.4394 15.4917 17.7751Z" fill="#B3F270"></path><path d="M13.9108 12.8222C14.0844 12.9855 14.0844 13.2305 13.9108 13.3938C13.525 13.7748 12.956 13.9925 12.4159 13.9925C11.8758 13.9925 11.326 13.7748 10.9306 13.3938C10.757 13.2305 10.757 12.9855 10.9306 12.8222C11.0946 12.6589 11.3646 12.668 11.5286 12.8222C12.0012 13.2758 12.8306 13.2758 13.3032 12.8222C13.4768 12.668 13.7469 12.668 13.9108 12.8222Z" fill="#E87F5E"></path><path d="M17.9602 6.11852C17.3044 5.03894 16.3303 4.13174 15.1633 3.52391C14.6135 3.20639 14.0349 3.03402 13.4562 3.0068C13.4562 2.99773 13.4369 2.99773 13.4272 3.0068C12.9064 2.98866 12.3953 3.07938 11.9323 3.28804L11.8359 3.3334C11.7684 3.37876 11.6719 3.41505 11.5948 3.45133C11.4694 3.50577 11.3247 3.52391 11.18 3.50577C10.8328 3.46041 10.3024 3.43319 9.77192 3.5602L9.68512 3.58742C9.68512 3.58742 9.59832 3.61463 9.55009 3.63278C7.5633 4.30411 6.16482 6.03687 5.96228 8.11437C5.92371 8.54075 5.91406 8.97621 5.93335 9.39353C6.16482 9.41167 6.43487 9.42074 6.7435 9.4026C7.65974 9.37538 9.40484 9.58404 10.8226 8.99436C12.549 8.29581 13.0037 8.21445 13.4956 7.75178C13.5534 7.70642 13.6017 7.66106 13.6499 7.6157C13.8138 7.44333 13.8814 7.35261 13.8814 7.33446C13.9682 7.2256 14.0935 7.13488 14.2479 7.12581C14.4022 7.09859 14.5468 7.15302 14.6626 7.25281C14.6722 7.26189 14.9616 7.5159 15.4438 7.91507C15.8489 8.24167 16.4267 7.6154 17.0343 8.06901C17.8348 8.64962 18.5003 8.89456 18.915 8.99436C18.8186 7.97829 18.5003 6.9985 17.9602 6.11852Z" fill="#282828"></path><path d="M12.4736 18.646V19.6712L11.4513 20.2427L10.1878 20.9412C9.85991 21.1045 9.46448 20.905 9.46448 20.5512V17.7751C9.46448 17.4394 9.85991 17.2217 10.1878 17.385L11.4513 18.0836L12.4736 18.646Z" fill="#B3F270"></path><path d="M13.6144 7.67676C13.6144 7.67676 12.4059 9.05802 9.30034 10.8543C5.34603 13.1495 12.3288 17.0051 13.4475 16.4245C13.4475 16.4245 13.0039 16.5697 12.3191 16.5515C10.9399 16.5152 8.5577 16.0435 7.12065 13.5033C6.92775 13.1586 6.80237 12.7141 6.64806 12.2967C6.64806 12.2967 5.0374 11.3351 5.93436 9.39369C5.82026 8.72294 9.14461 10.5591 13.6047 7.67676H13.6144Z" fill="#EACEA7"></path><path d="M7.90907 4.52759C8.75886 6.22896 10.0678 7.65984 11.6747 8.65845C11.4304 8.75314 11.1486 8.86231 10.8222 8.99438C9.40448 9.58383 7.6592 9.37537 6.74306 9.40259C6.43467 9.42069 6.16482 9.41095 5.93349 9.39282C5.91423 8.97578 5.92328 8.5406 5.96181 8.1145C6.10235 6.67292 6.81985 5.39773 7.90907 4.52759Z" fill="#434A54"></path></svg>