<svg width="2rem" height="2rem" viewBox="0 0 22 22" version="1.1" xmlns="http://www.w3.org/2000/svg" class="sc-bqOBqt PBviZ" fill="none" style="display: block;"><rect width="22" height="22" rx="11" fill="#75E300" fill-opacity="0.2"></rect><path d="M17.5 11C17.5 14.3137 14.8137 17 11.5 17C8.18629 17 5.5 14.3137 5.5 11C5.5 7.68629 8.18629 5 11.5 5C14.8137 5 17.5 7.68629 17.5 11Z" fill="#282828" transform="translate(-0.5 0)"></path><path d="M14.4101 9.90802C14.5946 9.91643 14.6701 10.149 14.5257 10.2642L13.0514 11.4402C12.9888 11.4902 12.962 11.5726 12.9834 11.6499L13.485 13.4636C13.5343 13.642 13.3358 13.7859 13.1816 13.6836L11.6105 12.6412C11.5435 12.5968 11.4563 12.5968 11.3893 12.6412L9.81817 13.6836C9.66399 13.7859 9.46553 13.642 9.51484 13.4636L10.0163 11.6502C10.0377 11.5728 10.0108 11.4901 9.94795 11.4402L8.46736 10.2644C8.32256 10.1494 8.39795 9.91641 8.58266 9.90802L10.474 9.8221C10.554 9.81847 10.6241 9.76748 10.6522 9.6925L11.3126 7.93038C11.3775 7.7573 11.6223 7.7573 11.6872 7.93038L12.3476 9.69252C12.3757 9.76749 12.4458 9.81848 12.5258 9.82212L14.4101 9.90802Z" fill="#7FF800" transform="translate(-0.5 0)"></path><path d="M17.7417 8.63837C18.1725 8.91666 18.3229 9.47568 18.0899 9.93255L17.775 10.5502C17.6295 10.8356 17.6295 11.1733 17.775 11.4587L18.0899 12.0764C18.3229 12.5333 18.1725 13.0923 17.7417 13.3706L17.1598 13.7465C16.8898 13.9209 16.7202 14.2144 16.7038 14.5354L16.6687 15.2221C16.6425 15.7343 16.2331 16.1437 15.7209 16.1698L15.0326 16.2049C14.7118 16.2213 14.4184 16.3908 14.2439 16.6605L13.8691 17.24C13.59 17.6714 13.0293 17.8211 12.5723 17.5862L11.9571 17.27C11.6702 17.1226 11.3298 17.1226 11.0429 17.27L10.4277 17.5862C9.97069 17.8211 9.41004 17.6714 9.13095 17.24L8.75619 16.6606C8.58168 16.3908 8.28818 16.2214 7.9673 16.205L7.27436 16.1698C6.76039 16.1437 6.35017 15.7318 6.32619 15.2177L6.29409 14.5294C6.27905 14.2068 6.10911 13.9113 5.83783 13.736L5.25977 13.3626C4.8284 13.0839 4.67826 12.5238 4.91242 12.0667L5.22356 11.4593C5.3699 11.1737 5.37023 10.8351 5.22444 10.5492L4.91006 9.93255C4.67713 9.47568 4.82755 8.91666 5.25829 8.63837L5.83783 8.26396C6.10911 8.0887 6.27905 7.79321 6.29409 7.47059L6.32619 6.78229C6.35017 6.26822 6.76039 5.85628 7.27436 5.83016L7.9673 5.79495C8.28818 5.77865 8.58168 5.60915 8.75619 5.33938L9.13095 4.76005C9.41004 4.3286 9.97069 4.1789 10.4277 4.41379L11.0429 4.72996C11.3298 4.87742 11.6702 4.87742 11.9571 4.72996L12.5723 4.41379C13.0293 4.1789 13.59 4.3286 13.8691 4.76005L14.2439 5.3395C14.4184 5.60921 14.7118 5.77868 15.0326 5.79505L15.7207 5.83017C16.233 5.85632 16.6424 6.2658 16.6685 6.77806L16.7039 7.47337C16.7202 7.79443 16.8899 8.08806 17.1599 8.26251L17.7417 8.63837ZM16.7478 10.5935L16.926 10.2453C17.1599 9.78851 17.01 9.22885 16.5792 8.95005L16.2471 8.73516C16.0065 8.57861 15.8528 8.3159 15.8359 8.02936L15.8168 7.63448C15.7921 7.12273 15.3846 6.71245 14.873 6.68425L14.477 6.66241C14.191 6.6512 13.927 6.50016 13.7708 6.26037L13.5553 5.92788C13.2765 5.49757 12.7174 5.34787 12.2608 5.5813L11.9112 5.76005C11.6523 5.88942 11.3477 5.88942 11.0888 5.76005L10.7392 5.5813C10.2826 5.34787 9.72351 5.49757 9.44468 5.92788L9.22925 6.26037C9.073 6.50016 8.80897 6.6512 8.52299 6.66241L8.12697 6.68425C7.6154 6.71245 7.20791 7.12274 7.18319 7.63448L7.16411 8.02936C7.14725 8.3159 6.99345 8.57861 6.75287 8.73516L6.42081 8.95005C5.98999 9.22885 5.84012 9.78851 6.07398 10.2453L6.25224 10.5935L6.2558 10.6006C6.38284 10.8545 6.38151 11.1537 6.25224 11.4065L6.07018 11.7649C5.83829 12.2213 5.98861 12.7792 6.41843 13.0573L6.75287 13.2738C6.99408 13.4251 7.14738 13.6864 7.16411 13.9706L7.18317 14.3679C7.20785 14.8824 7.61933 15.294 8.13383 15.3188L8.52299 15.3376C8.80973 15.3544 9.07244 15.5079 9.22925 15.7486L9.44165 16.0764C9.72175 16.5087 10.2844 16.6575 10.7416 16.4202L11.0888 16.2399C11.3477 16.1106 11.6523 16.1106 11.9112 16.2399L12.2584 16.4202C12.7156 16.6575 13.2782 16.5087 13.5583 16.0764L13.7708 15.7486C13.9276 15.5079 14.1903 15.3544 14.477 15.3376L14.8662 15.3188C15.3807 15.294 15.7921 14.8824 15.8168 14.3679L15.8359 13.9706C15.8526 13.6864 16.0059 13.4251 16.2471 13.2738L16.5816 13.0573C17.0114 12.7792 17.1617 12.2213 16.9298 11.7649L16.7478 11.4065C16.6135 11.1549 16.6121 10.8533 16.7441 10.6005L16.7478 10.5935Z" fill="#7FF800" transform="translate(-0.5 0)"></path><path d="M9.50006 13.5C10.9483 9.3277 11.5266 9.72677 12.1524 9.16391L11.6877 7.92985C11.6226 7.7569 11.3778 7.75724 11.3132 7.93037L10.6058 9.82505L8.59425 9.90969C8.40919 9.91748 8.33323 10.1509 8.47828 10.2661L10.0604 11.5226L9.50006 13.5Z" fill="#C8FF88" transform="translate(-0.5 0)"></path></svg>