<svg width="2.4rem" height="2.4rem" viewBox="0 0 19 18" version="1.1" xmlns="http://www.w3.org/2000/svg" class="sc-bqOBqt PBviZ" fill="unset" style="display: block;"><path d="M11.3157 18.0026C11.1827 18.0026 11.0498 17.9412 10.9577 17.8388C10.8554 17.7364 10.8043 17.6032 10.8043 17.4599V11.1313H7.86889V17.4599C7.86889 17.6032 7.81775 17.7364 7.71547 17.8388C7.62342 17.9412 7.49046 18.0026 7.35749 18.0026H4.76984C4.05389 17.9821 3.36863 17.6852 2.85723 17.1629C2.35607 16.6406 2.09014 15.9545 2.10037 15.207V8.22303L1.17986 9.18563C1.17986 9.18563 1.08781 9.26755 1.00599 9.30851C0.944622 9.33924 0.873027 9.34948 0.81166 9.34948C0.750293 9.34948 0.678698 9.33924 0.627559 9.30851C0.555964 9.27779 0.504824 9.23683 0.443457 9.18563C0.351406 9.08323 0.290039 8.93986 0.290039 8.79649C0.290039 8.65313 0.351406 8.50976 0.443457 8.40736L8.0223 0.542741C8.40074 0.184327 8.86099 0 9.3417 0C9.82241 0 10.2929 0.184327 10.6304 0.512019L18.1479 8.40736C18.2399 8.50976 18.2911 8.65313 18.2911 8.79649C18.2911 8.93986 18.2399 9.08323 18.1377 9.18563C18.0968 9.23683 18.0354 9.27779 17.9638 9.30851C17.9024 9.33924 17.8308 9.34948 17.7695 9.34948C17.7081 9.34948 17.6365 9.33924 17.5854 9.30851C17.5138 9.27779 17.4626 9.23683 17.4013 9.18563L16.4807 8.23327V15.1558C16.5012 15.9443 16.2353 16.6406 15.7341 17.1527C15.2227 17.6749 14.5477 17.9821 13.8215 18.0026H11.3054H11.3157ZM11.3157 10.0356C11.4486 10.0356 11.5816 10.097 11.6737 10.1994C11.7657 10.3018 11.8271 10.4452 11.8271 10.5783V16.9069H13.8317C14.2613 16.9069 14.6806 16.7226 15.0079 16.3949C15.2841 16.1081 15.4171 15.7532 15.4477 15.3538V15.3231V15.2377V7.14779L9.95537 1.33125C9.76104 1.1674 9.54626 1.08548 9.3417 1.08548C9.11669 1.08548 8.9019 1.1674 8.72803 1.32101L3.13338 7.15803V15.2172C3.13338 15.6678 3.30726 16.0979 3.60387 16.4051C3.9107 16.7226 4.34027 16.9069 4.78007 16.9171H6.85633V10.5886C6.85633 10.4452 6.90747 10.3121 7.00975 10.2097C7.1018 10.1073 7.23476 10.0458 7.36772 10.0458H11.3259L11.3157 10.0356Z" fill="#b7b7b7"></path></svg>