<svg width="2.4rem" height="2.4rem" viewBox="0 0 19 20" version="1.1" xmlns="http://www.w3.org/2000/svg" class="sc-bqOBqt PBviZ" fill="unset" style="display: block;"><mask id="path-1-outside-1_11018_281863" maskUnits="userSpaceOnUse" x="-0.709961" y="0" width="20" height="20" fill="none"><rect fill="#b7b7b7" x="-0.709961" width="20" height="20"></rect><path fill-rule="evenodd" clip-rule="evenodd" d="M17.5077 13.7384L17.5325 13.6844C17.6264 13.4714 17.7134 13.2542 17.7935 13.0329V12.9748C17.9535 12.5126 18.0755 12.0379 18.158 11.5557C18.4551 9.83734 18.2484 8.06956 17.5629 6.46651C16.8774 4.86347 15.7425 3.49394 14.2958 2.52385C12.8491 1.55375 11.1526 1.02472 9.41185 1.00085C7.67109 0.976967 5.96077 1.45927 4.48808 2.38931L4.38452 2.4557C4.22711 2.55944 4.0697 2.66733 3.91643 2.77937L3.7963 2.87066C3.66927 2.96748 3.54638 3.06707 3.42763 3.16943L3.26608 3.31051C3.13076 3.43223 2.99268 3.5581 2.85184 3.68812L2.78141 3.77941C2.66267 3.9039 2.54806 4.03115 2.4376 4.16117L2.37132 4.23587C2.23876 4.39355 2.11449 4.55953 1.99022 4.72966L1.95293 4.77946C1.26162 5.75136 0.770725 6.85161 0.508977 8.01584C0.247229 9.18007 0.21988 10.3849 0.428531 11.5598V11.5847C0.507881 12.034 0.621438 12.4765 0.768208 12.9084V12.9582C0.916102 13.3862 1.09612 13.8024 1.30672 14.2031C2.01766 15.5543 3.05887 16.703 4.33309 17.5418C5.60731 18.3807 7.07298 18.8824 8.5932 19H8.71747C8.90803 19 9.09858 19 9.28913 19C9.47968 19 9.67023 19 9.86078 19H9.88977C11.5155 18.8937 13.0821 18.3484 14.4234 17.422C15.7646 16.4956 16.8304 15.2227 17.5077 13.7384ZM10.0265 18.3693C9.89806 18.3693 9.7655 18.3693 9.63709 18.3693C9.50867 18.3693 9.37612 18.3693 9.2477 18.3693C9.04887 18.3693 8.83346 18.3693 8.65948 18.3402C8.3271 18.3159 7.99649 18.2716 7.66945 18.2074L7.802 18.1286C7.86308 18.0927 7.91637 18.045 7.95874 17.9882C8.0011 17.9314 8.03167 17.8666 8.04866 17.7978C8.06565 17.729 8.0687 17.6574 8.05765 17.5874C8.04659 17.5173 8.02164 17.4502 7.98427 17.39L6.35631 14.7882C6.28669 14.6777 6.17914 14.5965 6.05391 14.56L2.8974 13.6803C2.82657 13.6606 2.75244 13.6559 2.67971 13.6665C2.60698 13.6771 2.53724 13.7027 2.47492 13.7417C2.4126 13.7808 2.35905 13.8323 2.31769 13.8932C2.27632 13.954 2.24803 14.0228 2.23462 14.0952L2.16834 14.4189C2.1062 14.3193 2.03993 14.2197 1.98193 14.1118L1.87837 13.9209C1.78724 13.7494 1.70301 13.5738 1.62569 13.3939L1.54698 13.2155C1.46413 13.0163 1.38957 12.8006 1.32329 12.6055L1.26115 12.4064C1.19902 12.1989 1.14517 11.9914 1.0996 11.7798C1.0996 11.7092 1.07475 11.6428 1.05818 11.5723C1.02089 11.3773 0.991898 11.1781 0.967044 10.9789C0.967044 10.9499 0.967044 10.925 0.967044 10.8959L1.22801 11.12C1.33729 11.2129 1.47861 11.2591 1.62154 11.2486C1.69224 11.2422 1.76094 11.2216 1.82356 11.1881C1.88618 11.1546 1.94144 11.1089 1.98607 11.0536L3.91643 8.65515C3.99996 8.554 4.0428 8.42526 4.03656 8.29414L3.87501 5.02428C3.87108 4.95096 3.85214 4.87923 3.81936 4.81356C3.78658 4.74788 3.74066 4.68966 3.68446 4.64252C3.62768 4.59451 3.56147 4.55899 3.4901 4.53826C3.41874 4.51752 3.34383 4.51205 3.27022 4.52219L2.91397 4.56783L3.08795 4.3894C3.21637 4.24831 3.34478 4.10723 3.47734 3.97444C3.60989 3.84166 3.6596 3.80431 3.75488 3.72132C3.85015 3.63833 4.00757 3.50139 4.13598 3.39766L4.43423 3.17358C4.5806 3.06846 4.73111 2.96748 4.88576 2.87066L5.14673 2.71298C5.34832 2.59679 5.55544 2.4889 5.76809 2.38931L5.8675 2.33952L5.63553 2.84161C5.60469 2.90823 5.58798 2.98053 5.58645 3.05394C5.58491 3.12735 5.59859 3.20028 5.62662 3.26813C5.65465 3.33598 5.69641 3.39727 5.74928 3.44813C5.80215 3.499 5.86497 3.53833 5.93378 3.56364L9.00744 4.70062C9.13023 4.74715 9.26576 4.74715 9.38854 4.70062L12.2385 3.57609C12.3042 3.55052 12.364 3.512 12.4146 3.46282C12.4651 3.41363 12.5052 3.35479 12.5326 3.28977C12.5604 3.22414 12.5748 3.15358 12.5748 3.08229C12.5748 3.011 12.5604 2.94044 12.5326 2.87481L12.2012 2.11959H12.2427C12.7145 2.29811 13.1692 2.51894 13.6014 2.77937L13.7091 2.84576C14.1198 3.10102 14.5078 3.39118 14.8689 3.71302L15.0264 3.85411C15.1341 3.9537 15.2376 4.05329 15.337 4.15702L15.453 4.28566C15.54 4.3811 15.627 4.47239 15.7098 4.57198L15.0222 4.48484C14.9486 4.47444 14.8736 4.47979 14.8022 4.50053C14.7308 4.52127 14.6646 4.55694 14.608 4.60518C14.5525 4.65269 14.5074 4.71108 14.4753 4.77673C14.4433 4.84239 14.425 4.91393 14.4216 4.98694L14.2724 8.29414C14.265 8.42472 14.3064 8.5534 14.3884 8.65515L16.3188 11.037C16.3634 11.0923 16.4187 11.138 16.4813 11.1715C16.5439 11.2051 16.6126 11.2256 16.6833 11.232C16.8254 11.2415 16.9659 11.197 17.0768 11.1075L17.6568 10.6096C17.6568 10.6428 17.6568 10.676 17.6568 10.7092C17.6568 10.8129 17.6568 10.9167 17.6236 11.0204C17.6029 11.203 17.5739 11.3856 17.5408 11.564C17.5408 11.647 17.5077 11.7258 17.4911 11.8088C17.4497 12.0025 17.3999 12.1947 17.342 12.3856L17.2715 12.6097C17.2053 12.813 17.1348 13.0246 17.052 13.2072L16.9733 13.3815C16.8987 13.5475 16.82 13.7135 16.7372 13.8753L16.5963 14.1367C16.5259 14.2571 16.4555 14.3774 16.3809 14.4936C16.3064 14.6098 16.2939 14.6347 16.2484 14.7052L16.1199 14.0869C16.1056 14.0161 16.0769 13.9489 16.0356 13.8897C15.9942 13.8304 15.9412 13.7803 15.8797 13.7425C15.818 13.7056 15.7496 13.6815 15.6784 13.6715C15.6073 13.6615 15.5349 13.6659 15.4654 13.6844L12.3172 14.6015C12.192 14.638 12.0844 14.7192 12.0148 14.8297L10.3786 17.4273C10.3405 17.4865 10.3146 17.5528 10.3023 17.6221C10.29 17.6915 10.2916 17.7626 10.307 17.8314C10.3224 17.9001 10.3514 17.9651 10.3921 18.0225C10.4328 18.08 10.4846 18.1287 10.5443 18.1659L10.7307 18.2738H10.6603C10.4504 18.3181 10.2391 18.3499 10.0265 18.3693ZM17.6775 9.77553L16.7579 10.5764L14.9104 8.29414L15.0595 5.14877L16.2649 5.3023C17.1527 6.62758 17.6429 8.17989 17.6775 9.77553ZM11.6213 18.0746L10.9502 17.6597L12.5078 15.17L15.5152 14.3068L15.7347 15.3733C14.6626 16.6629 13.2301 17.6022 11.6213 18.0705V18.0746ZM11.4225 1.89136L11.9113 3.04494L9.17728 4.11968L6.23204 3.02419L6.69598 2.02C8.22403 1.51129 9.86763 1.46367 11.4225 1.88307V1.89136ZM2.38374 5.25666L3.25779 5.14462L3.40692 8.28999L1.55941 10.5722L0.913192 10.0245C0.913192 10.0245 0.913192 10.0245 0.913192 10.0038C0.91116 8.30857 1.42406 6.65289 2.38374 5.25666ZM2.67371 15.116L2.83941 14.2861L5.85922 15.1658L7.41676 17.6555L6.81611 18.029C5.16945 17.5072 3.72312 16.4901 2.67371 15.116ZM11.8243 13.091L13.067 9.49336C13.1044 9.38344 13.1048 9.26427 13.0681 9.1541C13.0315 9.04394 12.9598 8.94884 12.864 8.88337L9.62052 6.65921C9.53236 6.5998 9.42852 6.56807 9.32227 6.56807C9.21601 6.56807 9.11217 6.5998 9.02401 6.65921L5.77637 8.88337C5.68149 8.94861 5.61037 9.043 5.57375 9.15229C5.53714 9.26158 5.53701 9.37984 5.57339 9.48921L6.81611 13.0869C6.85228 13.1912 6.91998 13.2816 7.00981 13.3455C7.09964 13.4095 7.20713 13.4438 7.31734 13.4437H11.3272C11.4338 13.4396 11.5367 13.4033 11.6225 13.3397C11.7082 13.276 11.7728 13.1879 11.8077 13.0869L11.8243 13.091ZM7.37948 12.8255L6.18233 9.35227L9.30155 7.2028L12.4374 9.35227L11.2443 12.8255H7.37948Z"></path></mask><path fill-rule="evenodd" clip-rule="evenodd" d="M17.5077 13.7384L17.5325 13.6844C17.6264 13.4714 17.7134 13.2542 17.7935 13.0329V12.9748C17.9535 12.5126 18.0755 12.0379 18.158 11.5557C18.4551 9.83734 18.2484 8.06956 17.5629 6.46651C16.8774 4.86347 15.7425 3.49394 14.2958 2.52385C12.8491 1.55375 11.1526 1.02472 9.41185 1.00085C7.67109 0.976967 5.96077 1.45927 4.48808 2.38931L4.38452 2.4557C4.22711 2.55944 4.0697 2.66733 3.91643 2.77937L3.7963 2.87066C3.66927 2.96748 3.54638 3.06707 3.42763 3.16943L3.26608 3.31051C3.13076 3.43223 2.99268 3.5581 2.85184 3.68812L2.78141 3.77941C2.66267 3.9039 2.54806 4.03115 2.4376 4.16117L2.37132 4.23587C2.23876 4.39355 2.11449 4.55953 1.99022 4.72966L1.95293 4.77946C1.26162 5.75136 0.770725 6.85161 0.508977 8.01584C0.247229 9.18007 0.21988 10.3849 0.428531 11.5598V11.5847C0.507881 12.034 0.621438 12.4765 0.768208 12.9084V12.9582C0.916102 13.3862 1.09612 13.8024 1.30672 14.2031C2.01766 15.5543 3.05887 16.703 4.33309 17.5418C5.60731 18.3807 7.07298 18.8824 8.5932 19H8.71747C8.90803 19 9.09858 19 9.28913 19C9.47968 19 9.67023 19 9.86078 19H9.88977C11.5155 18.8937 13.0821 18.3484 14.4234 17.422C15.7646 16.4956 16.8304 15.2227 17.5077 13.7384ZM10.0265 18.3693C9.89806 18.3693 9.7655 18.3693 9.63709 18.3693C9.50867 18.3693 9.37612 18.3693 9.2477 18.3693C9.04887 18.3693 8.83346 18.3693 8.65948 18.3402C8.3271 18.3159 7.99649 18.2716 7.66945 18.2074L7.802 18.1286C7.86308 18.0927 7.91637 18.045 7.95874 17.9882C8.0011 17.9314 8.03167 17.8666 8.04866 17.7978C8.06565 17.729 8.0687 17.6574 8.05765 17.5874C8.04659 17.5173 8.02164 17.4502 7.98427 17.39L6.35631 14.7882C6.28669 14.6777 6.17914 14.5965 6.05391 14.56L2.8974 13.6803C2.82657 13.6606 2.75244 13.6559 2.67971 13.6665C2.60698 13.6771 2.53724 13.7027 2.47492 13.7417C2.4126 13.7808 2.35905 13.8323 2.31769 13.8932C2.27632 13.954 2.24803 14.0228 2.23462 14.0952L2.16834 14.4189C2.1062 14.3193 2.03993 14.2197 1.98193 14.1118L1.87837 13.9209C1.78724 13.7494 1.70301 13.5738 1.62569 13.3939L1.54698 13.2155C1.46413 13.0163 1.38957 12.8006 1.32329 12.6055L1.26115 12.4064C1.19902 12.1989 1.14517 11.9914 1.0996 11.7798C1.0996 11.7092 1.07475 11.6428 1.05818 11.5723C1.02089 11.3773 0.991898 11.1781 0.967044 10.9789C0.967044 10.9499 0.967044 10.925 0.967044 10.8959L1.22801 11.12C1.33729 11.2129 1.47861 11.2591 1.62154 11.2486C1.69224 11.2422 1.76094 11.2216 1.82356 11.1881C1.88618 11.1546 1.94144 11.1089 1.98607 11.0536L3.91643 8.65515C3.99996 8.554 4.0428 8.42526 4.03656 8.29414L3.87501 5.02428C3.87108 4.95096 3.85214 4.87923 3.81936 4.81356C3.78658 4.74788 3.74066 4.68966 3.68446 4.64252C3.62768 4.59451 3.56147 4.55899 3.4901 4.53826C3.41874 4.51752 3.34383 4.51205 3.27022 4.52219L2.91397 4.56783L3.08795 4.3894C3.21637 4.24831 3.34478 4.10723 3.47734 3.97444C3.60989 3.84166 3.6596 3.80431 3.75488 3.72132C3.85015 3.63833 4.00757 3.50139 4.13598 3.39766L4.43423 3.17358C4.5806 3.06846 4.73111 2.96748 4.88576 2.87066L5.14673 2.71298C5.34832 2.59679 5.55544 2.4889 5.76809 2.38931L5.8675 2.33952L5.63553 2.84161C5.60469 2.90823 5.58798 2.98053 5.58645 3.05394C5.58491 3.12735 5.59859 3.20028 5.62662 3.26813C5.65465 3.33598 5.69641 3.39727 5.74928 3.44813C5.80215 3.499 5.86497 3.53833 5.93378 3.56364L9.00744 4.70062C9.13023 4.74715 9.26576 4.74715 9.38854 4.70062L12.2385 3.57609C12.3042 3.55052 12.364 3.512 12.4146 3.46282C12.4651 3.41363 12.5052 3.35479 12.5326 3.28977C12.5604 3.22414 12.5748 3.15358 12.5748 3.08229C12.5748 3.011 12.5604 2.94044 12.5326 2.87481L12.2012 2.11959H12.2427C12.7145 2.29811 13.1692 2.51894 13.6014 2.77937L13.7091 2.84576C14.1198 3.10102 14.5078 3.39118 14.8689 3.71302L15.0264 3.85411C15.1341 3.9537 15.2376 4.05329 15.337 4.15702L15.453 4.28566C15.54 4.3811 15.627 4.47239 15.7098 4.57198L15.0222 4.48484C14.9486 4.47444 14.8736 4.47979 14.8022 4.50053C14.7308 4.52127 14.6646 4.55694 14.608 4.60518C14.5525 4.65269 14.5074 4.71108 14.4753 4.77673C14.4433 4.84239 14.425 4.91393 14.4216 4.98694L14.2724 8.29414C14.265 8.42472 14.3064 8.5534 14.3884 8.65515L16.3188 11.037C16.3634 11.0923 16.4187 11.138 16.4813 11.1715C16.5439 11.2051 16.6126 11.2256 16.6833 11.232C16.8254 11.2415 16.9659 11.197 17.0768 11.1075L17.6568 10.6096C17.6568 10.6428 17.6568 10.676 17.6568 10.7092C17.6568 10.8129 17.6568 10.9167 17.6236 11.0204C17.6029 11.203 17.5739 11.3856 17.5408 11.564C17.5408 11.647 17.5077 11.7258 17.4911 11.8088C17.4497 12.0025 17.3999 12.1947 17.342 12.3856L17.2715 12.6097C17.2053 12.813 17.1348 13.0246 17.052 13.2072L16.9733 13.3815C16.8987 13.5475 16.82 13.7135 16.7372 13.8753L16.5963 14.1367C16.5259 14.2571 16.4555 14.3774 16.3809 14.4936C16.3064 14.6098 16.2939 14.6347 16.2484 14.7052L16.1199 14.0869C16.1056 14.0161 16.0769 13.9489 16.0356 13.8897C15.9942 13.8304 15.9412 13.7803 15.8797 13.7425C15.818 13.7056 15.7496 13.6815 15.6784 13.6715C15.6073 13.6615 15.5349 13.6659 15.4654 13.6844L12.3172 14.6015C12.192 14.638 12.0844 14.7192 12.0148 14.8297L10.3786 17.4273C10.3405 17.4865 10.3146 17.5528 10.3023 17.6221C10.29 17.6915 10.2916 17.7626 10.307 17.8314C10.3224 17.9001 10.3514 17.9651 10.3921 18.0225C10.4328 18.08 10.4846 18.1287 10.5443 18.1659L10.7307 18.2738H10.6603C10.4504 18.3181 10.2391 18.3499 10.0265 18.3693ZM17.6775 9.77553L16.7579 10.5764L14.9104 8.29414L15.0595 5.14877L16.2649 5.3023C17.1527 6.62758 17.6429 8.17989 17.6775 9.77553ZM11.6213 18.0746L10.9502 17.6597L12.5078 15.17L15.5152 14.3068L15.7347 15.3733C14.6626 16.6629 13.2301 17.6022 11.6213 18.0705V18.0746ZM11.4225 1.89136L11.9113 3.04494L9.17728 4.11968L6.23204 3.02419L6.69598 2.02C8.22403 1.51129 9.86763 1.46367 11.4225 1.88307V1.89136ZM2.38374 5.25666L3.25779 5.14462L3.40692 8.28999L1.55941 10.5722L0.913192 10.0245C0.913192 10.0245 0.913192 10.0245 0.913192 10.0038C0.91116 8.30857 1.42406 6.65289 2.38374 5.25666ZM2.67371 15.116L2.83941 14.2861L5.85922 15.1658L7.41676 17.6555L6.81611 18.029C5.16945 17.5072 3.72312 16.4901 2.67371 15.116ZM11.8243 13.091L13.067 9.49336C13.1044 9.38344 13.1048 9.26427 13.0681 9.1541C13.0315 9.04394 12.9598 8.94884 12.864 8.88337L9.62052 6.65921C9.53236 6.5998 9.42852 6.56807 9.32227 6.56807C9.21601 6.56807 9.11217 6.5998 9.02401 6.65921L5.77637 8.88337C5.68149 8.94861 5.61037 9.043 5.57375 9.15229C5.53714 9.26158 5.53701 9.37984 5.57339 9.48921L6.81611 13.0869C6.85228 13.1912 6.91998 13.2816 7.00981 13.3455C7.09964 13.4095 7.20713 13.4438 7.31734 13.4437H11.3272C11.4338 13.4396 11.5367 13.4033 11.6225 13.3397C11.7082 13.276 11.7728 13.1879 11.8077 13.0869L11.8243 13.091ZM7.37948 12.8255L6.18233 9.35227L9.30155 7.2028L12.4374 9.35227L11.2443 12.8255H7.37948Z" fill="#b7b7b7"></path><path fill-rule="evenodd" clip-rule="evenodd" d="M17.5077 13.7384L17.5325 13.6844C17.6264 13.4714 17.7134 13.2542 17.7935 13.0329V12.9748C17.9535 12.5126 18.0755 12.0379 18.158 11.5557C18.4551 9.83734 18.2484 8.06956 17.5629 6.46651C16.8774 4.86347 15.7425 3.49394 14.2958 2.52385C12.8491 1.55375 11.1526 1.02472 9.41185 1.00085C7.67109 0.976967 5.96077 1.45927 4.48808 2.38931L4.38452 2.4557C4.22711 2.55944 4.0697 2.66733 3.91643 2.77937L3.7963 2.87066C3.66927 2.96748 3.54638 3.06707 3.42763 3.16943L3.26608 3.31051C3.13076 3.43223 2.99268 3.5581 2.85184 3.68812L2.78141 3.77941C2.66267 3.9039 2.54806 4.03115 2.4376 4.16117L2.37132 4.23587C2.23876 4.39355 2.11449 4.55953 1.99022 4.72966L1.95293 4.77946C1.26162 5.75136 0.770725 6.85161 0.508977 8.01584C0.247229 9.18007 0.21988 10.3849 0.428531 11.5598V11.5847C0.507881 12.034 0.621438 12.4765 0.768208 12.9084V12.9582C0.916102 13.3862 1.09612 13.8024 1.30672 14.2031C2.01766 15.5543 3.05887 16.703 4.33309 17.5418C5.60731 18.3807 7.07298 18.8824 8.5932 19H8.71747C8.90803 19 9.09858 19 9.28913 19C9.47968 19 9.67023 19 9.86078 19H9.88977C11.5155 18.8937 13.0821 18.3484 14.4234 17.422C15.7646 16.4956 16.8304 15.2227 17.5077 13.7384ZM10.0265 18.3693C9.89806 18.3693 9.7655 18.3693 9.63709 18.3693C9.50867 18.3693 9.37612 18.3693 9.2477 18.3693C9.04887 18.3693 8.83346 18.3693 8.65948 18.3402C8.3271 18.3159 7.99649 18.2716 7.66945 18.2074L7.802 18.1286C7.86308 18.0927 7.91637 18.045 7.95874 17.9882C8.0011 17.9314 8.03167 17.8666 8.04866 17.7978C8.06565 17.729 8.0687 17.6574 8.05765 17.5874C8.04659 17.5173 8.02164 17.4502 7.98427 17.39L6.35631 14.7882C6.28669 14.6777 6.17914 14.5965 6.05391 14.56L2.8974 13.6803C2.82657 13.6606 2.75244 13.6559 2.67971 13.6665C2.60698 13.6771 2.53724 13.7027 2.47492 13.7417C2.4126 13.7808 2.35905 13.8323 2.31769 13.8932C2.27632 13.954 2.24803 14.0228 2.23462 14.0952L2.16834 14.4189C2.1062 14.3193 2.03993 14.2197 1.98193 14.1118L1.87837 13.9209C1.78724 13.7494 1.70301 13.5738 1.62569 13.3939L1.54698 13.2155C1.46413 13.0163 1.38957 12.8006 1.32329 12.6055L1.26115 12.4064C1.19902 12.1989 1.14517 11.9914 1.0996 11.7798C1.0996 11.7092 1.07475 11.6428 1.05818 11.5723C1.02089 11.3773 0.991898 11.1781 0.967044 10.9789C0.967044 10.9499 0.967044 10.925 0.967044 10.8959L1.22801 11.12C1.33729 11.2129 1.47861 11.2591 1.62154 11.2486C1.69224 11.2422 1.76094 11.2216 1.82356 11.1881C1.88618 11.1546 1.94144 11.1089 1.98607 11.0536L3.91643 8.65515C3.99996 8.554 4.0428 8.42526 4.03656 8.29414L3.87501 5.02428C3.87108 4.95096 3.85214 4.87923 3.81936 4.81356C3.78658 4.74788 3.74066 4.68966 3.68446 4.64252C3.62768 4.59451 3.56147 4.55899 3.4901 4.53826C3.41874 4.51752 3.34383 4.51205 3.27022 4.52219L2.91397 4.56783L3.08795 4.3894C3.21637 4.24831 3.34478 4.10723 3.47734 3.97444C3.60989 3.84166 3.6596 3.80431 3.75488 3.72132C3.85015 3.63833 4.00757 3.50139 4.13598 3.39766L4.43423 3.17358C4.5806 3.06846 4.73111 2.96748 4.88576 2.87066L5.14673 2.71298C5.34832 2.59679 5.55544 2.4889 5.76809 2.38931L5.8675 2.33952L5.63553 2.84161C5.60469 2.90823 5.58798 2.98053 5.58645 3.05394C5.58491 3.12735 5.59859 3.20028 5.62662 3.26813C5.65465 3.33598 5.69641 3.39727 5.74928 3.44813C5.80215 3.499 5.86497 3.53833 5.93378 3.56364L9.00744 4.70062C9.13023 4.74715 9.26576 4.74715 9.38854 4.70062L12.2385 3.57609C12.3042 3.55052 12.364 3.512 12.4146 3.46282C12.4651 3.41363 12.5052 3.35479 12.5326 3.28977C12.5604 3.22414 12.5748 3.15358 12.5748 3.08229C12.5748 3.011 12.5604 2.94044 12.5326 2.87481L12.2012 2.11959H12.2427C12.7145 2.29811 13.1692 2.51894 13.6014 2.77937L13.7091 2.84576C14.1198 3.10102 14.5078 3.39118 14.8689 3.71302L15.0264 3.85411C15.1341 3.9537 15.2376 4.05329 15.337 4.15702L15.453 4.28566C15.54 4.3811 15.627 4.47239 15.7098 4.57198L15.0222 4.48484C14.9486 4.47444 14.8736 4.47979 14.8022 4.50053C14.7308 4.52127 14.6646 4.55694 14.608 4.60518C14.5525 4.65269 14.5074 4.71108 14.4753 4.77673C14.4433 4.84239 14.425 4.91393 14.4216 4.98694L14.2724 8.29414C14.265 8.42472 14.3064 8.5534 14.3884 8.65515L16.3188 11.037C16.3634 11.0923 16.4187 11.138 16.4813 11.1715C16.5439 11.2051 16.6126 11.2256 16.6833 11.232C16.8254 11.2415 16.9659 11.197 17.0768 11.1075L17.6568 10.6096C17.6568 10.6428 17.6568 10.676 17.6568 10.7092C17.6568 10.8129 17.6568 10.9167 17.6236 11.0204C17.6029 11.203 17.5739 11.3856 17.5408 11.564C17.5408 11.647 17.5077 11.7258 17.4911 11.8088C17.4497 12.0025 17.3999 12.1947 17.342 12.3856L17.2715 12.6097C17.2053 12.813 17.1348 13.0246 17.052 13.2072L16.9733 13.3815C16.8987 13.5475 16.82 13.7135 16.7372 13.8753L16.5963 14.1367C16.5259 14.2571 16.4555 14.3774 16.3809 14.4936C16.3064 14.6098 16.2939 14.6347 16.2484 14.7052L16.1199 14.0869C16.1056 14.0161 16.0769 13.9489 16.0356 13.8897C15.9942 13.8304 15.9412 13.7803 15.8797 13.7425C15.818 13.7056 15.7496 13.6815 15.6784 13.6715C15.6073 13.6615 15.5349 13.6659 15.4654 13.6844L12.3172 14.6015C12.192 14.638 12.0844 14.7192 12.0148 14.8297L10.3786 17.4273C10.3405 17.4865 10.3146 17.5528 10.3023 17.6221C10.29 17.6915 10.2916 17.7626 10.307 17.8314C10.3224 17.9001 10.3514 17.9651 10.3921 18.0225C10.4328 18.08 10.4846 18.1287 10.5443 18.1659L10.7307 18.2738H10.6603C10.4504 18.3181 10.2391 18.3499 10.0265 18.3693ZM17.6775 9.77553L16.7579 10.5764L14.9104 8.29414L15.0595 5.14877L16.2649 5.3023C17.1527 6.62758 17.6429 8.17989 17.6775 9.77553ZM11.6213 18.0746L10.9502 17.6597L12.5078 15.17L15.5152 14.3068L15.7347 15.3733C14.6626 16.6629 13.2301 17.6022 11.6213 18.0705V18.0746ZM11.4225 1.89136L11.9113 3.04494L9.17728 4.11968L6.23204 3.02419L6.69598 2.02C8.22403 1.51129 9.86763 1.46367 11.4225 1.88307V1.89136ZM2.38374 5.25666L3.25779 5.14462L3.40692 8.28999L1.55941 10.5722L0.913192 10.0245C0.913192 10.0245 0.913192 10.0245 0.913192 10.0038C0.91116 8.30857 1.42406 6.65289 2.38374 5.25666ZM2.67371 15.116L2.83941 14.2861L5.85922 15.1658L7.41676 17.6555L6.81611 18.029C5.16945 17.5072 3.72312 16.4901 2.67371 15.116ZM11.8243 13.091L13.067 9.49336C13.1044 9.38344 13.1048 9.26427 13.0681 9.1541C13.0315 9.04394 12.9598 8.94884 12.864 8.88337L9.62052 6.65921C9.53236 6.5998 9.42852 6.56807 9.32227 6.56807C9.21601 6.56807 9.11217 6.5998 9.02401 6.65921L5.77637 8.88337C5.68149 8.94861 5.61037 9.043 5.57375 9.15229C5.53714 9.26158 5.53701 9.37984 5.57339 9.48921L6.81611 13.0869C6.85228 13.1912 6.91998 13.2816 7.00981 13.3455C7.09964 13.4095 7.20713 13.4438 7.31734 13.4437H11.3272C11.4338 13.4396 11.5367 13.4033 11.6225 13.3397C11.7082 13.276 11.7728 13.1879 11.8077 13.0869L11.8243 13.091ZM7.37948 12.8255L6.18233 9.35227L9.30155 7.2028L12.4374 9.35227L11.2443 12.8255H7.37948Z" stroke="#b7b7b7" stroke-width="0.4" stroke-linejoin="round" mask="url(#path-1-outside-1_11018_281863)"></path></svg>