<svg
                                                            width="2.4rem"
                                                            height="2.4rem"
                                                            viewBox="0 0 22 22"
                                                            version="1.1"
                                                            xmlns="http://www.w3.org/2000/svg"
                                                            className="sc-bqOBqt PBviZ"
                                                            fill="none"

                                                        >
                                                            <path
                                                                xmlns="http://www.w3.org/2000/svg"
                                                                d="M9.6 0.5C11.4987 0.5 13.3548 1.06303 14.9335 2.11789C16.5122 3.17275 17.7426 4.67207 18.4692 6.42624C19.1958 8.18041 19.386 10.1106 19.0155 11.9729C18.6451 13.8351 17.7308 15.5456 16.3882 16.8882C15.0456 18.2308 13.3351 19.1451 11.4729 19.5155C9.61065 19.886 7.68041 19.6958 5.92624 18.9692C4.17207 18.2426 2.67275 17.0122 1.61789 15.4335C0.56303 13.8548 0 11.9987 0 10.1C0.00291136 7.55482 1.01527 5.11471 2.81499 3.31499C4.61471 1.51527 7.05482 0.502911 9.6 0.5ZM9.6 14.303C10.4314 14.3036 11.2443 14.0576 11.9359 13.5961C12.6275 13.1347 13.1666 12.4784 13.4852 11.7105C13.8038 10.9426 13.8874 10.0974 13.7256 9.28188C13.5638 8.46638 13.1637 7.71719 12.576 7.12909C11.9883 6.54099 11.2395 6.1404 10.4241 5.97798C9.60868 5.81556 8.76345 5.89862 7.99528 6.21665C7.2271 6.53467 6.57051 7.07338 6.10854 7.76463C5.64658 8.45587 5.4 9.2686 5.4 10.1C5.40211 11.2133 5.84529 12.2803 6.63249 13.0675C7.41968 13.8547 8.48674 14.2979 9.6 14.3V14.303Z"
                                                                fill="#FA6200"
                                                            ></path>
                                                        </svg>