<svg width="2.4rem" height="2.4rem" viewBox="0 0 18 18" version="1.1" xmlns="http://www.w3.org/2000/svg" class="sc-bqOBqt PBviZ" fill="none" style="display: block;"><path d="M9.31289 16.0964L9.18145 16.0188L9.31025 15.9439L10.2704 15.3851L10.272 15.3842L11.3685 14.7409V17.3057L10.2731 16.6631L10.272 16.6624L9.31289 16.0964ZM8.80727 15.9439L8.93607 16.0188L8.80463 16.0964L7.84556 16.6624L7.84444 16.6631L6.74902 17.3057V14.7409L7.84556 15.3842L7.84556 15.3842L7.84708 15.3851L8.80727 15.9439Z" stroke="#b7b7b7"></path><path d="M15.1035 6.45456C15.0798 5.25826 14.7572 4.10131 14.1747 3.08603C13.5609 2.00778 12.6558 1.11055 11.5696 0.504533C10.5937 -0.0857475 9.46824 -0.156581 8.55527 0.284162L8.46083 0.331384C8.39786 0.370736 8.31129 0.410088 8.24046 0.44157C8.11453 0.496663 7.98073 0.512404 7.84693 0.496663C7.52425 0.457311 7.02841 0.425829 6.53258 0.551756L6.45387 0.575367C4.53349 1.19713 3.17191 2.95223 2.98302 5.0615C2.94367 5.50224 2.9358 5.94299 2.95154 6.37586C2.90432 6.45456 2.86496 6.54114 2.83348 6.62771C2.67607 7.06846 2.66033 7.53281 2.77839 7.96568C2.90432 8.45365 3.19552 8.89439 3.62052 9.20921C3.80941 9.86245 4.10062 10.4685 4.50201 11.0037C4.57284 11.106 4.64368 11.2083 4.72238 11.3027C4.79322 11.3972 4.87192 11.4916 4.96636 11.5782C5.01359 11.6333 5.07655 11.6963 5.13164 11.7513C5.37563 12.0032 5.64322 12.2157 5.93442 12.4125C6.04461 12.4912 6.16267 12.562 6.28072 12.6328C6.32795 12.6564 6.37517 12.6879 6.42239 12.7115C6.53258 12.7745 6.65063 12.8375 6.76869 12.8847C6.91036 12.9555 7.05202 13.0106 7.20156 13.0657C7.51638 13.1838 7.84693 13.2782 8.18536 13.3333C8.46083 13.3884 8.73629 13.412 9.01963 13.4277H9.0275C9.15342 13.4199 9.28722 13.412 9.41315 13.3963C9.49185 13.3963 9.57843 13.3805 9.65713 13.3648C10.0743 13.2939 10.4757 13.1838 10.8613 13.0421C10.9951 12.987 11.121 12.9319 11.247 12.8768C11.4044 12.806 11.5618 12.7273 11.7113 12.6407C11.8294 12.5699 11.9474 12.499 12.0576 12.4203C12.3567 12.2236 12.6321 12.0032 12.884 11.7513C13.0335 11.6097 13.1752 11.4523 13.309 11.2791C13.8127 10.6652 14.1747 9.96477 14.3951 9.20134C14.828 8.87865 15.1192 8.4143 15.2373 7.91059C15.3474 7.43836 15.3081 6.91892 15.0956 6.45456H15.1035ZM3.76219 5.81706C3.75432 5.58882 3.76219 5.35271 3.7858 5.12446C3.93534 3.36936 5.05294 1.88973 6.64276 1.35454L6.7136 1.3388C7.0835 1.23648 7.47703 1.26009 7.75249 1.29944C8.02795 1.32306 8.28768 1.2837 8.5474 1.18926C8.61036 1.15778 8.6812 1.11843 8.74416 1.08694L8.83861 1.03972C9.52333 0.677682 10.3891 0.732775 11.1682 1.19713C12.1284 1.74019 12.9312 2.52723 13.4743 3.48742C13.8757 4.19576 14.1433 4.9828 14.2456 5.79345C14.2456 5.80919 14.2456 5.81706 14.2456 5.8328C13.9386 5.76984 13.3484 5.58095 12.6243 5.02215C12.1442 4.64437 11.7192 4.27446 11.3965 3.999C11.0187 3.66844 10.7905 3.45594 10.7826 3.44807C10.696 3.36149 10.578 3.32214 10.4599 3.33788C10.3419 3.34575 10.2395 3.42446 10.1766 3.5189C10.1766 3.52677 10.1215 3.60548 9.98769 3.74714C9.9562 3.78649 9.91685 3.82585 9.86963 3.8652C9.48398 4.25085 8.70481 4.88835 7.3511 5.47076C6.24137 5.95873 5.27331 6.10827 4.54923 6.13188C4.22655 6.14762 3.95895 6.13188 3.74645 6.10827C3.74645 6.01382 3.74645 5.91151 3.75432 5.81706H3.76219ZM14.2534 8.20967C14.159 8.3592 14.0252 8.48513 13.8757 8.58744C13.7734 8.65828 13.6946 8.76846 13.6474 8.91013C13.3641 9.94903 12.7738 10.8541 11.9317 11.531C11.0895 12.2 10.0821 12.5777 9.00389 12.625C7.98073 12.5777 6.99693 12.2314 6.19415 11.6018C6.18628 11.5939 6.17841 11.5939 6.17054 11.5782C6.13906 11.5625 6.10757 11.5467 6.08396 11.5231C5.24183 10.8541 4.65155 9.94903 4.36034 8.90226C4.32886 8.77633 4.25016 8.66615 4.13997 8.58744C3.9983 8.493 3.88025 8.36707 3.77793 8.23328C3.51034 7.8555 3.42376 7.35179 3.58904 6.90318C3.73071 6.91892 3.91173 6.93466 4.10849 6.93466C4.17932 6.94253 4.25803 6.94253 4.33673 6.94253C5.16312 6.94253 6.33582 6.80086 7.68166 6.21058C9.27148 5.51798 10.1451 4.75455 10.5544 4.32168C10.8849 4.62076 11.4595 5.11659 12.1442 5.65178C12.7659 6.13975 13.309 6.39947 13.7183 6.5254C13.9622 6.6041 14.1669 6.64345 14.3085 6.65132L14.34 6.72216C14.5919 7.21012 14.5447 7.78466 14.2534 8.20967Z" fill="#b7b7b7"></path><path d="M10.3969 10.3069C10.0348 10.6846 9.5075 10.8971 9.0038 10.8971C8.50009 10.8971 7.98064 10.6846 7.61073 10.3069C7.45332 10.1416 7.45332 9.89759 7.61073 9.73231C7.76814 9.5749 8.01999 9.58277 8.1774 9.73231C8.61814 10.1888 9.38945 10.1888 9.83019 9.73231C9.9876 9.58277 10.2473 9.58277 10.3969 9.73231C10.5621 9.89759 10.5621 10.1416 10.3969 10.3069Z" fill="#b7b7b7"></path></svg>