<?xml version="1.0" encoding="UTF-8"?>
<svg id="Layer_1" data-name="Layer 1" xmlns="http://www.w3.org/2000/svg" viewBox="0 0 141.73 141.73">
  <defs>
    <style>
      .cls-1 {
        stroke: #ddd;
      }

      .cls-1, .cls-2 {
        stroke-width: 6px;
      }

      .cls-1, .cls-2, .cls-3 {
        stroke-linecap: round;
        stroke-linejoin: round;
      }

      .cls-1, .cls-3 {
        fill: none;
      }

      .cls-4, .cls-2 {
        fill: #f15a29;
      }

      .cls-2, .cls-3 {
        stroke: #f15a29;
      }

      .cls-3 {
        stroke-width: 7px;
      }
    </style>
  </defs>
  <g>
    <path class="cls-2" d="M132.11,89.28h-6.67c-2.81,0-5.08-2.27-5.08-5.08v-13.45c0-2.81,2.27-5.08,5.08-5.08h6.24"/>
    <path class="cls-1" d="M18.04,32.69h115.85v93.69H18.04c-5.97,0-10.81-4.84-10.81-10.81V43.5c0-5.97,4.84-10.81,10.81-10.81Z"/>
    <path class="cls-1" d="M7.23,98.23V26.15c0-5.97,4.84-10.81,10.81-10.81h105.44v17.35"/>
    <circle class="cls-3" cx="62.14" cy="79.01" r="32.74"/>
  </g>
  <rect class="cls-4" x="51.61" y="57.2" width="9.24" height="32.4" rx="4.62" ry="4.62" transform="translate(-27.47 34.1) rotate(-27.39)"/>
  <rect class="cls-4" x="65.6" y="71.34" width="9.24" height="24.9" rx="4.05" ry="4.05" transform="translate(154.01 13.58) rotate(90)"/>
</svg>