<?xml version="1.0" encoding="UTF-8"?>
<svg id="Layer_1" data-name="Layer 1" xmlns="http://www.w3.org/2000/svg" viewBox="0 0 141.73 141.73">
  <defs>
    <style>
      .cls-1 {
        fill: #f15a29;
      }

      .cls-2 {
        fill: none;
        stroke: #ddd;
        stroke-linecap: round;
        stroke-linejoin: round;
        stroke-width: 6.06px;
      }
    </style>
  </defs>
  <path class="cls-2" d="M76.35,9.14l12.82,20.28,23.4-5.27c3.92-.88,7.42,2.62,6.54,6.54l-5.27,23.4,20.28,12.82c3.4,2.15,3.4,7.1,0,9.25l-20.28,12.82,5.27,23.4c.88,3.92-2.62,7.42-6.54,6.54l-23.4-5.27-12.82,20.28c-2.15,3.4-7.1,3.4-9.25,0l-12.82-20.28-23.4,5.27c-3.92.88-7.42-2.62-6.54-6.54l5.27-23.4-20.28-12.82c-3.4-2.15-3.4-7.1,0-9.25l20.28-12.82-5.27-23.4c-.88-3.92,2.62-7.42,6.54-6.54l23.4,5.27,12.82-20.28c2.15-3.4,7.1-3.4,9.25,0Z"/>
  <g>
    <path class="cls-1" d="M49.7,88.35l-7.26-24.25h-.1v24.25h-5.23v-36.58h6.17l6.53,21.79h.1v-21.79h5.23v36.58h-5.43Z"/>
    <path class="cls-1" d="M66.63,56.89v10.35h8.1v5.12h-8.1v10.87h10.03v5.12h-15.57v-36.58h15.57v5.12h-10.03Z"/>
    <path class="cls-1" d="M97.1,88.35l-3.14-21.79h-.1l-3.19,21.79h-5.64l-5.64-36.58h5.7l3.19,24.25h.1l3.14-24.25h4.91l3.14,24.25h.1l3.19-24.25h5.54l-5.64,36.58h-5.64Z"/>
  </g>
</svg>