<svg width="2rem" height="2rem" viewBox="0 0 24 24" version="1.1" xmlns="http://www.w3.org/2000/svg" className="sc-bqOBqt PBviZ" fill="unset">
                                                            <g fill="#b7b7b7">
                                                                <path d="M12,0C9.627,0,7.307,0.704,5.333,2.022C3.36,3.341,1.822,5.215,0.913,7.408c-0.908,2.193-1.146,4.606-0.683,6.933 c0.463,2.328,1.606,4.466,3.284,6.144c1.678,1.678,3.816,2.821,6.144,3.284c2.328,0.463,4.741,0.225,6.933-0.683 c2.193-0.908,4.067-2.446,5.385-4.42C23.296,16.693,24,14.373,24,12c0-3.183-1.264-6.235-3.515-8.485C18.235,1.264,15.183,0,12,0z M21,17.937l-1.386-0.6l-2.27,2.269l0.6,1.385c-1.145,0.759-2.424,1.291-3.77,1.568l-0.562-1.404h-3.21L9.84,22.558 C8.493,22.286,7.21,21.757,6.063,21l0.6-1.386l-2.27-2.269l-1.386,0.6c-0.758-1.145-1.29-2.424-1.566-3.769l1.404-0.562v-3.21 L1.442,9.84C1.718,8.495,2.25,7.215,3.009,6.07l1.384,0.6l2.27-2.27l-0.6-1.386c1.145-0.759,2.424-1.291,3.769-1.567l0.562,1.404 h3.21l0.562-1.404c1.344,0.272,2.624,0.799,3.77,1.553l-0.6,1.385l2.27,2.269l1.385-0.6c0.759,1.145,1.291,2.424,1.567,3.769 l-1.404,0.562v3.21l1.404,0.562c-0.274,1.346-0.803,2.627-1.56,3.773L21,17.937z"></path>
                                                                <path d="M11.994,4.318c-1.518,0-3.002,0.45-4.264,1.294C6.468,6.455,5.484,7.654,4.903,9.057c-0.581,1.403-0.733,2.946-0.437,4.435 s1.027,2.856,2.101,3.93c1.073,1.073,2.441,1.805,3.93,2.101c1.489,0.296,3.032,0.144,4.435-0.437 c1.402-0.581,2.601-1.565,3.445-2.827c0.843-1.262,1.293-2.746,1.293-4.264c-0.002-2.035-0.812-3.986-2.251-5.425 C15.98,5.13,14.029,4.321,11.994,4.318z M15.561,12.033c-0.013,0.58-0.248,1.132-0.658,1.542c-0.41,0.41-0.962,0.646-1.542,0.658 c-0.222,0-0.442-0.033-0.654-0.099c-0.016,0.341,0.037,0.682,0.154,1.002c0.118,0.321,0.298,0.614,0.531,0.864 c-0.141,0.282-0.252,0.498-0.252,0.498h-2.293c0,0-0.111-0.216-0.252-0.498c0.233-0.25,0.413-0.543,0.531-0.864 c0.118-0.32,0.17-0.661,0.154-1.002c-0.212,0.066-0.432,0.099-0.654,0.099c-0.58-0.013-1.132-0.248-1.542-0.658 c-0.41-0.41-0.646-0.962-0.658-1.542c-0.117-1.926,2.811-3.3,3.359-4.684h0.417c0.553,1.377,3.483,2.758,3.366,4.684H15.561z"></path>
                                                            </g>
                                                        </svg>