<svg width="21" height="21" viewBox="0 0 21 21" fill="none" xmlns="http://www.w3.org/2000/svg">
<circle cx="10.6877" cy="10.7656" r="10" fill="black"/>
<mask id="mask0_2055_59543" style="mask-type:alpha" maskUnits="userSpaceOnUse" x="0" y="0" width="21" height="21">
<circle cx="10.6877" cy="10.7656" r="9.5" fill="black" stroke="black"/>
</mask>
<g mask="url(#mask0_2055_59543)">
<path d="M7.20534 5.29671C6.75567 5.73138 6.40016 6.25385 6.1609 6.83169C5.92163 7.40952 5.80372 8.03037 5.81449 8.65569C5.80372 9.28101 5.92163 9.90186 6.1609 10.4797C6.40016 11.0575 6.75567 11.58 7.20534 12.0147C7.64259 12.463 8.16657 12.8176 8.74534 13.0567C9.32411 13.2959 9.94553 13.4147 10.5717 13.4059C11.1953 13.4152 11.8143 13.2966 12.3903 13.0573C12.9662 12.818 13.487 12.4632 13.9204 12.0147C14.7665 11.1965 15.263 10.0826 15.3058 8.90638C15.3058 8.81909 15.3117 8.73748 15.3117 8.65607V8.53272C15.3057 7.92805 15.1796 7.33059 14.9409 6.77502C14.7021 6.21945 14.3554 5.71683 13.9208 5.29633C13.4881 4.84717 12.9673 4.49206 12.3911 4.25318C11.815 4.01429 11.1957 3.89678 10.5721 3.90796C9.94582 3.89724 9.32398 4.01493 8.74494 4.25378C8.1659 4.49263 7.64193 4.84757 7.20534 5.29671ZM10.5719 6.76935C10.8224 6.76204 11.0717 6.80631 11.3044 6.89942C11.5371 6.99253 11.7481 7.13248 11.9244 7.31058C12.1031 7.48425 12.2443 7.69259 12.3395 7.92282C12.4348 8.15305 12.4819 8.40031 12.4782 8.64943C12.482 8.8994 12.4349 9.14753 12.3397 9.3787C12.2445 9.60986 12.1032 9.8192 11.9244 9.99397C11.7483 10.1734 11.5376 10.3155 11.3052 10.4115C11.0728 10.5076 10.8234 10.5556 10.5719 10.5529C10.3247 10.5554 10.0796 10.5072 9.85189 10.411C9.62414 10.3149 9.4186 10.1729 9.24805 9.99397C9.06928 9.8192 8.92798 9.60986 8.83278 9.3787C8.73757 9.14753 8.69045 8.8994 8.69429 8.64943C8.69053 8.40032 8.73771 8.15306 8.83294 7.92283C8.92816 7.6926 9.06942 7.48426 9.24805 7.31058C9.4187 7.133 9.62464 6.99311 9.85261 6.8999C10.0806 6.80668 10.3257 6.76221 10.5719 6.76935Z" fill="#FCE403"/>
<path fill-rule="evenodd" clip-rule="evenodd" d="M3.94584 16.9339C4.31224 16.049 4.85665 15.2489 5.54526 14.5832C6.21388 13.8953 7.01633 13.3517 7.90312 12.9859C8.78991 12.6201 9.74224 12.4398 10.7014 12.4562C11.6565 12.4391 12.6048 12.619 13.4872 12.9848C14.3696 13.3506 15.1671 13.8945 15.8299 14.5823C16.4954 15.2264 17.0264 15.9962 17.392 16.847C17.7577 17.6979 17.9507 18.6129 17.9598 19.539V19.7263C17.9598 19.7874 17.9577 19.8487 17.9555 19.911C17.9532 19.9756 17.9508 20.0414 17.9508 20.1095C17.8857 21.9112 17.1255 23.6177 15.8296 24.8711C15.1658 25.5579 14.3683 26.1014 13.4862 26.4679C12.6041 26.8344 11.6562 27.0161 10.7011 27.0019C9.74203 27.0154 8.79026 26.8335 7.90383 26.4672C7.0174 26.1008 6.2149 25.5578 5.54526 24.8711C4.85665 24.2054 4.31224 23.4053 3.94584 22.5204C3.57944 21.6355 3.39887 20.6847 3.41534 19.7271C3.39887 18.7695 3.57944 17.8188 3.94584 16.9339Z" fill="#FCE403"/>
</g>
<circle cx="10.6877" cy="10.7656" r="9.5" stroke="#FCE403"/>
</svg>
