<svg width="91" height="92" viewBox="0 0 91 92" fill="none" xmlns="http://www.w3.org/2000/svg">
<circle cx="45" cy="46.8306" r="29" fill="#171717"/>
<mask id="mask0_1832_68805" style="mask-type:alpha" maskUnits="userSpaceOnUse" x="16" y="17" width="58" height="59">
<circle cx="45" cy="46.8306" r="28.5" fill="black" stroke="black"/>
</mask>
<g mask="url(#mask0_1832_68805)">
<path d="M34.9007 30.9704C33.5967 32.231 32.5657 33.7461 31.8718 35.4219C31.178 37.0976 30.836 38.898 30.8673 40.7115C30.836 42.5249 31.178 44.3254 31.8718 46.0011C32.5657 47.6768 33.5967 49.192 34.9007 50.4525C36.1687 51.7526 37.6883 52.7809 39.3667 53.4745C41.0452 54.1682 42.8473 54.5127 44.6632 54.4871C46.4718 54.5142 48.2666 54.1701 49.937 53.4762C51.6073 52.7823 53.1176 51.7532 54.3745 50.4525C56.8281 48.0798 58.2678 44.8494 58.392 41.4385C58.392 41.1853 58.4091 40.9487 58.4091 40.7126V40.3548C58.3917 38.6013 58.0261 36.8687 57.3337 35.2575C56.6413 33.6464 55.6359 32.1888 54.3756 30.9693C53.1206 29.6667 51.6105 28.6369 49.9396 27.9442C48.2686 27.2514 46.4728 26.9106 44.6643 26.943C42.8481 26.912 41.0448 27.2533 39.3656 27.9459C37.6863 28.6386 36.1668 29.6679 34.9007 30.9704ZM44.6638 35.2411C45.3902 35.2199 46.1133 35.3483 46.788 35.6183C47.4627 35.8883 48.0748 36.2941 48.5861 36.8106C49.1041 37.3143 49.5138 37.9185 49.7899 38.5861C50.0661 39.2538 50.2029 39.9709 50.1919 40.6933C50.2031 41.4182 50.0664 42.1378 49.7903 42.8082C49.5142 43.4785 49.1045 44.0857 48.5861 44.5925C48.0752 45.113 47.4644 45.5248 46.7904 45.8033C46.1164 46.0819 45.393 46.2213 44.6638 46.2132C43.9469 46.2207 43.2362 46.0807 42.5757 45.8019C41.9153 45.5231 41.3192 45.1114 40.8246 44.5925C40.3061 44.0857 39.8964 43.4785 39.6203 42.8082C39.3442 42.1378 39.2076 41.4182 39.2187 40.6933C39.2078 39.9709 39.3446 39.2538 39.6208 38.5862C39.8969 37.9185 40.3065 37.3143 40.8246 36.8106C41.3195 36.2957 41.9167 35.89 42.5778 35.6197C43.2389 35.3493 43.9498 35.2204 44.6638 35.2411Z" fill="#7FF800"/>
<path fill-rule="evenodd" clip-rule="evenodd" d="M25.4485 64.7185C26.511 62.1523 28.0898 59.832 30.0868 57.9016C32.0258 55.9068 34.3529 54.3303 36.9246 53.2694C39.4962 52.2085 42.258 51.6857 45.0395 51.7332C47.8092 51.6835 50.5595 52.2054 53.1184 53.2663C55.6774 54.3271 57.9902 55.9042 59.9123 57.8991C61.8423 59.7667 63.3821 61.9991 64.4424 64.4667C65.5027 66.9342 66.0624 69.5878 66.089 72.2734V72.8164C66.089 72.9938 66.0827 73.1714 66.0763 73.3521C66.0697 73.5395 66.0629 73.7303 66.0629 73.9278C65.874 79.1527 63.6694 84.1015 59.9114 87.7363C57.9865 89.7283 55.6735 91.3044 53.1154 92.3672C50.5573 93.43 47.8085 93.957 45.0387 93.9156C42.2574 93.9551 39.4973 93.4275 36.9266 92.3651C34.356 91.3027 32.0287 89.7278 30.0868 87.7363C28.0898 85.8059 26.511 83.4856 25.4485 80.9194C24.3859 78.3532 23.8622 75.596 23.91 72.819C23.8622 70.0419 24.3859 67.2847 25.4485 64.7185Z" fill="#7FF800"/>
</g>
<circle cx="45" cy="46.8306" r="28" stroke="#7FF800" stroke-width="2"/>
<circle cx="45" cy="46.8306" r="29" fill="#171717"/>
<mask id="mask1_1832_68805" style="mask-type:alpha" maskUnits="userSpaceOnUse" x="16" y="17" width="58" height="59">
<circle cx="45" cy="46.8306" r="28.5" fill="black" stroke="black"/>
</mask>
<g mask="url(#mask1_1832_68805)">
<path d="M34.9007 30.9704C33.5967 32.231 32.5657 33.7461 31.8718 35.4219C31.178 37.0976 30.836 38.898 30.8673 40.7115C30.836 42.5249 31.178 44.3254 31.8718 46.0011C32.5657 47.6768 33.5967 49.192 34.9007 50.4525C36.1687 51.7526 37.6883 52.7809 39.3667 53.4745C41.0452 54.1682 42.8473 54.5127 44.6632 54.4871C46.4718 54.5142 48.2666 54.1701 49.937 53.4762C51.6073 52.7823 53.1176 51.7532 54.3745 50.4525C56.8281 48.0798 58.2678 44.8494 58.392 41.4385C58.392 41.1853 58.4091 40.9487 58.4091 40.7126V40.3548C58.3917 38.6013 58.0261 36.8687 57.3337 35.2575C56.6413 33.6464 55.6359 32.1888 54.3756 30.9693C53.1206 29.6667 51.6105 28.6369 49.9396 27.9442C48.2686 27.2514 46.4728 26.9106 44.6643 26.943C42.8481 26.912 41.0448 27.2533 39.3656 27.9459C37.6863 28.6386 36.1668 29.6679 34.9007 30.9704ZM44.6638 35.2411C45.3902 35.2199 46.1133 35.3483 46.788 35.6183C47.4627 35.8883 48.0748 36.2941 48.5861 36.8106C49.1041 37.3143 49.5138 37.9185 49.7899 38.5861C50.0661 39.2538 50.2029 39.9709 50.1919 40.6933C50.2031 41.4182 50.0664 42.1378 49.7903 42.8082C49.5142 43.4785 49.1045 44.0857 48.5861 44.5925C48.0752 45.113 47.4644 45.5248 46.7904 45.8033C46.1164 46.0819 45.393 46.2213 44.6638 46.2132C43.9469 46.2207 43.2362 46.0807 42.5757 45.8019C41.9153 45.5231 41.3192 45.1114 40.8246 44.5925C40.3061 44.0857 39.8964 43.4785 39.6203 42.8082C39.3442 42.1378 39.2076 41.4182 39.2187 40.6933C39.2078 39.9709 39.3446 39.2538 39.6208 38.5862C39.8969 37.9185 40.3065 37.3143 40.8246 36.8106C41.3195 36.2957 41.9167 35.89 42.5778 35.6197C43.2389 35.3493 43.9498 35.2204 44.6638 35.2411Z" fill="#7FF800"/>
<path fill-rule="evenodd" clip-rule="evenodd" d="M25.4485 64.7185C26.511 62.1523 28.0898 59.832 30.0868 57.9016C32.0258 55.9068 34.3529 54.3303 36.9246 53.2694C39.4962 52.2085 42.258 51.6857 45.0395 51.7332C47.8092 51.6835 50.5595 52.2054 53.1184 53.2663C55.6774 54.3271 57.9902 55.9042 59.9123 57.8991C61.8423 59.7667 63.3821 61.9991 64.4424 64.4667C65.5027 66.9342 66.0624 69.5878 66.089 72.2734V72.8164C66.089 72.9938 66.0827 73.1714 66.0763 73.3521C66.0697 73.5395 66.0629 73.7303 66.0629 73.9278C65.874 79.1527 63.6694 84.1015 59.9114 87.7363C57.9865 89.7283 55.6735 91.3044 53.1154 92.3672C50.5573 93.43 47.8085 93.957 45.0387 93.9156C42.2574 93.9551 39.4973 93.4275 36.9266 92.3651C34.356 91.3027 32.0287 89.7278 30.0868 87.7363C28.0898 85.8059 26.511 83.4856 25.4485 80.9194C24.3859 78.3532 23.8622 75.596 23.91 72.819C23.8622 70.0419 24.3859 67.2847 25.4485 64.7185Z" fill="#7FF800"/>
</g>
<circle cx="45" cy="46.8306" r="28" stroke="#7FF800" stroke-width="2"/>
</svg>
