<?xml version="1.0" encoding="UTF-8"?>
<svg id="Layer_1" data-name="Layer 1" xmlns="http://www.w3.org/2000/svg" viewBox="0 0 124.33 124.32">
  <defs>
    <style>
      .cls-1 {
        fill: #ddd;
        stroke: #ddd;
        stroke-width: 2px;
      }

      .cls-1, .cls-2 {
        stroke-miterlimit: 10;
      }

      .cls-2 {
        fill: #f15a29;
        stroke: #f15a29;
        stroke-width: 1.8px;
      }
    </style>
  </defs>
  <path class="cls-1" d="M63.01,123.32c-5.94,0-11.14-3.6-13.23-9.17-1.02-2.71-3.06-4.78-5.75-5.83-1.18-.47-2.43-.71-3.69-.71-1.56,0-3.07.36-4.49,1.07-2.02,1-4.17,1.51-6.37,1.51-3.62,0-7.09-1.42-9.76-4-4.37-4.21-5.58-10.51-3.07-16.04,1.19-2.63,1.21-5.54.06-8.18-1.16-2.65-3.3-4.61-6.04-5.53-5.76-1.93-9.55-7.09-9.66-13.16-.11-6.07,3.49-11.38,9.17-13.52,2.7-1.01,4.77-3.05,5.83-5.73,1.06-2.69.93-5.6-.35-8.18-2.71-5.44-1.74-11.78,2.48-16.15,2.72-2.81,6.32-4.37,10.13-4.37,2.03,0,4.01.44,5.91,1.3,1.32.6,2.72.91,4.15.91s2.73-.28,4.02-.84c2.65-1.15,4.62-3.29,5.54-6.04,1.93-5.76,7.1-9.55,13.17-9.66,6.09.02,11.42,3.62,13.51,9.17,1.02,2.71,3.07,4.78,5.75,5.83,1.18.47,2.42.71,3.69.71,1.56,0,3.07-.36,4.5-1.08,2.02-1,4.16-1.52,6.36-1.52,3.62,0,7.09,1.42,9.77,4,4.37,4.21,5.58,10.51,3.07,16.04-1.19,2.63-1.21,5.54-.06,8.19,1.16,2.65,3.3,4.61,6.03,5.53,5.76,1.93,9.55,7.09,9.66,13.16.11,6.07-3.49,11.38-9.17,13.52-2.7,1.01-4.77,3.05-5.83,5.73-1.05,2.69-.93,5.6.36,8.18,2.71,5.44,1.74,11.78-2.48,16.15-2.71,2.81-6.31,4.36-10.12,4.36h0c-2.03,0-4.02-.44-5.92-1.29-1.32-.6-2.72-.91-4.15-.91s-2.74.29-4.03.85c-2.64,1.14-4.61,3.29-5.53,6.03-1.93,5.76-7.1,9.55-13.17,9.66h-.28ZM40.34,103.54c1.77,0,3.52.33,5.18.98,3.72,1.46,6.66,4.45,8.07,8.19,1.82,4.82,6.06,6.53,9.43,6.53.1,0,.2,0,.29,0,3.27-.1,7.61-1.95,9.26-6.87,1.27-3.8,4.11-6.89,7.78-8.49,1.79-.78,3.69-1.17,5.65-1.17s4,.42,5.85,1.26c1.37.62,2.78.93,4.2.93,2.67,0,5.29-1.14,7.21-3.12,2.38-2.47,4.1-6.79,1.77-11.49-1.78-3.58-1.97-7.77-.5-11.49,1.46-3.72,4.45-6.67,8.19-8.08,4.91-1.85,6.59-6.18,6.53-9.61-.07-3.44-1.91-7.7-6.87-9.37-3.79-1.27-6.88-4.1-8.49-7.77-1.6-3.67-1.57-7.86.08-11.5,2.17-4.78.18-9.13-2.19-11.41-1.88-1.82-4.41-2.86-6.96-2.86-1.54,0-3.06.37-4.52,1.09-1.94.97-4.12,1.49-6.3,1.49-1.78,0-3.53-.33-5.19-.98-3.72-1.46-6.66-4.45-8.07-8.19-1.52-4.04-4.97-6.55-9.01-6.55-.24,0-.47,0-.7.03-3.27.09-7.62,1.94-9.27,6.87-1.27,3.8-4.11,6.89-7.78,8.49-1.79.78-3.68,1.17-5.64,1.17s-4-.43-5.85-1.27c-1.38-.62-2.79-.93-4.21-.93-2.67,0-5.3,1.14-7.21,3.12-2.38,2.47-4.1,6.78-1.76,11.48,1.78,3.58,1.97,7.77.5,11.49-1.46,3.73-4.45,6.67-8.19,8.08-4.91,1.85-6.59,6.33-6.53,9.61.07,3.44,1.91,7.7,6.87,9.37,3.79,1.27,6.88,4.1,8.48,7.77,1.6,3.67,1.57,7.86-.08,11.5-2.17,4.77-.18,9.13,2.19,11.41,1.87,1.81,4.4,2.86,6.95,2.86,1.54,0,3.06-.37,4.52-1.09,1.96-.98,4.14-1.49,6.32-1.49Z"/>
  <path class="cls-2" d="M80.43,43.57l-19.48,24.36c-1.4,1.74-3.51,2.76-5.72,2.59-2.23-.1-4.22-1.22-5.47-3.08l-5.57-8.35c-1.74-2.61-5.26-3.3-7.87-1.57-2.61,1.74-3.31,5.26-1.57,7.87l5.57,8.35c3.27,4.9,8.52,7.87,14.41,8.12.28.01.55.02.83.02,5.58,0,10.73-2.47,14.24-6.85l19.48-24.36c1.96-2.45,1.56-6.02-.89-7.98-2.44-1.95-6.02-1.56-7.97.89Z"/>
  <path class="cls-2" d="M55.56,79.32c-.23,0-.46,0-.69-.02-5.09-.22-9.61-2.76-12.43-6.99l-5.57-8.35c-.46-.7-.63-1.53-.46-2.35.16-.82.64-1.52,1.33-1.99.51-.34,1.11-.52,1.73-.52,1.05,0,2.03.52,2.61,1.39l5.57,8.35c1.7,2.54,4.42,4.08,7.48,4.21.14.01.36.02.59.02,2.78,0,5.41-1.3,7.23-3.57l19.48-24.36c.59-.74,1.48-1.17,2.44-1.17.72,0,1.39.24,1.95.68,1.34,1.07,1.56,3.05.49,4.4l-19.48,24.36c-3,3.75-7.47,5.9-12.25,5.9Z"/>
  <path class="cls-2" d="M80.43,43.57l-19.48,24.36c-1.4,1.74-3.51,2.76-5.72,2.59-2.23-.1-4.22-1.22-5.47-3.08l-5.57-8.35c-1.74-2.61-5.26-3.3-7.87-1.57-2.61,1.74-3.31,5.26-1.57,7.87l5.57,8.35c3.27,4.9,8.52,7.87,14.41,8.12.28.01.55.02.83.02,5.58,0,10.73-2.47,14.24-6.85l19.48-24.36c1.96-2.45,1.56-6.02-.89-7.98-2.44-1.95-6.02-1.56-7.97.89Z"/>
  <path class="cls-2" d="M55.56,79.32c-.23,0-.46,0-.69-.02-5.09-.22-9.61-2.76-12.43-6.99l-5.57-8.35c-.46-.7-.63-1.53-.46-2.35.16-.82.64-1.52,1.33-1.99.51-.34,1.11-.52,1.73-.52,1.05,0,2.03.52,2.61,1.39l5.57,8.35c1.7,2.54,4.42,4.08,7.48,4.21.14.01.36.02.59.02,2.78,0,5.41-1.3,7.23-3.57l19.48-24.36c.59-.74,1.48-1.17,2.44-1.17.72,0,1.39.24,1.95.68,1.34,1.07,1.56,3.05.49,4.4l-19.48,24.36c-3,3.75-7.47,5.9-12.25,5.9Z"/>
</svg>