<svg viewBox="0 0 16 16" class="Icons-safeZone__sc-1ygnqgu-0 IconsList__Svg-safeZone__sc-1oy48qt-0 fRNbHj hxSYDr" version="1.1" xmlns="http://www.w3.org/2000/svg" xmlns:xlink="http://www.w3.org/1999/xlink"><g transform="translate(1.334 3.334)"><circle class="b" cx="0.667" cy="0.667" r="0.667" transform="translate(10 4)" fill="#717171"></circle><circle class="b" cx="0.667" cy="0.667" r="0.667" transform="translate(2 4)" fill="#717171"></circle><path class="b" d="M11,13a2,2,0,1,1,2-2A2,2,0,0,1,11,13Zm0-3.167A1.167,1.167,0,1,0,12.167,11,1.167,1.167,0,0,0,11,9.833Z" transform="translate(-4.333 -6.333)" fill="#717171"></path><path class="b" d="M13,14.333H4.333A2.333,2.333,0,0,1,2,12V7.333A2.333,2.333,0,0,1,4.333,5H13a2.333,2.333,0,0,1,2.333,2.333V12A2.333,2.333,0,0,1,13,14.333ZM4.333,5.667A1.667,1.667,0,0,0,2.667,7.333V12a1.667,1.667,0,0,0,1.667,1.667H13A1.667,1.667,0,0,0,14.667,12V7.333A1.667,1.667,0,0,0,13,5.667Z" transform="translate(-2 -5)" fill="#717171"></path></g></svg>