<?xml version="1.0" encoding="UTF-8"?>
<svg id="Layer_1" data-name="Layer 1" xmlns="http://www.w3.org/2000/svg" viewBox="0 0 141.73 141.73">
  <defs>
    <style>
      .cls-1 {
        fill: #fff;
      }

      .cls-2 {
        fill: #f15a29;
      }

      .cls-3 {
        fill: #ddd;
      }
    </style>
  </defs>
  <path class="cls-3" d="M138.77,69.76c0,37.52-30.41,67.93-67.93,67.93S2.91,107.27,2.91,69.76,33.33,1.83,70.84,1.83s67.93,30.41,67.93,67.93ZM68.66,8.16c-14.53.32-28.89,6.31-39.27,16.41l8.47,8.47c8.38-7.48,19.43-12.14,30.8-12.14v-12.73ZM73.09,20.89c11.39.16,22.16,4.94,30.73,12.2l8.54-8.12c.2-1.17-6.08-5.59-7.31-6.42-9.41-6.3-20.58-10.03-31.96-10.39v12.73ZM80.29,27.54c-6.17-1.33-12.09-1.06-18.27,0l3.86,13.06h10.57s3.84-13.06,3.84-13.06ZM21.61,67.4c.72-11.33,4.99-22.38,12.72-30.73l-8.57-8.57c-9.89,10.31-16.2,24.94-16.33,39.3h12.18ZM132.33,67.4c-.46-14.38-6.15-28.98-16.32-39.18-1.61,1.4-8.84,7.2-8.5,8.93,7.93,8.27,11.95,18.85,12.65,30.25h12.18ZM57.02,29.21c-1.39-1.01-13.72,6.37-14.92,8.57l9.12,9.63,9.05-5.81-3.25-12.4ZM85.28,29.2l-3.27,12.91,7.98,5.26,9.67-9.59c-3.89-4-9.1-6.87-14.37-8.58ZM94.54,69.83c0-13.15-10.66-23.81-23.81-23.81s-23.81,10.66-23.81,23.81,10.66,23.81,23.81,23.81,23.81-10.66,23.81-23.81ZM29.92,55.77c-1.71,5.71-2.87,11.76-1.96,17.75l13.07-1.4,1.39-11.94-12.5-4.41ZM112.39,56.33l-13.24,3.92,1.07,12.14,13.58,1.69c1.03-6.03-.35-11.88-1.4-17.75ZM21.61,71.83h-12.18c.23,14.32,6.07,27.98,15.23,38.76l9.1-8.59c-7.58-8.37-11.19-19-12.16-30.17ZM132.33,71.83h-11.9c-1.12,2.69-1.01,6.13-1.76,9.31-1.85,7.9-5.89,15.35-11.23,21.41l8.56,8.57c10.35-10.2,15.97-24.8,16.33-39.3ZM28.8,79.03c.91,4.33,2.62,8.75,4.89,12.55.99,1.65,1.65,3.83,3.72,2.43.97-.65,8.36-7.06,8.49-7.62l-4.16-8.98-12.94,1.62ZM112.95,79.58l-13.82-2.2-3.76,8.57c.04.6,7.98,7.38,8.97,8.05.53.36.96.67,1.65.56,3.24-4.54,5.21-9.71,6.96-14.98ZM68.66,112.24v-12.46l-10.49-3.04-5.05,11.84c.15.9,13.53,4.42,15.54,3.66ZM73.09,99.78v12.46c5.54.23,11.07-1.44,16.09-3.65l-5.57-11.04-9.6,1.5-.92.74ZM68.66,131.06v-11.9l-.92-.75c-11.28-.53-22.07-5.4-30.44-12.77l-9.04,8.54c10.81,10.22,25.45,16.62,40.4,16.89ZM73.09,119.16v11.9c14.49-.53,30.08-6.23,39.86-17.15l-9.05-7.72c-8.19,7.29-18.81,12.07-29.89,12.22l-.92.74Z"/>
  <path class="cls-1" d="M94.54,69.83c0,13.15-10.66,23.81-23.81,23.81s-23.81-10.66-23.81-23.81,10.66-23.81,23.81-23.81,23.81,10.66,23.81,23.81ZM73.76,63.63c.13-.23,1.25-.49,1.8-1.23,5.44-7.27-6.43-13.55-10.15-6.29-2.78,5.42,2.34,6.3,2.7,8.23.3,1.57.19,10.16-.56,11.07-1.83,2.21-6.62,1.79-6.13,6.11.66,5.77,7.23-1.37,9.18-1.37,2.83,0,5.66,6.1,8.86,2.74,1.73-4.17-3.39-5.43-5.83-7.59.47-2.2-.66-10.35.13-11.68Z"/>
  <path class="cls-2" d="M68.66,131.06c-14.95-.27-29.6-6.67-40.4-16.89l9.04-8.54c8.37,7.37,19.17,12.24,30.44,12.77l.92.75v11.9Z"/>
  <path class="cls-2" d="M73.09,20.89v-12.73c11.38.36,22.55,4.1,31.96,10.39,1.23.82,7.51,5.25,7.31,6.42l-8.54,8.12c-8.57-7.26-19.34-12.04-30.73-12.2Z"/>
  <path class="cls-2" d="M73.09,119.16l.92-.74c11.08-.15,21.7-4.93,29.89-12.22l9.05,7.72c-9.78,10.92-25.37,16.62-39.86,17.15v-11.9Z"/>
  <path class="cls-2" d="M68.66,8.16v12.73c-11.37,0-22.42,4.66-30.8,12.14l-8.47-8.47c10.37-10.1,24.73-16.09,39.27-16.41Z"/>
  <path class="cls-2" d="M132.33,71.83c-.36,14.49-5.98,29.1-16.33,39.3l-8.56-8.57c5.34-6.06,9.38-13.51,11.23-21.41.75-3.18.64-6.62,1.76-9.31h11.9Z"/>
  <path class="cls-2" d="M132.33,67.4h-12.18c-.7-11.41-4.71-21.98-12.65-30.25-.34-1.73,6.89-7.53,8.5-8.93,10.18,10.21,15.87,24.8,16.32,39.18Z"/>
  <path class="cls-2" d="M21.61,67.4h-12.18c.13-14.36,6.44-28.99,16.33-39.3l8.57,8.57c-7.73,8.34-12,19.39-12.72,30.73Z"/>
  <path class="cls-2" d="M21.61,71.83c.96,11.17,4.57,21.8,12.16,30.17l-9.1,8.59c-9.16-10.78-15-24.44-15.23-38.76h12.18Z"/>
  <path class="cls-1" d="M112.39,56.33c1.06,5.87,2.43,11.72,1.4,17.75l-13.58-1.69-1.07-12.14,13.24-3.92Z"/>
  <path class="cls-1" d="M29.92,55.77l12.5,4.41-1.39,11.94-13.07,1.4c-.9-5.98.25-12.04,1.96-17.75Z"/>
  <path class="cls-1" d="M80.29,27.54l-3.84,13.04h-10.57s-3.86-13.05-3.86-13.05c6.19-1.06,12.1-1.33,18.27,0Z"/>
  <path class="cls-1" d="M57.02,29.21l3.25,12.4-9.05,5.81-9.12-9.63c1.2-2.2,13.53-9.58,14.92-8.57Z"/>
  <path class="cls-1" d="M85.28,29.2c5.27,1.71,10.48,4.58,14.37,8.58l-9.67,9.59-7.98-5.26,3.27-12.91Z"/>
  <path class="cls-1" d="M28.8,79.03l12.94-1.62,4.16,8.98c-.14.55-7.53,6.96-8.49,7.62-2.07,1.41-2.73-.77-3.72-2.43-2.27-3.79-3.98-8.22-4.89-12.55Z"/>
  <path class="cls-1" d="M112.95,79.58c-1.75,5.27-3.73,10.44-6.96,14.98-.69.11-1.12-.21-1.65-.56-.99-.67-8.93-7.45-8.97-8.05l3.76-8.57,13.82,2.2Z"/>
  <path class="cls-1" d="M73.09,99.78l.92-.74,9.6-1.5,5.57,11.04c-5.02,2.2-10.55,3.88-16.09,3.65v-12.46Z"/>
  <path class="cls-1" d="M68.66,112.24c-2.01.76-15.39-2.76-15.54-3.66l5.05-11.84,10.49,3.04v12.46Z"/>
  <path class="cls-2" d="M73.76,63.63c-.79,1.33.34,9.48-.13,11.68,2.44,2.16,7.55,3.43,5.83,7.59-3.2,3.36-6.03-2.74-8.86-2.74-1.95,0-8.52,7.14-9.18,1.37-.49-4.32,4.3-3.9,6.13-6.11.76-.91.86-9.5.56-11.07-.37-1.93-5.48-2.81-2.7-8.23,3.73-7.26,15.59-.98,10.15,6.29-.55.74-1.67,1-1.8,1.23Z"/>
</svg>