<svg width="2.2rem" height="2.2rem" viewBox="0 0 22 22" version="1.1" xmlns="http://www.w3.org/2000/svg" class="sc-bqOBqt PBviZ" fill="none" style="display: block;"><path d="M11 19.2844C15.5753 19.2844 19.2843 15.5754 19.2843 11.0001C19.2843 6.42474 15.5753 2.7157 11 2.7157C6.42462 2.7157 2.71558 6.42474 2.71558 11.0001C2.71558 15.5754 6.42462 19.2844 11 19.2844Z" fill="#7BF037" fill-opacity="0.2" stroke="#7BF037" stroke-width="0.55" stroke-linecap="round" stroke-linejoin="round"></path><path d="M10.9997 14.8663C13.1349 14.8663 14.8659 13.1353 14.8659 11.0001C14.8659 8.86488 13.1349 7.13394 10.9997 7.13394C8.86448 7.13394 7.13354 8.86488 7.13354 11.0001C7.13354 13.1353 8.86448 14.8663 10.9997 14.8663Z" stroke="#7BF037" stroke-width="0.55" stroke-linecap="round" stroke-linejoin="round"></path><path d="M11.0001 17.0751C14.3553 17.0751 17.0752 14.3552 17.0752 11.0001C17.0752 7.64487 14.3553 4.92496 11.0001 4.92496C7.64496 4.92496 4.92505 7.64487 4.92505 11.0001C4.92505 14.3552 7.64496 17.0751 11.0001 17.0751Z" stroke="#7BF037" stroke-width="0.55" stroke-linecap="round" stroke-linejoin="round"></path><path d="M11 12.1044C11.61 12.1044 12.1044 11.61 12.1044 11C12.1044 10.39 11.61 9.89551 11 9.89551C10.39 9.89551 9.89551 10.39 9.89551 11C9.89551 11.61 10.39 12.1044 11 12.1044Z" fill="#7BF037" stroke="#7BF037" stroke-width="0.55" stroke-linecap="round" stroke-linejoin="round"></path><path d="M11.781 10.2191L12.3671 9.63339" stroke="#7BF037" stroke-width="0.55" stroke-linecap="round" stroke-linejoin="round"></path><path d="M9.63306 12.3672L10.2188 11.7814" stroke="#7BF037" stroke-width="0.55" stroke-linecap="round" stroke-linejoin="round"></path><path d="M11.781 11.7814L12.3671 12.3672" stroke="#7BF037olor" stroke-width="0.55" stroke-linecap="round" stroke-linejoin="round"></path><path d="M9.63306 9.63339L10.2188 10.2191" stroke="#7BF037olor" stroke-width="0.55" stroke-linecap="round" stroke-linejoin="round"></path><path d="M12.0007 7.26602L12.5724 5.13202" stroke="#7BF037olor" stroke-width="0.55" stroke-linecap="round" stroke-linejoin="round"></path><path d="M9.42773 16.8684L9.99973 14.7344" stroke="#7BF037olor" stroke-width="0.55" stroke-linecap="round" stroke-linejoin="round"></path><path d="M14.7346 12.0007L16.8683 12.5724" stroke="#7BF037olor" stroke-width="0.55" stroke-linecap="round" stroke-linejoin="round"></path><path d="M5.13184 9.42767L7.26584 9.99967" stroke="#7BF037olor" stroke-width="0.55" stroke-linecap="round" stroke-linejoin="round"></path><path d="M13.7334 8.26648L15.2957 6.70413" stroke="#7BF037olor" stroke-width="0.55" stroke-linecap="round" stroke-linejoin="round"></path><path d="M6.7041 15.2963L8.26645 13.7339" stroke="#7BF037olor" stroke-width="0.55" stroke-linecap="round" stroke-linejoin="round"></path><path d="M13.7334 13.7339L15.2957 15.2963" stroke="#7BF037olor" stroke-width="0.55" stroke-linecap="round" stroke-linejoin="round"></path><path d="M6.7041 6.70413L8.26645 8.26648" stroke="#7BF037olor" stroke-width="0.55" stroke-linecap="round" stroke-linejoin="round"></path><path d="M14.7346 9.99967L16.8683 9.42767" stroke="#7BF037olor" stroke-width="0.55" stroke-linecap="round" stroke-linejoin="round"></path><path d="M5.13184 12.5724L7.26584 12.0007" stroke="#7BF037olor" stroke-width="0.55" stroke-linecap="round" stroke-linejoin="round"></path><path d="M12.0007 14.7344L12.5724 16.8684" stroke="#7BF037olor" stroke-width="0.55" stroke-linecap="round" stroke-linejoin="round"></path><path d="M9.42773 5.13202L9.99973 7.26602" stroke="#7BF037" stroke-width="0.55" stroke-linecap="round" stroke-linejoin="round"></path></svg>