<?xml version="1.0" encoding="UTF-8"?>
<svg id="Layer_1" data-name="Layer 1" xmlns="http://www.w3.org/2000/svg" viewBox="0 0 141.73 141.73">
  <defs>
    <style>
      .cls-1 {
        fill: #f15a29;
      }

      .cls-2 {
        fill: #ddd;
      }
    </style>
  </defs>
  <path class="cls-2" d="M18.42,70.4h-9.65c-1,0-2.44-3.75-.14-4.83s10.12.13,10.78-.44l3.17-11.42c-1.07.37-2.28.47-3.41.49-2.68.06-13.63.4-15.1-1.01-1.95-1.87-.25-4.42,2.06-4.72,3.11-.41,18.37.65,19.5-.06l6.86-10.61c-4.22-.57-11.59,1.17-15.37-.27-2.04-.78-2.62-3.13-1.2-4.55,1.65-1.65,18.51,0,21.93-.76C76.93-.82,136.25,24.2,138.37,75.88c.55,13.41-6.74,43.33-23.71,43.58-8.7.13-13.44-9.52-20.47-12.96l-32.45.16c-8.93,6.23-15.2,18.01-27.83,10.58-7.31-4.3-15.48-24.37-15.48-32.5v-14.34ZM72.56,25.18c-37.17,3.07-57.47,44.38-40.76,76.95,2.12,4.14,4.94,9.79,10.33,9.49,6.05-.34,11.16-11.63,18.92-12.94,5.51-.93,28.54-.86,34.25-.08,9.16,1.26,16.48,20.19,25.56,9.82,4.83-5.51,9.14-18.53,9.68-25.78,2.52-33.82-24.2-60.26-57.99-57.47Z"/>
  <path class="cls-1" d="M106.9,44.44c1.35-.13,2.76,1.49,2.75,2.76-.01,1.56-2.58,4.37-3.62,5.72-5.16,6.73-11.15,12.88-16.39,19.55,4,11.37-8.66,22.43-18.8,14.62-10.59-8.15-1.62-26.78,11.74-21.65,4.01-2.42,21.49-20.73,24.32-21ZM75.41,81.2c4.67,3.81,11-5.48,4.41-8.32-4.98-2.14-8.32,5.13-4.41,8.32Z"/>
  <path class="cls-2" d="M75.41,81.2c-3.91-3.19-.57-10.46,4.41-8.32,6.59,2.83.26,12.13-4.41,8.32Z"/>
  <rect class="cls-2" x="11.87" y="30.85" width="31.17" height="8.02" rx="4.01" ry="4.01"/>
  <rect class="cls-2" x="1.76" y="47.32" width="27.77" height="8.02" rx="3.78" ry="3.78"/>
  <rect class="cls-2" x="1.76" y="63.59" width="24.12" height="6.97" rx="3.29" ry="3.29"/>
  <circle class="cls-1" cx="37.43" cy="77.92" r="7.37"/>
  <circle class="cls-1" cx="78.13" cy="36.63" r="7.37"/>
  <circle class="cls-1" cx="56.9" cy="44" r="7.37"/>
  <circle class="cls-1" cx="43.04" cy="58.74" r="7.37"/>
</svg>