<svg width="3rem" height="3rem" viewBox="0 0 35 35" version="1.1" xmlns="http://www.w3.org/2000/svg" className="sc-bqOBqt PBviZ cy-cross-brand-link-icon" fill="unset">
                            <path d="M33.0015 12.7439C33.011 13.4291 32.8843 14.1093 32.6287 14.7451C32.3731 15.3809 31.9936 15.9596 31.5125 16.4475C31.0313 16.9354 30.458 17.3228 29.8258 17.5872C29.1936 17.8517 28.5152 17.9878 27.83 17.9878C27.1447 17.9878 26.4663 17.8517 25.8341 17.5872C25.2019 17.3228 24.6286 16.9354 24.1475 16.4475C23.6663 15.9596 23.2869 15.3809 23.0313 14.7451C22.7756 14.1093 22.6489 13.4291 22.6585 12.7439C22.657 12.047 22.7938 11.3568 23.0609 10.7131C23.328 10.0694 23.7201 9.48508 24.2145 8.99392C23.7201 8.50278 23.3279 7.91846 23.0608 7.27477C22.7937 6.63108 22.657 5.94081 22.6585 5.24392C22.6489 4.55873 22.7756 3.87849 23.0313 3.2427C23.2869 2.60691 23.6663 2.02826 24.1475 1.54036C24.6286 1.05246 25.2019 0.665037 25.8341 0.400604C26.4663 0.136172 27.1447 0 27.83 0C28.5152 0 29.1936 0.136172 29.8258 0.400604C30.458 0.665037 31.0313 1.05246 31.5125 1.54036C31.9936 2.02826 32.3731 2.60691 32.6287 3.2427C32.8843 3.87849 33.011 4.55873 33.0015 5.24392C33.0029 5.94081 32.8662 6.63108 32.5991 7.27477C32.332 7.91846 31.9399 8.50278 31.4454 8.99392C31.9398 9.48512 32.3318 10.0695 32.5989 10.7131C32.866 11.3568 33.0028 12.047 33.0015 12.7439ZM27.8295 2.93391C27.257 2.94273 26.7083 3.16379 26.2896 3.55425C25.8709 3.9447 25.6121 4.47672 25.5634 5.04715C25.5147 5.61757 25.6796 6.18576 26.026 6.64153C26.3725 7.09731 26.8758 7.4082 27.4385 7.51391C27.5685 7.50391 27.6975 7.49392 27.8295 7.49392C27.9615 7.49392 28.0915 7.50391 28.2205 7.51391C28.7831 7.4082 29.2865 7.09731 29.6329 6.64153C29.9794 6.18576 30.1443 5.61757 30.0956 5.04715C30.0469 4.47672 29.7881 3.9447 29.3694 3.55425C28.9507 3.16379 28.4019 2.94273 27.8295 2.93391ZM28.2205 10.4739C28.0915 10.4839 27.9615 10.4939 27.8295 10.4939C27.6975 10.4939 27.5685 10.4839 27.4385 10.4739C26.8772 10.5717 26.3731 10.8763 26.0255 11.3278C25.678 11.7792 25.5124 12.3446 25.5614 12.9121C25.6105 13.4797 25.8706 14.0083 26.2904 14.3934C26.7102 14.7785 27.2593 14.9922 27.829 14.9922C28.3987 14.9922 28.9476 14.7785 29.3674 14.3934C29.7873 14.0083 30.0475 13.4797 30.0966 12.9121C30.1456 12.3446 29.98 11.7792 29.6325 11.3278C29.2849 10.8763 28.7808 10.5717 28.2195 10.4739H28.2205ZM16.5015 17.9949C15.8172 17.9898 15.1405 17.85 14.5103 17.5834C13.88 17.3168 13.3084 16.9286 12.8281 16.4411C12.3479 15.9536 11.9683 15.3763 11.7112 14.7421C11.4541 14.1079 11.3243 13.4292 11.3295 12.7449C11.3279 12.048 11.4646 11.3577 11.7317 10.714C11.9988 10.0703 12.391 9.48598 12.8855 8.99492C12.3909 8.50388 11.9987 7.91958 11.7316 7.27587C11.4645 6.63216 11.3278 5.94184 11.3295 5.24492C11.32 4.55973 11.4467 3.87949 11.7023 3.2437C11.9579 2.60791 12.3373 2.02926 12.8185 1.54136C13.2997 1.05346 13.873 0.666036 14.5051 0.401604C15.1373 0.137171 15.8157 0.000999451 16.501 0.000999451C17.1862 0.000999451 17.8647 0.137171 18.4968 0.401604C19.129 0.666036 19.7023 1.05346 20.1835 1.54136C20.6646 2.02926 21.0441 2.60791 21.2997 3.2437C21.5553 3.87949 21.682 4.55973 21.6725 5.24492C21.674 5.94182 21.5372 6.63211 21.2702 7.2758C21.0031 7.9195 20.6109 8.50381 20.1165 8.99492C20.6108 9.48608 21.0029 10.0704 21.27 10.7141C21.5371 11.3578 21.6739 12.048 21.6725 12.7449C21.6829 14.1268 21.1439 15.4562 20.1742 16.4408C19.2045 17.4253 17.8834 17.9843 16.5015 17.9949ZM16.5015 2.93492C15.929 2.94373 15.3803 3.1648 14.9616 3.55525C14.5429 3.9457 14.2841 4.47772 14.2354 5.04815C14.1867 5.61857 14.3516 6.18676 14.698 6.64254C15.0445 7.09831 15.5478 7.4092 16.1105 7.51492C16.2395 7.50492 16.3695 7.49492 16.5015 7.49492C16.6335 7.49492 16.7625 7.50492 16.8915 7.51492C17.4541 7.40923 17.9574 7.09842 18.3038 6.64275C18.6503 6.18708 18.8152 5.619 18.7666 5.04863C18.718 4.47827 18.4594 3.94625 18.0409 3.55572C17.6224 3.16519 17.0738 2.94396 16.5015 2.93492ZM16.8915 10.4749C16.7625 10.4849 16.6325 10.4949 16.5015 10.4949C16.3705 10.4949 16.2395 10.4849 16.1105 10.4749C15.5492 10.5727 15.0451 10.8773 14.6975 11.3288C14.35 11.7802 14.1844 12.3456 14.2334 12.9131C14.2825 13.4807 14.5426 14.0093 14.9624 14.3944C15.3822 14.7795 15.9313 14.9932 16.501 14.9932C17.0707 14.9932 17.6197 14.7795 18.0396 14.3944C18.4594 14.0093 18.7195 13.4807 18.7686 12.9131C18.8176 12.3456 18.652 11.7802 18.3045 11.3288C17.9569 10.8773 17.4527 10.5727 16.8915 10.4749ZM5.17152 17.9949C3.78964 17.9843 2.46852 17.4253 1.49879 16.4408C0.52906 15.4562 -0.00988287 14.1268 0.000500079 12.7449C-0.00104675 12.0481 0.135566 11.3579 0.402478 10.7142C0.669389 10.0705 1.06123 9.48617 1.55543 8.99492C1.06114 8.50373 0.669273 7.91938 0.402356 7.27569C0.135438 6.63199 -0.00115716 5.94175 0.000500079 5.24492C-0.00902807 4.55973 0.117686 3.87949 0.373303 3.2437C0.62892 2.60791 1.00835 2.02926 1.48951 1.54136C1.97068 1.05346 2.54399 0.666036 3.17616 0.401604C3.80833 0.137171 4.48676 0.000999451 5.17201 0.000999451C5.85726 0.000999451 6.53569 0.137171 7.16786 0.401604C7.80003 0.666036 8.37334 1.05346 8.8545 1.54136C9.33567 2.02926 9.7151 2.60791 9.97071 3.2437C10.2263 3.87949 10.353 4.55973 10.3435 5.24492C10.3452 5.94175 10.2086 6.63199 9.94166 7.27569C9.67474 7.91938 9.28275 8.50373 8.78846 8.99492C9.28271 9.48613 9.67463 10.0705 9.94154 10.7142C10.2085 11.3579 10.3451 12.0481 10.3435 12.7449C10.3487 13.4292 10.2189 14.1079 9.9618 14.7421C9.70467 15.3763 9.32513 15.9536 8.84486 16.4411C8.36459 16.9286 7.79301 17.3168 7.16273 17.5834C6.53246 17.85 5.85584 17.9898 5.17152 17.9949ZM5.17152 2.93492C4.59909 2.94373 4.05029 3.1648 3.6316 3.55525C3.21291 3.9457 2.95411 4.47772 2.90541 5.04815C2.85671 5.61857 3.02161 6.18676 3.36805 6.64254C3.7145 7.09831 4.21787 7.4092 4.78053 7.51492C4.91053 7.50492 5.03952 7.49492 5.17152 7.49492C5.30352 7.49492 5.43251 7.50492 5.56251 7.51492C6.12517 7.4092 6.62854 7.09831 6.97499 6.64254C7.32144 6.18676 7.48621 5.61857 7.43751 5.04815C7.38881 4.47772 7.13001 3.9457 6.71132 3.55525C6.29262 3.1648 5.74395 2.94373 5.17152 2.93492ZM5.56251 10.4749C5.43351 10.4849 5.30452 10.4949 5.17152 10.4949C5.03852 10.4949 4.91053 10.4849 4.78053 10.4749C4.21927 10.5727 3.71497 10.8773 3.36744 11.3288C3.01991 11.7802 2.8544 12.3456 2.90345 12.9131C2.95251 13.4807 3.21263 14.0093 3.63246 14.3944C4.05229 14.7795 4.60133 14.9932 5.17103 14.9932C5.74074 14.9932 6.28966 14.7795 6.70948 14.3944C7.12931 14.0093 7.38943 13.4807 7.43849 12.9131C7.48754 12.3456 7.32203 11.7802 6.9745 11.3288C6.62697 10.8773 6.12279 10.5727 5.56154 10.4749H5.56251Z" fill="#FC6200"></path>
                            <path d="M2.464 31.8645C1.9613 31.87 1.46354 31.7649 1.006 31.5565C0.629515 31.3981 0.287736 31.1674 0 30.8775L0.550001 29.8985C0.812299 30.1345 1.10862 30.3297 1.429 30.4775C1.75403 30.6334 2.10862 30.7179 2.469 30.7255C2.72792 30.7385 2.98573 30.6836 3.217 30.5665C3.30013 30.5255 3.37002 30.462 3.41866 30.3831C3.4673 30.3042 3.49272 30.2132 3.492 30.1205C3.49004 30.0513 3.47279 29.9835 3.4415 29.9217C3.4102 29.86 3.36564 29.806 3.311 29.7635C3.13711 29.6275 2.94177 29.5214 2.733 29.4495C2.25493 29.2845 1.79134 29.0801 1.347 28.8385C1.07155 28.6945 0.835652 28.485 0.660001 28.2285C0.51856 27.9812 0.449273 27.6992 0.460001 27.4145C0.455703 27.0977 0.556251 26.7883 0.746001 26.5345C0.947888 26.269 1.21529 26.0606 1.522 25.9295C1.87079 25.7783 2.24787 25.7032 2.628 25.7095C3.3392 25.699 4.03039 25.945 4.575 26.4025L4.19 27.4915C3.97061 27.3268 3.73013 27.1923 3.475 27.0915C3.21964 26.9715 2.94292 26.9035 2.661 26.8915C2.46604 26.8793 2.27118 26.9171 2.095 27.0015C2.02146 27.0345 1.95959 27.0888 1.91748 27.1575C1.87537 27.2262 1.85498 27.306 1.859 27.3865C1.86129 27.4659 1.88243 27.5435 1.92069 27.6131C1.95894 27.6827 2.01321 27.7421 2.079 27.7865C2.30364 27.941 2.54777 28.0651 2.805 28.1555C3.18046 28.3104 3.54762 28.4846 3.905 28.6775C4.15582 28.8163 4.37511 29.0056 4.549 29.2335C4.7194 29.4705 4.80978 29.7557 4.807 30.0475C4.81041 30.3009 4.75395 30.5515 4.64222 30.779C4.53049 31.0065 4.36664 31.2043 4.164 31.3565C3.66963 31.7103 3.0714 31.889 2.464 31.8645ZM10.274 25.7155C10.8087 25.707 11.3355 25.8453 11.797 26.1155C12.2351 26.3743 12.5925 26.75 12.829 27.2005C13.0785 27.679 13.2049 28.212 13.197 28.7515V28.7775C13.2043 29.3157 13.0778 29.8473 12.829 30.3245C12.5941 30.7754 12.2368 31.1508 11.798 31.4075C11.3347 31.6732 10.808 31.8084 10.274 31.7985C9.87065 31.8087 9.47138 31.7158 9.114 31.5285C8.78848 31.349 8.51731 31.0851 8.329 30.7645V34.2075H6.952V25.8255H8.329V26.7495C8.52701 26.4152 8.81326 26.1419 9.15634 25.9595C9.49943 25.7771 9.88612 25.6927 10.274 25.7155ZM11.803 28.7405C11.8113 28.5151 11.7741 28.2903 11.6937 28.0795C11.6133 27.8687 11.4913 27.6762 11.335 27.5135C11.1819 27.3563 10.9977 27.2325 10.7943 27.1503C10.5908 27.068 10.3724 27.0289 10.153 27.0355C9.86051 27.0333 9.57244 27.107 9.317 27.2495C9.06151 27.3911 8.85007 27.6004 8.706 27.8545C8.55311 28.1241 8.47508 28.4297 8.48 28.7395V28.7615C8.47512 29.0725 8.55091 29.3795 8.7 29.6525C8.83954 29.9091 9.04715 30.1223 9.3 30.2685C9.55227 30.415 9.83929 30.491 10.131 30.4885C10.4278 30.4914 10.7201 30.4155 10.978 30.2685C11.2331 30.1235 11.4426 29.9102 11.583 29.6525C11.7321 29.3795 11.8079 29.0725 11.803 28.7615V28.7405ZM18.337 31.7875C17.7932 31.7944 17.257 31.6596 16.781 31.3965C16.3228 31.1439 15.9437 30.7689 15.686 30.3135C15.4178 29.841 15.2797 29.3058 15.286 28.7625V28.7515C15.2797 28.2082 15.4178 27.673 15.686 27.2005C15.9451 26.7434 16.3236 26.3652 16.781 26.1065C17.2549 25.8373 17.792 25.6992 18.337 25.7065C18.8821 25.7006 19.4192 25.8386 19.894 26.1065C20.3495 26.3598 20.7277 26.732 20.988 27.1835C21.2567 27.654 21.3948 28.1878 21.388 28.7295V28.7515C21.3943 29.2948 21.2562 29.83 20.988 30.3025C20.7298 30.7588 20.3514 31.1354 19.894 31.3915C19.4188 31.6581 18.8818 31.7946 18.337 31.7875ZM18.348 30.4775C18.643 30.4808 18.9334 30.4048 19.189 30.2575C19.4398 30.1132 19.6454 29.902 19.783 29.6475C19.9291 29.3754 20.0032 29.0704 19.998 28.7615V28.7395C20.0029 28.4285 19.9271 28.1215 19.778 27.8485C19.6376 27.5909 19.4281 27.3775 19.173 27.2325C18.9151 27.0855 18.6228 27.0096 18.326 27.0125C18.0343 27.01 17.7473 27.086 17.495 27.2325C17.2422 27.3788 17.0345 27.5919 16.895 27.8485C16.7459 28.1215 16.6701 28.4285 16.675 28.7395V28.7615C16.6696 29.0716 16.7473 29.3776 16.9 29.6475C17.045 29.9022 17.2561 30.113 17.511 30.2575C17.7656 30.4038 18.0544 30.4797 18.348 30.4775ZM23.639 25.8255H25.014V27.0025C25.2002 26.6207 25.4877 26.2973 25.845 26.0675C26.1991 25.8458 26.6114 25.7347 27.029 25.7485V27.0575H26.864C26.5466 27.056 26.2341 27.1356 25.956 27.2885C25.6828 27.4344 25.4489 27.644 25.274 27.8995C25.1057 28.1395 25.0152 28.4254 25.015 28.7185V31.6775H23.639V25.8255ZM31.471 31.7985C31.0049 31.8281 30.546 31.6716 30.195 31.3635C30.0338 31.1869 29.9106 30.979 29.8331 30.7528C29.7555 30.5266 29.7252 30.2869 29.744 30.0485V27.1235H28.996V25.8235H29.744V24.1865H31.119V25.8255H32.747V27.1255H31.119V29.7775C31.1121 29.8779 31.125 29.9787 31.1571 30.0742C31.1892 30.1696 31.2398 30.2577 31.306 30.3335C31.376 30.4003 31.459 30.4518 31.5499 30.4848C31.6408 30.5179 31.7375 30.5317 31.834 30.5255C32.1438 30.5241 32.4516 30.4759 32.747 30.3825V31.5235C32.5589 31.6165 32.3591 31.6838 32.153 31.7235C31.9289 31.7722 31.7003 31.7973 31.471 31.7985Z" fill="#FC6200"></path>
                        </svg>