<?xml version="1.0" encoding="UTF-8"?>
<svg id="Layer_1" data-name="Layer 1" xmlns="http://www.w3.org/2000/svg" viewBox="0 0 141.73 141.73">
  <defs>
    <style>
      .cls-1 {
        stroke-width: 2.1px;
      }

      .cls-1, .cls-2 {
        fill: #ddd;
        stroke: #ddd;
        stroke-miterlimit: 10;
      }

      .cls-3 {
        fill: #f15a29;
      }

      .cls-2 {
        stroke-width: 1.8px;
      }
    </style>
  </defs>
  <path class="cls-2" d="M79.88,8.9c-.99-.2-1.96.44-2.17,1.43-.2.99.44,1.96,1.43,2.17,8.75,1.78,16.75,5.55,23.54,10.81l.75,19.28-16.87,11.36-23.57-8.35-5.77-19.52,13.11-15.36c.07-.08.09-.18.15-.26.05-.09.11-.17.15-.26.06-.15.08-.3.1-.46,0-.06.04-.11.04-.17,0-.02-.01-.04-.01-.06,0-.16-.04-.32-.09-.48-.02-.08-.03-.15-.06-.23-.05-.13-.14-.23-.22-.34-.06-.08-.12-.17-.19-.24-.02-.02-.04-.06-.06-.08-.07-.06-.16-.08-.24-.13-.1-.06-.2-.13-.31-.17-.12-.05-.25-.06-.38-.08-.08-.01-.15-.05-.24-.05-6.19-.12-12.36.72-18.36,2.49C18.55,19.67.19,53.46,9.67,85.52c2.69,9.09,7.3,17.19,13.71,24.08.49.53,1.22.7,1.87.51.26-.08.51-.22.73-.42.74-.69.78-1.86.09-2.6-5.83-6.27-10.06-13.61-12.62-21.82l10.37-15.49,20.33.35,14.14,20.59-6.67,18.51-19.06,4.69c-.06.02-.11.06-.16.08-.16.06-.31.12-.45.22-.05.04-.09.09-.14.13-.1.09-.22.16-.3.27-.02.04-.03.08-.05.11-.04.06-.06.13-.09.19-.07.15-.14.29-.17.45-.02.08,0,.17,0,.26,0,.15-.01.29.02.44,0,.02,0,.05,0,.07.02.08.07.14.1.22.05.12.09.25.17.36.07.11.17.2.26.29.06.06.09.13.16.18,15.42,11.3,34.76,14.68,53.07,9.26,23.74-7.02,40.67-27.47,43.14-52.11.1-1.01-.63-1.91-1.64-2.01-1.01-.1-1.91.63-2.01,1.64-.48,4.77-1.57,9.37-3.14,13.73l-18.64,6.47c-.09.03-.15.09-.23.14-.12.06-.25.12-.35.21-.09.08-.16.18-.23.27-.07.09-.15.17-.21.28-.06.12-.09.26-.12.39-.02.09-.07.16-.08.25l-2.19,20.09c-4.64,3.06-9.79,5.49-15.33,7.13s-11.17,2.4-16.75,2.35l-12.1-14.84,6.65-18.47,23.98-7.09,8.65,6.57c.48.37,1.09.46,1.63.3.36-.11.69-.33.94-.65.61-.81.46-1.96-.35-2.57l-8.64-6.57.66-24.97,16.87-11.36,17.13,7.35c1.02,3.66,1.7,7.41,1.98,11.17.07,1.01.96,1.77,1.97,1.69.13,0,.26-.03.39-.07.81-.24,1.38-1.02,1.31-1.9-.32-4.3-1.11-8.59-2.34-12.75-6.37-21.55-24.02-37.73-46.06-42.22ZM105.01,97.27l14.48-5.02c-3.72,8.06-9.25,15.12-16.18,20.63l1.7-15.6ZM62.27,125.03c-8.71-.85-17.18-3.71-24.79-8.52l14.87-3.66,9.92,12.17ZM51.65,13.71c4.34-1.28,8.77-2.03,13.24-2.27l-10.33,12.1-15.23-4.53c3.81-2.2,7.92-4,12.32-5.3ZM84.31,81.46l-23.2,6.86-14.45-21.04s-.07-.07-.11-.1c-.08-.1-.17-.18-.26-.26-.09-.08-.18-.14-.29-.2-.1-.05-.2-.09-.31-.12-.12-.04-.24-.07-.37-.08-.05,0-.09-.03-.14-.03l-21.26-.37-4.27-7.19c-.52-.87-1.65-1.16-2.52-.64-.87.52-1.16,1.65-.64,2.52l4.2,7.07-8.49,12.67c-5.04-22.84,4.54-46.01,23.02-58.92l18.48,5.49,5.77,19.52-8.86,11.53c-.62.8-.46,1.96.34,2.58.81.62,1.96.47,2.58-.34l8.61-11.22,22.8,8.08-.64,24.18ZM107.1,42.32l-.61-15.81c6.43,5.95,11.49,13.38,14.65,21.83l-14.03-6.02Z"/>
  <g>
    <polygon class="cls-3" points="131.52 123.8 106.89 127.75 82.78 123.94 82.78 84.44 108.69 77.39 132.61 85.06 131.52 123.8"/>
    <path class="cls-1" d="M106.89,77.39c-15.53,0-27.7,5.41-27.7,12.32v.09h0v28.29c0,6.91,12.17,12.32,27.7,12.32s27.7-5.41,27.7-12.32v-28.29h0v-.09c0-6.91-12.17-12.32-27.7-12.32ZM106.89,113.54c-14.65,0-24.87-5-24.87-9.48v-8.75c4.47,4.07,13.82,6.81,24.87,6.81s20.39-2.74,24.87-6.81v8.75c0,4.49-10.21,9.48-24.87,9.48ZM106.89,127.57c-14.65,0-24.87-5-24.87-9.48v-8.52c4.47,4.07,13.82,6.81,24.87,6.81s20.39-2.74,24.87-6.81v8.52c0,4.49-10.21,9.48-24.87,9.48ZM131.75,89.79c0,4.49-10.21,9.48-24.87,9.48s-24.87-5-24.87-9.48h0v-.09c0-4.49,10.21-9.48,24.87-9.48s24.87,5,24.87,9.48v.09h0Z"/>
  </g>
</svg>