<?xml version="1.0" encoding="UTF-8"?>
<svg id="Layer_1" data-name="Layer 1" xmlns="http://www.w3.org/2000/svg" viewBox="0 0 141.73 141.73">
  <defs>
    <style>
      .cls-1 {
        fill: #f15a29;
      }

      .cls-2 {
        fill: #ddd;
        stroke: #ddd;
        stroke-miterlimit: 10;
        stroke-width: 1.03px;
      }
    </style>
  </defs>
  <path class="cls-1" d="M74.65,100.74v4.43c0,3.01-1.15,4.25-3.63,4.25h-.53c-2.48,0-3.54-1.15-3.54-4.25v-4.34c-7.35-.8-12.67-3.63-15.33-6.82-1.24-1.42-1.95-2.92-1.95-4.34,0-3.1,3.72-5.05,3.99-4.7,2.66,3.99,7.53,7.27,13.65,8.24v-18.7c-7.89-1.95-16.22-5.41-16.22-15.95,0-8.24,6.56-14.53,16.04-15.95v-4.34c0-3.01,1.15-4.17,3.54-4.17h.62c2.48,0,3.54,1.15,3.54,4.17v4.16c6.29.62,10.99,2.84,13.65,5.32,1.51,1.51,2.3,3.1,2.3,4.61,0,3.19-3.9,5.14-4.08,4.87-2.57-3.63-7.09-6.47-12.32-7.27v17.99c8.33,2.04,17.54,5.49,17.54,16.39,0,8.77-6.91,15.24-17.28,16.39ZM67.57,66.28v-16.13c-4.7,1.06-7.8,4.25-7.8,8.24,0,4.43,3.01,6.38,7.8,7.89ZM82.98,84.71c0-4.79-3.81-6.91-8.86-8.51v17.1c5.41-.89,8.86-4.25,8.86-8.59Z"/>
  <g>
    <path class="cls-2" d="M123.34,94.29c-1.57-.78-3.47-.14-4.25,1.43-9.18,18.47-27.68,29.94-48.29,29.94-27.62,0-50.43-20.9-53.51-47.71l13.71,9.14c.54.36,1.15.53,1.76.53,1.02,0,2.03-.5,2.64-1.41.97-1.46.58-3.42-.88-4.4l-19.02-12.68c-.08-.05-.18-.06-.26-.11-.19-.1-.38-.18-.59-.24-.21-.06-.41-.11-.63-.13-.09,0-.18-.05-.27-.05-.1,0-.19.05-.29.06-.23.02-.44.06-.66.13-.19.06-.36.13-.53.22-.18.1-.34.21-.5.34-.17.14-.31.28-.45.45-.07.08-.16.13-.21.21-.05.08-.06.18-.11.26-.1.19-.18.38-.24.59-.06.21-.11.41-.12.62,0,.1-.06.18-.06.28,0,33.21,27.02,60.23,60.23,60.23,23.03,0,43.71-12.82,53.97-33.45.78-1.57.14-3.47-1.43-4.25Z"/>
    <path class="cls-2" d="M130.97,72.05c0-.1.06-.18.06-.28,0-33.21-27.02-60.23-60.23-60.23-22.63,0-43.14,12.5-53.54,32.61-.8,1.55-.2,3.47,1.36,4.27,1.56.8,3.47.2,4.27-1.36,9.3-18,27.66-29.18,47.9-29.18,27.62,0,50.43,20.9,53.51,47.71l-13.71-9.14c-1.45-.97-3.43-.58-4.4.88-.97,1.45-.58,3.42.88,4.4l19.02,12.68c.06.04.13.02.19.06.47.27.98.47,1.56.47,0,0,0,0,0,0,0,0,0,0,0,0,0,0,0,0,0,0,.49,0,.95-.13,1.36-.34.12-.06.21-.14.32-.21.3-.19.56-.42.78-.7.05-.06.13-.09.18-.16.05-.08.06-.18.11-.26.1-.19.18-.38.24-.59.06-.21.11-.41.13-.63Z"/>
  </g>
</svg>